Pretendard-Split-Symbols.glyphspackage
{
color = 11;
glyphname = logoNile;
layers = (
{
layerId = "B1F27B51-9973-4381-9301-4FE46FE1CA59";
shapes = (
{
closed = 1;
nodes = (
(614,-54,l),
(573,148,l),
(108,148,l),
(-10,-54,l)
);
},
{
closed = 1;
nodes = (
(561,206,l),
(521,398,l),
(254,398,l),
(142,206,l)
);
},
{
closed = 1;
nodes = (
(970,-54,l),
(850,148,l),
(625,148,l),
(667,-54,l)
);
},
{
closed = 1;
nodes = (
(509,455,l),
(451,734,l),
(288,455,l)
);
},
{
closed = 1;
nodes = (
(816,206,l),
(703,398,l),
(574,398,l),
(613,206,l)
);
},
{
closed = 1;
nodes = (
(669,455,l),
(504,734,l),
(562,455,l)
);
}
);
width = 960;
},
{
layerId = "CD0E3B44-F66A-4791-B84C-A1128DC61275";
shapes = (
{
closed = 1;
nodes = (
(614,-54,l),
(573,148,l),
(108,148,l),
(-10,-54,l)
);
},
{
closed = 1;
nodes = (
(561,206,l),
(521,398,l),
(254,398,l),
(142,206,l)
);
},
{
closed = 1;
nodes = (
(970,-54,l),
(850,148,l),
(625,148,l),
(667,-54,l)
);
},
{
closed = 1;
nodes = (
(509,455,l),
(451,734,l),
(288,455,l)
);
},
{
closed = 1;
nodes = (
(816,206,l),
(703,398,l),
(574,398,l),
(613,206,l)
);
},
{
closed = 1;
nodes = (
(669,455,l),
(504,734,l),
(562,455,l)
);
}
);
width = 960;
},
{
layerId = "5C20EF92-B63D-42A8-8878-93C2863E0093";
shapes = (
{
closed = 1;
nodes = (
(614,-54,l),
(573,148,l),
(108,148,l),
(-10,-54,l)
);
},
{
closed = 1;
nodes = (
(561,206,l),
(521,398,l),
(254,398,l),
(142,206,l)
);
},
{
closed = 1;
nodes = (
(970,-54,l),
(850,148,l),
(625,148,l),
(667,-54,l)
);
},
{
closed = 1;
nodes = (
(509,455,l),
(451,734,l),
(288,455,l)
);
},
{
closed = 1;
nodes = (
(816,206,l),
(703,398,l),
(574,398,l),
(613,206,l)
);
},
{
closed = 1;
nodes = (
(669,455,l),
(504,734,l),
(562,455,l)
);
}
);
width = 960;
}
);
metricWidth = symbolBase;
unicode = 1024002;
}
{
color = 11;
glyphname = logoWemixexplorer;
layers = (
{
layerId = "CD0E3B44-F66A-4791-B84C-A1128DC61275";
shapes = (
{
closed = 1;
nodes = (
(2573,205,o),
(2625,278,o),
(2667,356,c),
(2172,323,o),
(1575,422,o),
(799,661,c),
(796,661,l),
(576,727,o),
(314,784,o),
(75,805,c),
(87,730,o),
(106,655,o),
(130,582,c),
(356,558,o),
(603,489,o),
(815,428,cs),
(1297,293,o),
(1919,118,o),
(2516,136,c)
);
},
{
closed = 1;
nodes = (
(1502,-365,o),
(1557,-362,o),
(1608,-356,c),
(305,235,l),
(555,-127,o),
(974,-365,o),
(1448,-365,cs)
);
},
{
closed = 1;
nodes = (
(2036,-238,o),
(2136,-187,o),
(2226,-127,c),
(1653,-12,o),
(996,296,o),
(489,443,cs),
(377,474,o),
(265,501,o),
(151,525,c),
(184,437,o),
(229,353,o),
(278,275,c),
(374,250,o),
(471,223,o),
(561,193,cs),
(938,69,o),
(1421,-139,o),
(1934,-278,c)
);
},
{
closed = 1;
nodes = (
(2818,778,o),
(2830,857,o),
(2836,935,c),
(1955,733,o),
(1255,893,o),
(513,1026,cs),
(365,1053,o),
(214,1071,o),
(60,1083,c),
(54,1029,o),
(63,911,o),
(66,863,c),
(226,851,o),
(383,830,o),
(537,799,cs),
(1207,670,o),
(1952,528,o),
(2802,706,c)
);
},
{
closed = 1;
nodes = (
(1035,1071,o),
(1469,1071,o),
(1901,1113,cs),
(2335,1155,o),
(2676,1222,o),
(2821,1255,c),
(2809,1327,o),
(2790,1397,o),
(2769,1463,c),
(2555,1418,o),
(2293,1376,o),
(2030,1345,cs),
(1557,1291,o),
(1077,1285,o),
(600,1324,cs),
(434,1336,o),
(268,1345,o),
(100,1354,cs),
(97,1354,l),
(81,1282,o),
(69,1213,o),
(63,1140,c),
(69,1137,o),
(75,1137,o),
(81,1137,cs),
(256,1128,o),
(431,1119,o),
(603,1104,cs)
);
},
{
closed = 1;
nodes = (
(193,1412,ls),
(1044,1412,o),
(1873,1511,o),
(2667,1698,c),
(2628,1765,o),
(2585,1831,o),
(2537,1891,c),
(1783,1720,o),
(1002,1629,o),
(196,1629,c),
(163,1560,o),
(133,1487,o),
(112,1412,c)
);
},
{
closed = 1;
nodes = (
(950,1765,o),
(1662,1897,o),
(2353,2082,c),
(2281,2142,o),
(2202,2199,o),
(2118,2244,c),
(1554,2103,o),
(974,1997,o),
(386,1925,c),
(326,1849,o),
(272,1771,o),
(226,1686,c)
);
},
{
closed = 1;
nodes = (
(1843,2359,l),
(1716,2395,o),
(1584,2416,o),
(1448,2416,cs),
(1053,2416,o),
(694,2250,o),
(440,1985,c)
);
}
);
width = 2896;
},
{
layerId = "B1F27B51-9973-4381-9301-4FE46FE1CA59";
shapes = (
{
closed = 1;
nodes = (
(2574,206,o),
(2626,278,o),
(2668,356,c),
(2172,324,o),
(1576,422,o),
(800,662,c),
(796,662,l),
(576,728,o),
(314,784,o),
(76,806,c),
(88,730,o),
(106,656,o),
(130,582,c),
(356,558,o),
(604,490,o),
(816,428,cs),
(1298,294,o),
(1920,118,o),
(2516,136,c)
);
},
{
closed = 1;
nodes = (
(1502,-364,o),
(1558,-362,o),
(1608,-356,c),
(306,236,l),
(556,-126,o),
(974,-364,o),
(1448,-364,cs)
);
},
{
closed = 1;
nodes = (
(2036,-238,o),
(2136,-186,o),
(2226,-126,c),
(1654,-12,o),
(996,296,o),
(490,444,cs),
(378,474,o),
(266,502,o),
(152,526,c),
(184,438,o),
(230,354,o),
(278,276,c),
(374,250,o),
(472,224,o),
(562,194,cs),
(938,70,o),
(1422,-138,o),
(1934,-278,c)
);
},
{
closed = 1;
nodes = (
(2818,778,o),
(2830,858,o),
(2836,936,c),
(1956,734,o),
(1256,894,o),
(514,1026,cs),
(366,1054,o),
(214,1072,o),
(60,1084,c),
(54,1030,o),
(64,912,o),
(66,864,c),
(226,852,o),
(384,830,o),
(538,800,cs),
(1208,670,o),
(1952,528,o),
(2802,706,c)
);
},
{
closed = 1;
nodes = (
(1036,1072,o),
(1470,1072,o),
(1902,1114,cs),
(2336,1156,o),
(2676,1222,o),
(2822,1256,c),
(2810,1328,o),
(2790,1398,o),
(2770,1464,c),
(2556,1418,o),
(2294,1376,o),
(2030,1346,cs),
(1558,1292,o),
(1078,1286,o),
(600,1324,cs),
(434,1336,o),
(268,1346,o),
(100,1354,cs),
(98,1354,l),
(82,1282,o),
(70,1214,o),
(64,1140,c),
(70,1138,o),
(76,1138,o),
(82,1138,cs),
(256,1128,o),
(432,1120,o),
(604,1104,cs)
);
},
{
closed = 1;
nodes = (
(194,1412,ls),
(1044,1412,o),
(1874,1512,o),
(2668,1698,c),
(2628,1766,o),
(2586,1832,o),
(2538,1892,c),
(1784,1720,o),
(1002,1630,o),
(196,1630,c),
(164,1560,o),
(134,1488,o),
(112,1412,c)
);
},
{
closed = 1;
nodes = (
(950,1766,o),
(1662,1898,o),
(2354,2082,c),
(2282,2142,o),
(2202,2200,o),
(2118,2244,c),
(1554,2104,o),
(974,1998,o),
(386,1926,c),
(326,1850,o),
(272,1772,o),
(226,1686,c)
);
},
{
closed = 1;
nodes = (
(1844,2360,l),
(1716,2396,o),
(1584,2416,o),
(1448,2416,cs),
(1054,2416,o),
(694,2250,o),
(440,1986,c)
);
}
);
width = 2896;
},
{
layerId = "5C20EF92-B63D-42A8-8878-93C2863E0093";
shapes = (
{
closed = 1;
nodes = (
(2574,206,o),
(2626,278,o),
(2668,356,c),
(2172,324,o),
(1576,422,o),
(800,662,c),
(796,662,l),
(576,728,o),
(314,784,o),
(76,806,c),
(88,730,o),
(106,656,o),
(130,582,c),
(356,558,o),
(604,490,o),
(816,428,cs),
(1298,294,o),
(1920,118,o),
(2516,136,c)
);
},
{
closed = 1;
nodes = (
(1502,-364,o),
(1558,-362,o),
(1608,-356,c),
(306,236,l),
(556,-126,o),
(974,-364,o),
(1448,-364,cs)
);
},
{
closed = 1;
nodes = (
(2036,-238,o),
(2136,-186,o),
(2226,-126,c),
(1654,-12,o),
(996,296,o),
(490,444,cs),
(378,474,o),
(266,502,o),
(152,526,c),
(184,438,o),
(230,354,o),
(278,276,c),
(374,250,o),
(472,224,o),
(562,194,cs),
(938,70,o),
(1422,-138,o),
(1934,-278,c)
);
},
{
closed = 1;
nodes = (
(2818,778,o),
(2830,858,o),
(2836,936,c),
(1956,734,o),
(1256,894,o),
(514,1026,cs),
(366,1054,o),
(214,1072,o),
(60,1084,c),
(54,1030,o),
(64,912,o),
(66,864,c),
(226,852,o),
(384,830,o),
(538,800,cs),
(1208,670,o),
(1952,528,o),
(2802,706,c)
);
},
{
closed = 1;
nodes = (
(1036,1072,o),
(1470,1072,o),
(1902,1114,cs),
(2336,1156,o),
(2676,1222,o),
(2822,1256,c),
(2810,1328,o),
(2790,1398,o),
(2770,1464,c),
(2556,1418,o),
(2294,1376,o),
(2030,1346,cs),
(1558,1292,o),
(1078,1286,o),
(600,1324,cs),
(434,1336,o),
(268,1346,o),
(100,1354,cs),
(98,1354,l),
(82,1282,o),
(70,1214,o),
(64,1140,c),
(70,1138,o),
(76,1138,o),
(82,1138,cs),
(256,1128,o),
(432,1120,o),
(604,1104,cs)
);
},
{
closed = 1;
nodes = (
(194,1412,ls),
(1044,1412,o),
(1874,1512,o),
(2668,1698,c),
(2628,1766,o),
(2586,1832,o),
(2538,1892,c),
(1784,1720,o),
(1002,1630,o),
(196,1630,c),
(164,1560,o),
(134,1488,o),
(112,1412,c)
);
},
{
closed = 1;
nodes = (
(950,1766,o),
(1662,1898,o),
(2354,2082,c),
(2282,2142,o),
(2202,2200,o),
(2118,2244,c),
(1554,2104,o),
(974,1998,o),
(386,1926,c),
(326,1850,o),
(272,1772,o),
(226,1686,c)
);
},
{
closed = 1;
nodes = (
(1844,2360,l),
(1716,2396,o),
(1584,2416,o),
(1448,2416,cs),
(1054,2416,o),
(694,2250,o),
(440,1986,c)
);
}
);
width = 2896;
}
);
metricWidth = symbolBase;
unicode = 1024005;
}
{
color = 11;
glyphname = logoWemixfi;
layers = (
{
layerId = "CD0E3B44-F66A-4791-B84C-A1128DC61275";
shapes = (
{
closed = 1;
nodes = (
(1780,-537,o),
(2217,-244,o),
(2422,184,cs),
(2450,241,o),
(2501,281,o),
(2561,296,cs),
(2754,347,o),
(2896,522,o),
(2896,733,cs),
(2896,941,o),
(2754,1116,o),
(2564,1167,cs),
(2501,1186,o),
(2450,1231,o),
(2422,1288,cs),
(2383,1373,o),
(2398,1466,o),
(2456,1532,cs),
(2555,1644,o),
(2612,1792,o),
(2612,1952,cs),
(2612,2305,o),
(2329,2588,o),
(1976,2588,cs),
(1695,2588,o),
(1457,2407,o),
(1373,2154,cs),
(1345,2069,o),
(1267,2015,o),
(1180,2006,cs),
(519,1958,o),
(0,1409,o),
(0,736,cs),
(0,63,o),
(570,-537,o),
(1273,-537,cs)
);
}
);
width = 2896;
},
{
layerId = "B1F27B51-9973-4381-9301-4FE46FE1CA59";
shapes = (
{
closed = 1;
nodes = (
(1780,-536,o),
(2218,-244,o),
(2422,184,cs),
(2450,242,o),
(2502,282,o),
(2562,296,cs),
(2754,348,o),
(2896,522,o),
(2896,734,cs),
(2896,942,o),
(2754,1116,o),
(2564,1168,cs),
(2502,1186,o),
(2450,1232,o),
(2422,1288,cs),
(2384,1374,o),
(2398,1466,o),
(2456,1532,cs),
(2556,1644,o),
(2612,1792,o),
(2612,1952,cs),
(2612,2306,o),
(2330,2588,o),
(1976,2588,cs),
(1696,2588,o),
(1458,2408,o),
(1374,2154,cs),
(1346,2070,o),
(1268,2016,o),
(1180,2006,cs),
(520,1958,o),
(0,1410,o),
(0,736,cs),
(0,64,o),
(570,-536,o),
(1274,-536,cs)
);
}
);
width = 2896;
},
{
layerId = "5C20EF92-B63D-42A8-8878-93C2863E0093";
shapes = (
{
closed = 1;
nodes = (
(1780,-536,o),
(2218,-244,o),
(2422,184,cs),
(2450,242,o),
(2502,282,o),
(2562,296,cs),
(2754,348,o),
(2896,522,o),
(2896,734,cs),
(2896,942,o),
(2754,1116,o),
(2564,1168,cs),
(2502,1186,o),
(2450,1232,o),
(2422,1288,cs),
(2384,1374,o),
(2398,1466,o),
(2456,1532,cs),
(2556,1644,o),
(2612,1792,o),
(2612,1952,cs),
(2612,2306,o),
(2330,2588,o),
(1976,2588,cs),
(1696,2588,o),
(1458,2408,o),
(1374,2154,cs),
(1346,2070,o),
(1268,2016,o),
(1180,2006,cs),
(520,1958,o),
(0,1410,o),
(0,736,cs),
(0,64,o),
(570,-536,o),
(1274,-536,cs)
);
}
);
width = 2896;
}
);
metricWidth = symbolBase;
unicode = 1024006;
}
{
color = 11;
glyphname = logoWepublic;
layers = (
{
layerId = "CD0E3B44-F66A-4791-B84C-A1128DC61275";
shapes = (
{
closed = 1;
nodes = (
(1180,926,l),
(1463,1795,l),
(1744,926,l),
(1970,926,l),
(2380,2172,l),
(2094,2172,l),
(1852,1361,l),
(1572,2172,l),
(1348,2172,l),
(1074,1361,l),
(833,2172,l),
(543,2172,l),
(956,926,l)
);
},
{
closed = 1;
nodes = (
(1264,425,l),
(1264,676,l),
(184,676,l),
(184,425,l)
);
},
{
closed = 1;
nodes = (
(1315,-63,l),
(1523,232,o),
(1867,425,o),
(2259,425,cs),
(2739,425,l),
(2739,676,l),
(2259,676,ls),
(1813,676,o),
(1484,474,o),
(1285,272,c),
(1285,-63,l)
);
}
);
width = 2896;
},
{
layerId = "B1F27B51-9973-4381-9301-4FE46FE1CA59";
shapes = (
{
closed = 1;
nodes = (
(1180,926,l),
(1464,1796,l),
(1744,926,l),
(1970,926,l),
(2380,2172,l),
(2094,2172,l),
(1852,1362,l),
(1572,2172,l),
(1348,2172,l),
(1074,1362,l),
(834,2172,l),
(544,2172,l),
(956,926,l)
);
},
{
closed = 1;
nodes = (
(1264,426,l),
(1264,676,l),
(184,676,l),
(184,426,l)
);
},
{
closed = 1;
nodes = (
(1316,-62,l),
(1524,232,o),
(1868,426,o),
(2260,426,cs),
(2740,426,l),
(2740,676,l),
(2260,676,ls),
(1814,676,o),
(1484,474,o),
(1286,272,c),
(1286,-62,l)
);
}
);
width = 2896;
},
{
layerId = "5C20EF92-B63D-42A8-8878-93C2863E0093";
shapes = (
{
closed = 1;
nodes = (
(1180,926,l),
(1464,1796,l),
(1744,926,l),
(1970,926,l),
(2380,2172,l),
(2094,2172,l),
(1852,1362,l),
(1572,2172,l),
(1348,2172,l),
(1074,1362,l),
(834,2172,l),
(544,2172,l),
(956,926,l)
);
},
{
closed = 1;
nodes = (
(1264,426,l),
(1264,676,l),
(184,676,l),
(184,426,l)
);
},
{
closed = 1;
nodes = (
(1316,-62,l),
(1524,232,o),
(1868,426,o),
(2260,426,cs),
(2740,426,l),
(2740,676,l),
(2260,676,ls),
(1814,676,o),
(1484,474,o),
(1286,272,c),
(1286,-62,l)
);
}
);
width = 2896;
}
);
metricWidth = symbolBase;
unicode = 1024009;
}
{
color = 11;
glyphname = logoBnb;
layers = (
{
layerId = "B1F27B51-9973-4381-9301-4FE46FE1CA59";
shapes = (
{
closed = 1;
nodes = (
(1720,324,l),
(1720,878,l),
(2194,1156,l),
(2192,1482,l),
(2194,1482,l),
(1918,1642,l),
(1446,1364,l),
(976,1642,l),
(702,1482,l),
(702,1156,l),
(1172,878,l),
(1172,324,l),
(1446,164,l)
);
},
{
closed = 1;
nodes = (
(976,208,l),
(502,486,l),
(502,1042,l),
(228,1204,l),
(228,324,l),
(976,-114,l)
);
},
{
closed = 1;
nodes = (
(1720,-228,l),
(1720,94,l),
(1446,-68,l),
(1172,94,l),
(1172,-228,l),
(1446,-392,l)
);
},
{
closed = 1;
nodes = (
(976,764,l),
(702,926,l),
(702,600,l),
(976,440,l)
);
},
{
closed = 1;
nodes = (
(502,1596,l),
(776,1756,l),
(502,1920,l),
(228,1756,l),
(228,1434,l),
(502,1274,l)
);
},
{
closed = 1;
nodes = (
(2666,324,l),
(2666,1204,l),
(2390,1042,l),
(2390,486,l),
(1918,208,l),
(1918,-114,l)
);
},
{
closed = 1;
nodes = (
(2192,600,l),
(2192,926,l),
(1918,764,l),
(1918,440,l)
);
},
{
closed = 1;
nodes = (
(1720,1756,l),
(1446,1920,l),
(1172,1756,l),
(1446,1596,l)
);
},
{
closed = 1;
nodes = (
(1446,2152,l),
(1918,1870,l),
(2192,2034,l),
(1446,2474,l),
(702,2034,l),
(976,1870,l)
);
},
{
closed = 1;
nodes = (
(2666,1434,l),
(2666,1756,l),
(2390,1920,l),
(2116,1756,l),
(2390,1596,l),
(2390,1274,l)
);
}
);
width = 2896;
},
{
layerId = "CD0E3B44-F66A-4791-B84C-A1128DC61275";
shapes = (
{
closed = 1;
nodes = (
(1720,324,l),
(1720,878,l),
(2194,1156,l),
(2192,1482,l),
(2194,1482,l),
(1918,1642,l),
(1446,1364,l),
(976,1642,l),
(702,1482,l),
(702,1156,l),
(1172,878,l),
(1172,324,l),
(1446,164,l)
);
},
{
closed = 1;
nodes = (
(976,208,l),
(502,486,l),
(502,1042,l),
(228,1204,l),
(228,324,l),
(976,-114,l)
);
},
{
closed = 1;
nodes = (
(1720,-228,l),
(1720,94,l),
(1446,-68,l),
(1172,94,l),
(1172,-228,l),
(1446,-392,l)
);
},
{
closed = 1;
nodes = (
(976,764,l),
(702,926,l),
(702,600,l),
(976,440,l)
);
},
{
closed = 1;
nodes = (
(502,1596,l),
(776,1756,l),
(502,1920,l),
(228,1756,l),
(228,1434,l),
(502,1274,l)
);
},
{
closed = 1;
nodes = (
(2666,324,l),
(2666,1204,l),
(2390,1042,l),
(2390,486,l),
(1918,208,l),
(1918,-114,l)
);
},
{
closed = 1;
nodes = (
(2192,600,l),
(2192,926,l),
(1918,764,l),
(1918,440,l)
);
},
{
closed = 1;
nodes = (
(1720,1756,l),
(1446,1920,l),
(1172,1756,l),
(1446,1596,l)
);
},
{
closed = 1;
nodes = (
(1446,2152,l),
(1918,1870,l),
(2192,2034,l),
(1446,2474,l),
(702,2034,l),
(976,1870,l)
);
},
{
closed = 1;
nodes = (
(2666,1434,l),
(2666,1756,l),
(2390,1920,l),
(2116,1756,l),
(2390,1596,l),
(2390,1274,l)
);
}
);
width = 2896;
},
{
layerId = "5C20EF92-B63D-42A8-8878-93C2863E0093";
shapes = (
{
closed = 1;
nodes = (
(1720,324,l),
(1720,878,l),
(2194,1156,l),
(2192,1482,l),
(2194,1482,l),
(1918,1642,l),
(1446,1364,l),
(976,1642,l),
(702,1482,l),
(702,1156,l),
(1172,878,l),
(1172,324,l),
(1446,164,l)
);
},
{
closed = 1;
nodes = (
(976,208,l),
(502,486,l),
(502,1042,l),
(228,1204,l),
(228,324,l),
(976,-114,l)
);
},
{
closed = 1;
nodes = (
(1720,-228,l),
(1720,94,l),
(1446,-68,l),
(1172,94,l),
(1172,-228,l),
(1446,-392,l)
);
},
{
closed = 1;
nodes = (
(976,764,l),
(702,926,l),
(702,600,l),
(976,440,l)
);
},
{
closed = 1;
nodes = (
(502,1596,l),
(776,1756,l),
(502,1920,l),
(228,1756,l),
(228,1434,l),
(502,1274,l)
);
},
{
closed = 1;
nodes = (
(2666,324,l),
(2666,1204,l),
(2390,1042,l),
(2390,486,l),
(1918,208,l),
(1918,-114,l)
);
},
{
closed = 1;
nodes = (
(2192,600,l),
(2192,926,l),
(1918,764,l),
(1918,440,l)
);
},
{
closed = 1;
nodes = (
(1720,1756,l),
(1446,1920,l),
(1172,1756,l),
(1446,1596,l)
);
},
{
closed = 1;
nodes = (
(1446,2152,l),
(1918,1870,l),
(2192,2034,l),
(1446,2474,l),
(702,2034,l),
(976,1870,l)
);
},
{
closed = 1;
nodes = (
(2666,1434,l),
(2666,1756,l),
(2390,1920,l),
(2116,1756,l),
(2390,1596,l),
(2390,1274,l)
);
}
);
width = 2896;
}
);
metricWidth = symbolBase;
unicode = 1024010;
}
{
color = 11;
glyphname = logoBnbFill;
layers = (
{
layerId = "CD0E3B44-F66A-4791-B84C-A1128DC61275";
shapes = (
{
closed = 1;
nodes = (
(2247,-422,o),
(2896,226,o),
(2896,1026,cs),
(2896,1825,o),
(2247,2474,o),
(1448,2474,cs),
(649,2474,o),
(0,1825,o),
(0,1026,cs),
(0,226,o),
(649,-422,o),
(1448,-422,cs)
);
},
{
closed = 1;
nodes = (
(606,531,l),
(606,1137,l),
(796,1026,l),
(796,643,l),
(1122,453,l),
(1122,226,l)
);
},
{
closed = 1;
nodes = (
(1258,148,l),
(1258,371,l),
(1448,259,l),
(1638,371,l),
(1638,148,l),
(1448,36,l)
);
},
{
closed = 1;
nodes = (
(1258,531,l),
(1258,914,l),
(932,1104,l),
(932,1330,l),
(1122,1442,l),
(1448,1249,l),
(1774,1442,l),
(1964,1330,l),
(1964,1104,l),
(1638,914,l),
(1638,531,l),
(1448,419,l)
);
},
{
closed = 1;
nodes = (
(932,721,l),
(932,947,l),
(1122,836,l),
(1122,612,l)
);
},
{
closed = 1;
nodes = (
(606,1297,l),
(606,1520,l),
(796,1632,l),
(986,1520,l),
(796,1409,l),
(796,1186,l)
);
},
{
closed = 1;
nodes = (
(1774,836,l),
(1964,947,l),
(1964,721,l),
(1774,612,l)
);
},
{
closed = 1;
nodes = (
(1774,453,l),
(2100,643,l),
(2100,1026,l),
(2290,1137,l),
(2290,531,l),
(1774,226,l)
);
},
{
closed = 1;
nodes = (
(1258,1520,l),
(1448,1632,l),
(1638,1520,l),
(1448,1409,l)
);
},
{
closed = 1;
nodes = (
(932,1713,l),
(1448,2015,l),
(1964,1713,l),
(1774,1599,l),
(1448,1792,l),
(1122,1599,l)
);
},
{
closed = 1;
nodes = (
(2100,1409,l),
(1910,1520,l),
(2100,1632,l),
(2290,1520,l),
(2290,1297,l),
(2100,1186,l)
);
}
);
width = 2896;
},
{
layerId = "B1F27B51-9973-4381-9301-4FE46FE1CA59";
shapes = (
{
closed = 1;
nodes = (
(2248,-422,o),
(2896,226,o),
(2896,1026,cs),
(2896,1826,o),
(2248,2474,o),
(1448,2474,cs),
(650,2474,o),
(0,1826,o),
(0,1026,cs),
(0,226,o),
(650,-422,o),
(1448,-422,cs)
);
},
{
closed = 1;
nodes = (
(606,532,l),
(606,1138,l),
(796,1026,l),
(796,644,l),
(1122,454,l),
(1122,226,l)
);
},
{
closed = 1;
nodes = (
(1258,148,l),
(1258,372,l),
(1448,260,l),
(1638,372,l),
(1638,148,l),
(1448,36,l)
);
},
{
closed = 1;
nodes = (
(1258,532,l),
(1258,914,l),
(932,1104,l),
(932,1330,l),
(1122,1442,l),
(1448,1250,l),
(1774,1442,l),
(1964,1330,l),
(1964,1104,l),
(1638,914,l),
(1638,532,l),
(1448,420,l)
);
},
{
closed = 1;
nodes = (
(932,722,l),
(932,948,l),
(1122,836,l),
(1122,612,l)
);
},
{
closed = 1;
nodes = (
(606,1298,l),
(606,1520,l),
(796,1632,l),
(986,1520,l),
(796,1410,l),
(796,1186,l)
);
},
{
closed = 1;
nodes = (
(1774,836,l),
(1964,948,l),
(1964,722,l),
(1774,612,l)
);
},
{
closed = 1;
nodes = (
(1774,454,l),
(2100,644,l),
(2100,1026,l),
(2290,1138,l),
(2290,532,l),
(1774,226,l)
);
},
{
closed = 1;
nodes = (
(1258,1520,l),
(1448,1632,l),
(1638,1520,l),
(1448,1410,l)
);
},
{
closed = 1;
nodes = (
(932,1714,l),
(1448,2016,l),
(1964,1714,l),
(1774,1600,l),
(1448,1792,l),
(1122,1600,l)
);
},
{
closed = 1;
nodes = (
(2100,1410,l),
(1910,1520,l),
(2100,1632,l),
(2290,1520,l),
(2290,1298,l),
(2100,1186,l)
);
}
);
width = 2896;
},
{
layerId = "5C20EF92-B63D-42A8-8878-93C2863E0093";
shapes = (
{
closed = 1;
nodes = (
(2248,-422,o),
(2896,226,o),
(2896,1026,cs),
(2896,1826,o),
(2248,2474,o),
(1448,2474,cs),
(650,2474,o),
(0,1826,o),
(0,1026,cs),
(0,226,o),
(650,-422,o),
(1448,-422,cs)
);
},
{
closed = 1;
nodes = (
(606,532,l),
(606,1138,l),
(796,1026,l),
(796,644,l),
(1122,454,l),
(1122,226,l)
);
},
{
closed = 1;
nodes = (
(1258,148,l),
(1258,372,l),
(1448,260,l),
(1638,372,l),
(1638,148,l),
(1448,36,l)
);
},
{
closed = 1;
nodes = (
(1258,532,l),
(1258,914,l),
(932,1104,l),
(932,1330,l),
(1122,1442,l),
(1448,1250,l),
(1774,1442,l),
(1964,1330,l),
(1964,1104,l),
(1638,914,l),
(1638,532,l),
(1448,420,l)
);
},
{
closed = 1;
nodes = (
(932,722,l),
(932,948,l),
(1122,836,l),
(1122,612,l)
);
},
{
closed = 1;
nodes = (
(606,1298,l),
(606,1520,l),
(796,1632,l),
(986,1520,l),
(796,1410,l),
(796,1186,l)
);
},
{
closed = 1;
nodes = (
(1774,836,l),
(1964,948,l),
(1964,722,l),
(1774,612,l)
);
},
{
closed = 1;
nodes = (
(1774,454,l),
(2100,644,l),
(2100,1026,l),
(2290,1138,l),
(2290,532,l),
(1774,226,l)
);
},
{
closed = 1;
nodes = (
(1258,1520,l),
(1448,1632,l),
(1638,1520,l),
(1448,1410,l)
);
},
{
closed = 1;
nodes = (
(932,1714,l),
(1448,2016,l),
(1964,1714,l),
(1774,1600,l),
(1448,1792,l),
(1122,1600,l)
);
},
{
closed = 1;
nodes = (
(2100,1410,l),
(1910,1520,l),
(2100,1632,l),
(2290,1520,l),
(2290,1298,l),
(2100,1186,l)
);
}
);
width = 2896;
}
);
metricWidth = symbolBase;
unicode = 1024011;
}
{
color = 11;
glyphname = logoBtc;
layers = (
{
layerId = "B1F27B51-9973-4381-9301-4FE46FE1CA59";
shapes = (
{
closed = 1;
nodes = (
(497,23,l),
(631,-2,o),
(732,8,o),
(774,127,cs),
(808,223,o),
(772,278,o),
(702,314,c),
(753,326,o),
(792,359,o),
(802,427,cs),
(816,521,o),
(744,571,o),
(645,604,c),
(677,731,l),
(599,750,l),
(567,627,l),
(505,641,l),
(536,765,l),
(458,784,l),
(425,658,l),
(267,696,l),
(246,614,l),
(303,600,ls),
(335,592,o),
(344,572,o),
(340,555,cs),
(252,209,ls),
(249,199,o),
(238,186,o),
(216,191,cs),
(159,205,l),
(120,116,l),
(278,77,l),
(246,-51,l),
(324,-70,l),
(356,57,l),
(419,41,l),
(387,-85,l),
(465,-104,l)
);
},
{
closed = 1;
nodes = (
(425,319,l),
(478,306,o),
(648,280,o),
(623,180,cs),
(599,85,o),
(435,136,o),
(382,149,c)
);
},
{
closed = 1;
nodes = (
(483,550,l),
(528,539,o),
(670,519,o),
(647,428,cs),
(625,341,o),
(489,386,o),
(444,397,c)
);
}
);
width = 960;
},
{
layerId = "C698F293-3EC0-4A5A-A3A0-0FDB1F5CF265";
shapes = (
{
closed = 1;
nodes = (
(497,23,l),
(631,-2,o),
(732,8,o),
(774,127,cs),
(808,223,o),
(772,278,o),
(702,314,c),
(753,326,o),
(792,359,o),
(802,427,cs),
(816,521,o),
(744,571,o),
(645,604,c),
(677,731,l),
(599,750,l),
(567,627,l),
(505,641,l),
(536,765,l),
(458,784,l),
(425,658,l),
(267,696,l),
(246,614,l),
(303,600,ls),
(335,592,o),
(344,572,o),
(340,555,cs),
(252,209,ls),
(249,199,o),
(238,186,o),
(216,191,cs),
(159,205,l),
(120,116,l),
(278,77,l),
(246,-51,l),
(324,-70,l),
(356,57,l),
(419,41,l),
(387,-85,l),
(465,-104,l)
);
},
{
closed = 1;
nodes = (
(425,319,l),
(478,306,o),
(648,280,o),
(623,180,cs),
(599,85,o),
(435,136,o),
(382,149,c)
);
},
{
closed = 1;
nodes = (
(483,550,l),
(528,539,o),
(670,519,o),
(647,428,cs),
(625,341,o),
(489,386,o),
(444,397,c)
);
}
);
width = 960;
},
{
layerId = "5C20EF92-B63D-42A8-8878-93C2863E0093";
shapes = (
{
closed = 1;
nodes = (
(497,23,l),
(631,-2,o),
(732,8,o),
(774,127,cs),
(808,223,o),
(772,278,o),
(702,314,c),
(753,326,o),
(792,359,o),
(802,427,cs),
(816,521,o),
(744,571,o),
(645,604,c),
(677,731,l),
(599,750,l),
(567,627,l),
(505,641,l),
(536,765,l),
(458,784,l),
(425,658,l),
(267,696,l),
(246,614,l),
(303,600,ls),
(335,592,o),
(344,572,o),
(340,555,cs),
(252,209,ls),
(249,199,o),
(238,186,o),
(216,191,cs),
(159,205,l),
(120,116,l),
(278,77,l),
(246,-51,l),
(324,-70,l),
(356,57,l),
(419,41,l),
(387,-85,l),
(465,-104,l)
);
},
{
closed = 1;
nodes = (
(425,319,l),
(478,306,o),
(648,280,o),
(623,180,cs),
(599,85,o),
(435,136,o),
(382,149,c)
);
},
{
closed = 1;
nodes = (
(483,550,l),
(528,539,o),
(670,519,o),
(647,428,cs),
(625,341,o),
(489,386,o),
(444,397,c)
);
}
);
width = 960;
}
);
metricWidth = symbolBase;
unicode = 1024012;
}
{
color = 11;
glyphname = logoBtcFill;
layers = (
{
layerId = "B1F27B51-9973-4381-9301-4FE46FE1CA59";
shapes = (
{
closed = 1;
nodes = (
(621,-190,o),
(881,-33,o),
(946,224,cs),
(1010,481,o),
(853,742,o),
(596,806,cs),
(339,870,o),
(79,713,o),
(14,456,cs),
(-50,199,o),
(107,-62,o),
(364,-126,cs)
);
},
{
closed = 1;
nodes = (
(462,203,o),
(556,180,o),
(571,240,cs),
(587,301,o),
(496,321,o),
(451,331,cs),
(438,334,l),
(409,219,l),
(419,216,ls)
);
},
{
closed = 1;
nodes = (
(413,58,l),
(434,144,l),
(392,155,l),
(370,69,l),
(318,82,l),
(340,169,l),
(299,180,o),
(275,186,o),
(234,196,c),
(260,256,l),
(298,247,ls),
(313,243,o),
(320,253,o),
(322,259,cs),
(381,496,ls),
(384,507,o),
(378,522,o),
(357,527,cs),
(318,536,l),
(332,593,l),
(439,566,l),
(460,653,l),
(513,640,l),
(492,555,l),
(534,545,l),
(555,629,l),
(608,616,l),
(586,530,l),
(653,507,o),
(701,472,o),
(692,408,cs),
(685,362,o),
(659,339,o),
(624,331,c),
(672,306,o),
(696,269,o),
(673,203,cs),
(644,122,o),
(577,115,o),
(487,132,c),
(465,45,l)
);
},
{
closed = 1;
nodes = (
(496,376,o),
(574,355,o),
(588,409,cs),
(601,465,o),
(526,482,o),
(487,491,cs),
(478,493,l),
(451,388,l),
(462,385,ls)
);
}
);
width = 960;
},
{
layerId = "C698F293-3EC0-4A5A-A3A0-0FDB1F5CF265";
shapes = (
{
closed = 1;
nodes = (
(621,-190,o),
(881,-33,o),
(946,224,cs),
(1010,481,o),
(853,742,o),
(596,806,cs),
(339,870,o),
(79,713,o),
(14,456,cs),
(-50,199,o),
(107,-62,o),
(364,-126,cs)
);
},
{
closed = 1;
nodes = (
(462,203,o),
(556,180,o),
(571,240,cs),
(587,301,o),
(496,321,o),
(451,331,cs),
(438,334,l),
(409,219,l),
(419,216,ls)
);
},
{
closed = 1;
nodes = (
(413,58,l),
(434,144,l),
(392,155,l),
(370,69,l),
(318,82,l),
(340,169,l),
(299,180,o),
(275,186,o),
(234,196,c),
(260,256,l),
(298,247,ls),
(313,243,o),
(320,253,o),
(322,259,cs),
(381,496,ls),
(384,507,o),
(378,522,o),
(357,527,cs),
(318,536,l),
(332,593,l),
(439,566,l),
(460,653,l),
(513,640,l),
(492,555,l),
(534,545,l),
(555,629,l),
(608,616,l),
(586,530,l),
(653,507,o),
(701,472,o),
(692,408,cs),
(685,362,o),
(659,339,o),
(624,331,c),
(672,306,o),
(696,269,o),
(673,203,cs),
(644,122,o),
(577,115,o),
(487,132,c),
(465,45,l)
);
},
{
closed = 1;
nodes = (
(496,376,o),
(574,355,o),
(588,409,cs),
(601,465,o),
(526,482,o),
(487,491,cs),
(478,493,l),
(451,388,l),
(462,385,ls)
);
}
);
width = 960;
},
{
layerId = "5C20EF92-B63D-42A8-8878-93C2863E0093";
shapes = (
{
closed = 1;
nodes = (
(621,-190,o),
(881,-33,o),
(946,224,cs),
(1010,481,o),
(853,742,o),
(596,806,cs),
(339,870,o),
(79,713,o),
(14,456,cs),
(-50,199,o),
(107,-62,o),
(364,-126,cs)
);
},
{
closed = 1;
nodes = (
(462,203,o),
(556,180,o),
(571,240,cs),
(587,301,o),
(496,321,o),
(451,331,cs),
(438,334,l),
(409,219,l),
(419,216,ls)
);
},
{
closed = 1;
nodes = (
(413,58,l),
(434,144,l),
(392,155,l),
(370,69,l),
(318,82,l),
(340,169,l),
(299,180,o),
(275,186,o),
(234,196,c),
(260,256,l),
(298,247,ls),
(313,243,o),
(320,253,o),
(322,259,cs),
(381,496,ls),
(384,507,o),
(378,522,o),
(357,527,cs),
(318,536,l),
(332,593,l),
(439,566,l),
(460,653,l),
(513,640,l),
(492,555,l),
(534,545,l),
(555,629,l),
(608,616,l),
(586,530,l),
(653,507,o),
(701,472,o),
(692,408,cs),
(685,362,o),
(659,339,o),
(624,331,c),
(672,306,o),
(696,269,o),
(673,203,cs),
(644,122,o),
(577,115,o),
(487,132,c),
(465,45,l)
);
},
{
closed = 1;
nodes = (
(496,376,o),
(574,355,o),
(588,409,cs),
(601,465,o),
(526,482,o),
(487,491,cs),
(478,493,l),
(451,388,l),
(462,385,ls)
);
}
);
width = 960;
}
);
metricWidth = symbolBase;
unicode = 1024013;
}
{
color = 11;
glyphname = logoEth;
layers = (
{
layerId = "B1F27B51-9973-4381-9301-4FE46FE1CA59";
shapes = (
{
closed = 1;
nodes = (
(768,331,l),
(480,809,l),
(192,331,l),
(480,161,l)
);
},
{
closed = 1;
nodes = (
(768,277,l),
(480,107,l),
(192,277,l),
(480,-129,l)
);
}
);
width = 960;
},
{
layerId = "C698F293-3EC0-4A5A-A3A0-0FDB1F5CF265";
shapes = (
{
closed = 1;
nodes = (
(768,331,l),
(480,809,l),
(192,331,l),
(480,161,l)
);
},
{
closed = 1;
nodes = (
(768,277,l),
(480,107,l),
(192,277,l),
(480,-129,l)
);
}
);
width = 960;
},
{
layerId = "5C20EF92-B63D-42A8-8878-93C2863E0093";
shapes = (
{
closed = 1;
nodes = (
(768,331,l),
(480,809,l),
(192,331,l),
(480,161,l)
);
},
{
closed = 1;
nodes = (
(768,277,l),
(480,107,l),
(192,277,l),
(480,-129,l)
);
}
);
width = 960;
}
);
metricWidth = symbolBase;
unicode = 1024014;
}
{
color = 11;
glyphname = logoEthFill;
layers = (
{
layerId = "B1F27B51-9973-4381-9301-4FE46FE1CA59";
shapes = (
{
closed = 1;
nodes = (
(745,-140,o),
(960,75,o),
(960,340,cs),
(960,605,o),
(745,820,o),
(480,820,cs),
(215,820,o),
(0,605,o),
(0,340,cs),
(0,75,o),
(215,-140,o),
(480,-140,cs)
);
},
{
closed = 1;
nodes = (
(292,299,l),
(480,188,l),
(668,299,l),
(480,35,l)
);
},
{
closed = 1;
nodes = (
(292,334,l),
(480,645,l),
(667,334,l),
(480,223,l)
);
}
);
width = 960;
},
{
layerId = "C698F293-3EC0-4A5A-A3A0-0FDB1F5CF265";
shapes = (
{
closed = 1;
nodes = (
(745,-140,o),
(960,75,o),
(960,340,cs),
(960,605,o),
(745,820,o),
(480,820,cs),
(215,820,o),
(0,605,o),
(0,340,cs),
(0,75,o),
(215,-140,o),
(480,-140,cs)
);
},
{
closed = 1;
nodes = (
(292,299,l),
(480,188,l),
(668,299,l),
(480,35,l)
);
},
{
closed = 1;
nodes = (
(292,334,l),
(480,645,l),
(667,334,l),
(480,223,l)
);
}
);
width = 960;
},
{
layerId = "5C20EF92-B63D-42A8-8878-93C2863E0093";
shapes = (
{
closed = 1;
nodes = (
(745,-140,o),
(960,75,o),
(960,340,cs),
(960,605,o),
(745,820,o),
(480,820,cs),
(215,820,o),
(0,605,o),
(0,340,cs),
(0,75,o),
(215,-140,o),
(480,-140,cs)
);
},
{
closed = 1;
nodes = (
(292,299,l),
(480,188,l),
(668,299,l),
(480,35,l)
);
},
{
closed = 1;
nodes = (
(292,334,l),
(480,645,l),
(667,334,l),
(480,223,l)
);
}
);
width = 960;
}
);
metricWidth = symbolBase;
unicode = 1024015;
}
{
color = 11;
glyphname = logoRft;
layers = (
{
layerId = "CD0E3B44-F66A-4791-B84C-A1128DC61275";
shapes = (
{
closed = 1;
nodes = (
(1446,-450,o),
(1738,-422,o),
(2004,-310,cs),
(2266,-202,o),
(2492,-18,o),
(2652,220,cs),
(2812,460,o),
(2896,740,o),
(2896,1026,cs),
(2896,1410,o),
(2742,1778,o),
(2472,2048,cs),
(2200,2320,o),
(1832,2474,o),
(1448,2474,cs),
(1162,2474,o),
(882,2390,o),
(644,2230,cs),
(404,2070,o),
(220,1844,o),
(112,1582,cs),
(0,1316,o),
(-28,1026,o),
(28,742,cs),
(84,462,o),
(220,206,o),
(426,4,cs),
(628,-198,o),
(884,-338,o),
(1164,-394,cs)
);
},
{
closed = 1;
nodes = (
(510,426,l),
(142,1222,l),
(134,1180,o),
(130,1138,o),
(128,1092,c),
(438,426,l)
);
},
{
closed = 1;
nodes = (
(894,426,l),
(208,1488,l),
(182,1406,l),
(816,426,l)
);
},
{
closed = 1;
nodes = (
(570,2012,l),
(552,1998,o),
(538,1982,o),
(520,1964,c),
(552,1552,l),
(612,1508,l)
);
},
{
closed = 1;
nodes = (
(924,2238,l),
(866,2212,l),
(818,1364,l),
(872,1328,l)
);
},
{
closed = 1;
nodes = (
(262,362,o),
(244,392,o),
(230,426,cs),
(136,612,o),
(88,822,o),
(88,1032,cs),
(92,1244,o),
(140,1452,o),
(236,1638,c),
(1258,438,l),
(1376,824,l),
(272,1704,l),
(360,1862,o),
(480,1998,o),
(622,2106,cs),
(764,2214,o),
(926,2296,o),
(1098,2342,cs),
(1274,2386,o),
(1454,2398,o),
(1632,2374,cs),
(1810,2350,o),
(1980,2290,o),
(2136,2200,cs),
(2290,2110,o),
(2426,1988,o),
(2534,1846,cs),
(2644,1704,o),
(2722,1540,o),
(2764,1368,cs),
(2810,1192,o),
(2822,1012,o),
(2794,836,cs),
(2770,658,o),
(2710,486,o),
(2616,332,c),
(282,332,l)
);
},
{
closed = 1;
nodes = (
(1322,2342,l),
(1304,2342,o),
(1282,2338,o),
(1264,2336,c),
(1042,1210,l),
(1092,1174,l)
);
},
{
closed = 1;
nodes = (
(1666,426,l),
(2320,1132,l),
(2576,1128,l),
(2374,1772,l),
(1436,1132,l),
(1750,1132,l),
(1280,426,l)
);
},
{
closed = 1;
nodes = (
(2764,1164,l),
(2754,1232,l),
(2618,1120,l),
(2628,1092,l),
(2582,1092,l),
(1792,460,l),
(1810,434,l),
(1844,426,l)
);
},
{
closed = 1;
nodes = (
(1294,1066,l),
(1732,2318,l),
(1714,2324,o),
(1692,2326,o),
(1674,2330,c),
(1238,1072,l),
(1270,1050,l)
);
},
{
closed = 1;
nodes = (
(1680,1334,l),
(2110,2170,l),
(2094,2178,o),
(2078,2188,o),
(2060,2196,c),
(1582,1264,l)
);
},
{
closed = 1;
nodes = (
(2656,1570,l),
(2628,1624,l),
(2502,1490,l),
(2522,1428,l)
);
},
{
closed = 1;
nodes = (
(2344,1796,l),
(2428,1914,l),
(2414,1928,o),
(2402,1940,o),
(2390,1956,c),
(2208,1702,l)
);
}
);
width = 2896;
},
{
layerId = "B1F27B51-9973-4381-9301-4FE46FE1CA59";
shapes = (
{
closed = 1;
nodes = (
(1446,-450,o),
(1738,-422,o),
(2004,-310,cs),
(2266,-202,o),
(2492,-18,o),
(2652,220,cs),
(2812,460,o),
(2896,740,o),
(2896,1026,cs),
(2896,1410,o),
(2742,1778,o),
(2472,2048,cs),
(2200,2320,o),
(1832,2474,o),
(1448,2474,cs),
(1162,2474,o),
(882,2390,o),
(644,2230,cs),
(404,2070,o),
(220,1844,o),
(112,1582,cs),
(0,1316,o),
(-28,1026,o),
(28,742,cs),
(84,462,o),
(220,206,o),
(426,4,cs),
(628,-198,o),
(884,-338,o),
(1164,-394,cs)
);
},
{
closed = 1;
nodes = (
(510,426,l),
(142,1222,l),
(134,1180,o),
(130,1138,o),
(128,1092,c),
(438,426,l)
);
},
{
closed = 1;
nodes = (
(894,426,l),
(208,1488,l),
(182,1406,l),
(816,426,l)
);
},
{
closed = 1;
nodes = (
(570,2012,l),
(552,1998,o),
(538,1982,o),
(520,1964,c),
(552,1552,l),
(612,1508,l)
);
},
{
closed = 1;
nodes = (
(924,2238,l),
(866,2212,l),
(818,1364,l),
(872,1328,l)
);
},
{
closed = 1;
nodes = (
(262,362,o),
(244,392,o),
(230,426,cs),
(136,612,o),
(88,822,o),
(88,1032,cs),
(92,1244,o),
(140,1452,o),
(236,1638,c),
(1258,438,l),
(1376,824,l),
(272,1704,l),
(360,1862,o),
(480,1998,o),
(622,2106,cs),
(764,2214,o),
(926,2296,o),
(1098,2342,cs),
(1274,2386,o),
(1454,2398,o),
(1632,2374,cs),
(1810,2350,o),
(1980,2290,o),
(2136,2200,cs),
(2290,2110,o),
(2426,1988,o),
(2534,1846,cs),
(2644,1704,o),
(2722,1540,o),
(2764,1368,cs),
(2810,1192,o),
(2822,1012,o),
(2794,836,cs),
(2770,658,o),
(2710,486,o),
(2616,332,c),
(282,332,l)
);
},
{
closed = 1;
nodes = (
(1322,2342,l),
(1304,2342,o),
(1282,2338,o),
(1264,2336,c),
(1042,1210,l),
(1092,1174,l)
);
},
{
closed = 1;
nodes = (
(1666,426,l),
(2320,1132,l),
(2576,1128,l),
(2374,1772,l),
(1436,1132,l),
(1750,1132,l),
(1280,426,l)
);
},
{
closed = 1;
nodes = (
(2764,1164,l),
(2754,1232,l),
(2618,1120,l),
(2628,1092,l),
(2582,1092,l),
(1792,460,l),
(1810,434,l),
(1844,426,l)
);
},
{
closed = 1;
nodes = (
(1294,1066,l),
(1732,2318,l),
(1714,2324,o),
(1692,2326,o),
(1674,2330,c),
(1238,1072,l),
(1270,1050,l)
);
},
{
closed = 1;
nodes = (
(1680,1334,l),
(2110,2170,l),
(2094,2178,o),
(2078,2188,o),
(2060,2196,c),
(1582,1264,l)
);
},
{
closed = 1;
nodes = (
(2656,1570,l),
(2628,1624,l),
(2502,1490,l),
(2522,1428,l)
);
},
{
closed = 1;
nodes = (
(2344,1796,l),
(2428,1914,l),
(2414,1928,o),
(2402,1940,o),
(2390,1956,c),
(2208,1702,l)
);
}
);
width = 2896;
},
{
layerId = "5C20EF92-B63D-42A8-8878-93C2863E0093";
shapes = (
{
closed = 1;
nodes = (
(1446,-450,o),
(1738,-422,o),
(2004,-310,cs),
(2266,-202,o),
(2492,-18,o),
(2652,220,cs),
(2812,460,o),
(2896,740,o),
(2896,1026,cs),
(2896,1410,o),
(2742,1778,o),
(2472,2048,cs),
(2200,2320,o),
(1832,2474,o),
(1448,2474,cs),
(1162,2474,o),
(882,2390,o),
(644,2230,cs),
(404,2070,o),
(220,1844,o),
(112,1582,cs),
(0,1316,o),
(-28,1026,o),
(28,742,cs),
(84,462,o),
(220,206,o),
(426,4,cs),
(628,-198,o),
(884,-338,o),
(1164,-394,cs)
);
},
{
closed = 1;
nodes = (
(510,426,l),
(142,1222,l),
(134,1180,o),
(130,1138,o),
(128,1092,c),
(438,426,l)
);
},
{
closed = 1;
nodes = (
(894,426,l),
(208,1488,l),
(182,1406,l),
(816,426,l)
);
},
{
closed = 1;
nodes = (
(570,2012,l),
(552,1998,o),
(538,1982,o),
(520,1964,c),
(552,1552,l),
(612,1508,l)
);
},
{
closed = 1;
nodes = (
(924,2238,l),
(866,2212,l),
(818,1364,l),
(872,1328,l)
);
},
{
closed = 1;
nodes = (
(262,362,o),
(244,392,o),
(230,426,cs),
(136,612,o),
(88,822,o),
(88,1032,cs),
(92,1244,o),
(140,1452,o),
(236,1638,c),
(1258,438,l),
(1376,824,l),
(272,1704,l),
(360,1862,o),
(480,1998,o),
(622,2106,cs),
(764,2214,o),
(926,2296,o),
(1098,2342,cs),
(1274,2386,o),
(1454,2398,o),
(1632,2374,cs),
(1810,2350,o),
(1980,2290,o),
(2136,2200,cs),
(2290,2110,o),
(2426,1988,o),
(2534,1846,cs),
(2644,1704,o),
(2722,1540,o),
(2764,1368,cs),
(2810,1192,o),
(2822,1012,o),
(2794,836,cs),
(2770,658,o),
(2710,486,o),
(2616,332,c),
(282,332,l)
);
},
{
closed = 1;
nodes = (
(1322,2342,l),
(1304,2342,o),
(1282,2338,o),
(1264,2336,c),
(1042,1210,l),
(1092,1174,l)
);
},
{
closed = 1;
nodes = (
(1666,426,l),
(2320,1132,l),
(2576,1128,l),
(2374,1772,l),
(1436,1132,l),
(1750,1132,l),
(1280,426,l)
);
},
{
closed = 1;
nodes = (
(2764,1164,l),
(2754,1232,l),
(2618,1120,l),
(2628,1092,l),
(2582,1092,l),
(1792,460,l),
(1810,434,l),
(1844,426,l)
);
},
{
closed = 1;
nodes = (
(1294,1066,l),
(1732,2318,l),
(1714,2324,o),
(1692,2326,o),
(1674,2330,c),
(1238,1072,l),
(1270,1050,l)
);
},
{
closed = 1;
nodes = (
(1680,1334,l),
(2110,2170,l),
(2094,2178,o),
(2078,2188,o),
(2060,2196,c),
(1582,1264,l)
);
},
{
closed = 1;
nodes = (
(2656,1570,l),
(2628,1624,l),
(2502,1490,l),
(2522,1428,l)
);
},
{
closed = 1;
nodes = (
(2344,1796,l),
(2428,1914,l),
(2414,1928,o),
(2402,1940,o),
(2390,1956,c),
(2208,1702,l)
);
}
);
width = 2896;
}
);
metricWidth = symbolBase;
unicode = 1024018;
}
{
color = 11;
glyphname = logoUsdt;
layers = (
{
layerId = "B1F27B51-9973-4381-9301-4FE46FE1CA59";
shapes = (
{
closed = 1;
nodes = (
(1454,-241,o),
(1460,-238,o),
(1463,-235,cs),
(2962,1158,ls),
(2965,1161,o),
(2968,1167,o),
(2968,1170,cs),
(2968,1177,o),
(2968,1180,o),
(2965,1186,cs),
(2410,2317,l),
(2410,2320,o),
(2407,2323,o),
(2404,2326,cs),
(2398,2329,o),
(2395,2329,o),
(2392,2329,cs),
(504,2329,ls),
(501,2329,o),
(498,2329,o),
(492,2326,cs),
(489,2323,o),
(486,2320,o),
(486,2317,c),
(-69,1186,ls),
(-72,1180,o),
(-72,1177,o),
(-72,1170,cs),
(-72,1167,o),
(-69,1161,o),
(-66,1158,cs),
(1433,-235,ls),
(1436,-238,o),
(1442,-241,o),
(1448,-241,cs)
);
},
{
closed = 1;
nodes = (
(1258,1008,l),
(827,1026,o),
(501,1110,o),
(501,1210,cs),
(501,1309,o),
(827,1391,o),
(1258,1409,c),
(1258,1635,l),
(727,1635,l),
(727,1979,l),
(2172,1979,l),
(2172,1635,l),
(1641,1635,l),
(1641,1409,l),
(2069,1391,o),
(2395,1309,o),
(2395,1210,cs),
(2395,1110,o),
(2069,1026,o),
(1641,1008,c),
(1641,287,l),
(1258,287,l)
);
},
{
closed = 1;
nodes = (
(1575,1065,o),
(1629,1068,o),
(1641,1068,cs),
(2021,1086,o),
(2305,1149,o),
(2305,1228,cs),
(2305,1303,o),
(2021,1367,o),
(1641,1385,c),
(1641,1131,l),
(1629,1131,o),
(1572,1128,o),
(1451,1128,cs),
(1354,1128,o),
(1282,1131,o),
(1258,1131,c),
(1258,1385,l),
(875,1367,o),
(591,1303,o),
(591,1228,cs),
(591,1149,o),
(875,1086,o),
(1258,1068,cs),
(1282,1068,o),
(1351,1065,o),
(1451,1065,cs)
);
}
);
width = 2896;
},
{
layerId = "CD0E3B44-F66A-4791-B84C-A1128DC61275";
shapes = (
{
closed = 1;
nodes = (
(1454,-241,o),
(1460,-238,o),
(1463,-235,cs),
(2962,1158,ls),
(2965,1161,o),
(2968,1167,o),
(2968,1170,cs),
(2968,1177,o),
(2968,1180,o),
(2965,1186,cs),
(2410,2317,l),
(2410,2320,o),
(2407,2323,o),
(2404,2326,cs),
(2398,2329,o),
(2395,2329,o),
(2392,2329,cs),
(504,2329,ls),
(501,2329,o),
(498,2329,o),
(492,2326,cs),
(489,2323,o),
(486,2320,o),
(486,2317,c),
(-69,1186,ls),
(-72,1180,o),
(-72,1177,o),
(-72,1170,cs),
(-72,1167,o),
(-69,1161,o),
(-66,1158,cs),
(1433,-235,ls),
(1436,-238,o),
(1442,-241,o),
(1448,-241,cs)
);
},
{
closed = 1;
nodes = (
(1258,1008,l),
(827,1026,o),
(501,1110,o),
(501,1210,cs),
(501,1309,o),
(827,1391,o),
(1258,1409,c),
(1258,1635,l),
(727,1635,l),
(727,1979,l),
(2172,1979,l),
(2172,1635,l),
(1641,1635,l),
(1641,1409,l),
(2069,1391,o),
(2395,1309,o),
(2395,1210,cs),
(2395,1110,o),
(2069,1026,o),
(1641,1008,c),
(1641,287,l),
(1258,287,l)
);
},
{
closed = 1;
nodes = (
(1575,1065,o),
(1629,1068,o),
(1641,1068,cs),
(2021,1086,o),
(2305,1149,o),
(2305,1228,cs),
(2305,1303,o),
(2021,1367,o),
(1641,1385,c),
(1641,1131,l),
(1629,1131,o),
(1572,1128,o),
(1451,1128,cs),
(1354,1128,o),
(1282,1131,o),
(1258,1131,c),
(1258,1385,l),
(875,1367,o),
(591,1303,o),
(591,1228,cs),
(591,1149,o),
(875,1086,o),
(1258,1068,cs),
(1282,1068,o),
(1351,1065,o),
(1451,1065,cs)
);
}
);
width = 2896;
},
{
layerId = "5C20EF92-B63D-42A8-8878-93C2863E0093";
shapes = (
{
closed = 1;
nodes = (
(1454,-240,o),
(1460,-238,o),
(1464,-234,cs),
(2962,1158,ls),
(2966,1162,o),
(2968,1168,o),
(2968,1170,cs),
(2968,1178,o),
(2968,1180,o),
(2966,1186,cs),
(2410,2318,l),
(2410,2320,o),
(2408,2324,o),
(2404,2326,cs),
(2398,2330,o),
(2396,2330,o),
(2392,2330,cs),
(504,2330,ls),
(502,2330,o),
(498,2330,o),
(492,2326,cs),
(490,2324,o),
(486,2320,o),
(486,2318,c),
(-68,1186,ls),
(-72,1180,o),
(-72,1178,o),
(-72,1170,cs),
(-72,1168,o),
(-68,1162,o),
(-66,1158,cs),
(1434,-234,ls),
(1436,-238,o),
(1442,-240,o),
(1448,-240,cs)
);
},
{
closed = 1;
nodes = (
(1258,1008,l),
(828,1026,o),
(502,1110,o),
(502,1210,cs),
(502,1310,o),
(828,1392,o),
(1258,1410,c),
(1258,1636,l),
(728,1636,l),
(728,1980,l),
(2172,1980,l),
(2172,1636,l),
(1642,1636,l),
(1642,1410,l),
(2070,1392,o),
(2396,1310,o),
(2396,1210,cs),
(2396,1110,o),
(2070,1026,o),
(1642,1008,c),
(1642,288,l),
(1258,288,l)
);
},
{
closed = 1;
nodes = (
(1576,1066,o),
(1630,1068,o),
(1642,1068,cs),
(2022,1086,o),
(2306,1150,o),
(2306,1228,cs),
(2306,1304,o),
(2022,1368,o),
(1642,1386,c),
(1642,1132,l),
(1630,1132,o),
(1572,1128,o),
(1452,1128,cs),
(1354,1128,o),
(1282,1132,o),
(1258,1132,c),
(1258,1386,l),
(876,1368,o),
(592,1304,o),
(592,1228,cs),
(592,1150,o),
(876,1086,o),
(1258,1068,cs),
(1282,1068,o),
(1352,1066,o),
(1452,1066,cs)
);
}
);
width = 2896;
}
);
metricWidth = symbolBase;
unicode = 1024020;
}
{
color = 11;
glyphname = logoUsdtFill;
layers = (
{
layerId = "CD0E3B44-F66A-4791-B84C-A1128DC61275";
shapes = (
{
closed = 1;
nodes = (
(2247,-422,o),
(2896,226,o),
(2896,1026,cs),
(2896,1825,o),
(2247,2474,o),
(1448,2474,cs),
(649,2474,o),
(0,1825,o),
(0,1026,cs),
(0,226,o),
(649,-422,o),
(1448,-422,cs)
);
},
{
closed = 1;
nodes = (
(1445,-94,o),
(1439,-90,o),
(1436,-87,cs),
(335,947,ls),
(332,950,o),
(329,953,o),
(329,956,cs),
(329,959,o),
(329,962,o),
(332,965,c),
(739,1807,l),
(739,1810,o),
(742,1810,o),
(745,1813,cs),
(748,1816,o),
(751,1816,o),
(754,1816,cs),
(2142,1816,ls),
(2145,1816,o),
(2148,1816,o),
(2151,1813,cs),
(2154,1810,o),
(2157,1810,o),
(2157,1807,c),
(2564,965,l),
(2567,962,o),
(2567,959,o),
(2567,956,cs),
(2567,953,o),
(2564,950,o),
(2561,947,cs),
(1460,-87,ls),
(1457,-90,o),
(1451,-94,o),
(1448,-94,cs)
);
},
{
closed = 1;
nodes = (
(1590,299,l),
(1590,833,l),
(1907,848,o),
(2145,911,o),
(2145,983,cs),
(2145,1059,o),
(1907,1119,o),
(1590,1134,c),
(1590,1300,l),
(1979,1300,l),
(1979,1557,l),
(917,1557,l),
(917,1300,l),
(1306,1300,l),
(1306,1134,l),
(989,1119,o),
(751,1059,o),
(751,983,cs),
(751,911,o),
(989,848,o),
(1306,833,c),
(1306,299,l)
);
},
{
closed = 1;
nodes = (
(1379,878,o),
(1324,878,o),
(1306,881,c),
(1029,893,o),
(818,938,o),
(818,996,cs),
(818,1053,o),
(1029,1101,o),
(1306,1113,c),
(1306,926,l),
(1327,926,o),
(1379,923,o),
(1451,923,cs),
(1539,923,o),
(1581,926,o),
(1590,926,c),
(1590,1113,l),
(1870,1101,o),
(2078,1053,o),
(2078,996,cs),
(2078,938,o),
(1870,893,o),
(1590,881,c),
(1581,878,o),
(1542,878,o),
(1451,878,cs)
);
}
);
width = 2896;
},
{
layerId = "B1F27B51-9973-4381-9301-4FE46FE1CA59";
shapes = (
{
closed = 1;
nodes = (
(2248,-422,o),
(2896,226,o),
(2896,1026,cs),
(2896,1826,o),
(2248,2474,o),
(1448,2474,cs),
(650,2474,o),
(0,1826,o),
(0,1026,cs),
(0,226,o),
(650,-422,o),
(1448,-422,cs)
);
},
{
closed = 1;
nodes = (
(1446,-94,o),
(1440,-90,o),
(1436,-86,cs),
(336,948,ls),
(332,950,o),
(330,954,o),
(330,956,cs),
(330,960,o),
(330,962,o),
(332,966,c),
(740,1808,l),
(740,1810,o),
(742,1810,o),
(746,1814,cs),
(748,1816,o),
(752,1816,o),
(754,1816,cs),
(2142,1816,ls),
(2146,1816,o),
(2148,1816,o),
(2152,1814,cs),
(2154,1810,o),
(2158,1810,o),
(2158,1808,c),
(2564,966,l),
(2568,962,o),
(2568,960,o),
(2568,956,cs),
(2568,954,o),
(2564,950,o),
(2562,948,cs),
(1460,-86,ls),
(1458,-90,o),
(1452,-94,o),
(1448,-94,cs)
);
},
{
closed = 1;
nodes = (
(1590,300,l),
(1590,834,l),
(1908,848,o),
(2146,912,o),
(2146,984,cs),
(2146,1060,o),
(1908,1120,o),
(1590,1134,c),
(1590,1300,l),
(1980,1300,l),
(1980,1558,l),
(918,1558,l),
(918,1300,l),
(1306,1300,l),
(1306,1134,l),
(990,1120,o),
(752,1060,o),
(752,984,cs),
(752,912,o),
(990,848,o),
(1306,834,c),
(1306,300,l)
);
},
{
closed = 1;
nodes = (
(1380,878,o),
(1324,878,o),
(1306,882,c),
(1030,894,o),
(818,938,o),
(818,996,cs),
(818,1054,o),
(1030,1102,o),
(1306,1114,c),
(1306,926,l),
(1328,926,o),
(1380,924,o),
(1452,924,cs),
(1540,924,o),
(1582,926,o),
(1590,926,c),
(1590,1114,l),
(1870,1102,o),
(2078,1054,o),
(2078,996,cs),
(2078,938,o),
(1870,894,o),
(1590,882,c),
(1582,878,o),
(1542,878,o),
(1452,878,cs)
);
}
);
width = 2896;
},
{
layerId = "5C20EF92-B63D-42A8-8878-93C2863E0093";
shapes = (
{
closed = 1;
nodes = (
(2248,-422,o),
(2896,226,o),
(2896,1026,cs),
(2896,1826,o),
(2248,2474,o),
(1448,2474,cs),
(650,2474,o),
(0,1826,o),
(0,1026,cs),
(0,226,o),
(650,-422,o),
(1448,-422,cs)
);
},
{
closed = 1;
nodes = (
(1446,-94,o),
(1440,-90,o),
(1436,-86,cs),
(336,948,ls),
(332,950,o),
(330,954,o),
(330,956,cs),
(330,960,o),
(330,962,o),
(332,966,c),
(740,1808,l),
(740,1810,o),
(742,1810,o),
(746,1814,cs),
(748,1816,o),
(752,1816,o),
(754,1816,cs),
(2142,1816,ls),
(2146,1816,o),
(2148,1816,o),
(2152,1814,cs),
(2154,1810,o),
(2158,1810,o),
(2158,1808,c),
(2564,966,l),
(2568,962,o),
(2568,960,o),
(2568,956,cs),
(2568,954,o),
(2564,950,o),
(2562,948,cs),
(1460,-86,ls),
(1458,-90,o),
(1452,-94,o),
(1448,-94,cs)
);
},
{
closed = 1;
nodes = (
(1590,300,l),
(1590,834,l),
(1908,848,o),
(2146,912,o),
(2146,984,cs),
(2146,1060,o),
(1908,1120,o),
(1590,1134,c),
(1590,1300,l),
(1980,1300,l),
(1980,1558,l),
(918,1558,l),
(918,1300,l),
(1306,1300,l),
(1306,1134,l),
(990,1120,o),
(752,1060,o),
(752,984,cs),
(752,912,o),
(990,848,o),
(1306,834,c),
(1306,300,l)
);
},
{
closed = 1;
nodes = (
(1380,878,o),
(1324,878,o),
(1306,882,c),
(1030,894,o),
(818,938,o),
(818,996,cs),
(818,1054,o),
(1030,1102,o),
(1306,1114,c),
(1306,926,l),
(1328,926,o),
(1380,924,o),
(1452,924,cs),
(1540,924,o),
(1582,926,o),
(1590,926,c),
(1590,1114,l),
(1870,1102,o),
(2078,1054,o),
(2078,996,cs),
(2078,938,o),
(1870,894,o),
(1590,882,c),
(1582,878,o),
(1542,878,o),
(1452,878,cs)
);
}
);
width = 2896;
}
);
metricWidth = symbolBase;
unicode = 1024021;
}
{
color = 11;
glyphname = logoWcdFill;
layers = (
{
layerId = "B1F27B51-9973-4381-9301-4FE46FE1CA59";
shapes = (
{
closed = 1;
nodes = (
(745,-140,o),
(960,75,o),
(960,340,cs),
(960,605,o),
(745,820,o),
(480,820,cs),
(215,820,o),
(0,605,o),
(0,340,cs),
(0,75,o),
(215,-140,o),
(480,-140,cs)
);
},
{
closed = 1;
nodes = (
(250,249,l),
(315,335,l),
(185,335,l),
(120,422,l),
(185,508,l),
(315,508,l),
(250,422,l),
(315,335,l),
(445,508,l),
(576,508,l),
(380,249,l),
(445,162,l),
(315,162,l)
);
},
{
closed = 1;
nodes = (
(706,508,l),
(836,508,l),
(511,76,l),
(380,76,l)
);
}
);
width = 960;
},
{
layerId = "C698F293-3EC0-4A5A-A3A0-0FDB1F5CF265";
shapes = (
{
closed = 1;
nodes = (
(745,-140,o),
(960,75,o),
(960,340,cs),
(960,605,o),
(745,820,o),
(480,820,cs),
(215,820,o),
(0,605,o),
(0,340,cs),
(0,75,o),
(215,-140,o),
(480,-140,cs)
);
},
{
closed = 1;
nodes = (
(250,249,l),
(315,335,l),
(185,335,l),
(120,422,l),
(185,508,l),
(315,508,l),
(250,422,l),
(315,335,l),
(445,508,l),
(576,508,l),
(380,249,l),
(445,162,l),
(315,162,l)
);
},
{
closed = 1;
nodes = (
(706,508,l),
(836,508,l),
(511,76,l),
(380,76,l)
);
}
);
width = 960;
},
{
layerId = "5C20EF92-B63D-42A8-8878-93C2863E0093";
shapes = (
{
closed = 1;
nodes = (
(745,-140,o),
(960,75,o),
(960,340,cs),
(960,605,o),
(745,820,o),
(480,820,cs),
(215,820,o),
(0,605,o),
(0,340,cs),
(0,75,o),
(215,-140,o),
(480,-140,cs)
);
},
{
closed = 1;
nodes = (
(250,249,l),
(315,335,l),
(185,335,l),
(120,422,l),
(185,508,l),
(315,508,l),
(250,422,l),
(315,335,l),
(445,508,l),
(576,508,l),
(380,249,l),
(445,162,l),
(315,162,l)
);
},
{
closed = 1;
nodes = (
(706,508,l),
(836,508,l),
(511,76,l),
(380,76,l)
);
}
);
width = 960;
}
);
metricWidth = symbolBase;
unicode = 1024023;
}
{
color = 11;
glyphname = iconArrowClockwise;
layers = (
{
layerId = "CD0E3B44-F66A-4791-B84C-A1128DC61275";
shapes = (
{
closed = 1;
nodes = (
(1795,-181,o),
(2103,-39,o),
(2323,190,cs),
(2380,247,o),
(2431,314,o),
(2474,383,cs),
(2510,437,o),
(2492,513,o),
(2434,549,cs),
(2380,585,o),
(2305,567,o),
(2269,510,cs),
(2235,456,o),
(2193,404,o),
(2148,356,cs),
(1973,175,o),
(1726,60,o),
(1454,60,cs),
(920,60,o),
(489,492,o),
(489,1026,cs),
(489,1560,o),
(920,1991,o),
(1454,1991,cs),
(1707,1991,o),
(1940,1891,o),
(2112,1732,cs),
(2211,1638,o),
(2290,1523,o),
(2344,1397,cs),
(2371,1336,o),
(2440,1306,o),
(2501,1333,cs),
(2564,1358,o),
(2591,1427,o),
(2567,1490,cs),
(2501,1650,o),
(2401,1792,o),
(2278,1907,cs),
(2060,2109,o),
(1771,2232,o),
(1454,2232,cs),
(787,2232,o),
(247,1692,o),
(247,1026,cs),
(247,359,o),
(787,-181,o),
(1454,-181,cs)
);
},
{
closed = 1;
nodes = (
(2594,1267,ls),
(2661,1267,o),
(2715,1321,o),
(2715,1388,cs),
(2715,1750,ls),
(2715,1816,o),
(2661,1870,o),
(2594,1870,cs),
(2528,1870,o),
(2474,1816,o),
(2474,1750,cs),
(2474,1508,l),
(2232,1508,ls),
(2166,1508,o),
(2112,1454,o),
(2112,1388,cs),
(2112,1321,o),
(2166,1267,o),
(2232,1267,cs)
);
}
);
width = 2896;
},
{
layerId = "B1F27B51-9973-4381-9301-4FE46FE1CA59";
shapes = (
{
closed = 1;
nodes = (
(1774,-112,o),
(2066,24,o),
(2274,238,cs),
(2324,294,o),
(2372,356,o),
(2414,418,cs),
(2428,444,o),
(2422,474,o),
(2400,490,cs),
(2374,506,o),
(2344,498,o),
(2328,476,cs),
(2292,414,o),
(2248,358,o),
(2200,310,cs),
(2012,112,o),
(1746,-10,o),
(1454,-10,cs),
(882,-10,o),
(418,454,o),
(418,1026,cs),
(418,1598,o),
(882,2060,o),
(1454,2060,cs),
(1726,2060,o),
(1974,1954,o),
(2160,1780,cs),
(2266,1684,o),
(2352,1562,o),
(2406,1424,cs),
(2420,1400,o),
(2448,1388,o),
(2476,1396,cs),
(2502,1406,o),
(2514,1438,o),
(2500,1462,cs),
(2438,1612,o),
(2346,1746,o),
(2228,1858,cs),
(2026,2046,o),
(1754,2162,o),
(1454,2162,cs),
(826,2162,o),
(318,1654,o),
(318,1026,cs),
(318,398,o),
(826,-112,o),
(1454,-112,cs)
);
},
{
closed = 1;
nodes = (
(2594,1336,ls),
(2622,1336,o),
(2646,1360,o),
(2646,1388,cs),
(2646,1750,ls),
(2646,1778,o),
(2622,1800,o),
(2594,1800,cs),
(2566,1800,o),
(2544,1778,o),
(2544,1750,cs),
(2544,1438,l),
(2232,1438,ls),
(2204,1438,o),
(2182,1416,o),
(2182,1388,cs),
(2182,1360,o),
(2204,1336,o),
(2232,1336,cs)
);
}
);
width = 2896;
},
{
layerId = "5C20EF92-B63D-42A8-8878-93C2863E0093";
shapes = (
{
closed = 1;
nodes = (
(1814,-246,o),
(2138,-94,o),
(2370,146,cs),
(2428,208,o),
(2484,276,o),
(2528,348,cs),
(2584,434,o),
(2556,548,o),
(2470,604,cs),
(2384,656,o),
(2270,632,o),
(2214,546,cs),
(2184,494,o),
(2144,446,o),
(2104,400,cs),
(1938,230,o),
(1708,126,o),
(1454,126,cs),
(956,126,o),
(554,528,o),
(554,1026,cs),
(554,1524,o),
(956,1926,o),
(1454,1926,cs),
(1690,1926,o),
(1908,1834,o),
(2066,1682,cs),
(2160,1596,o),
(2234,1490,o),
(2286,1372,cs),
(2324,1278,o),
(2430,1232,o),
(2526,1272,cs),
(2622,1312,o),
(2666,1420,o),
(2624,1516,cs),
(2556,1682,o),
(2450,1834,o),
(2320,1956,cs),
(2094,2166,o),
(1788,2298,o),
(1454,2298,cs),
(752,2298,o),
(182,1728,o),
(182,1026,cs),
(182,324,o),
(752,-246,o),
(1454,-246,cs)
);
},
{
closed = 1;
nodes = (
(2594,1202,ls),
(2696,1202,o),
(2780,1286,o),
(2780,1388,cs),
(2780,1750,ls),
(2780,1852,o),
(2696,1936,o),
(2594,1936,cs),
(2492,1936,o),
(2408,1852,o),
(2408,1750,cs),
(2408,1574,l),
(2232,1574,ls),
(2130,1574,o),
(2046,1490,o),
(2046,1388,cs),
(2046,1286,o),
(2130,1202,o),
(2232,1202,cs)
);
}
);
width = 2896;
}
);
metricWidth = symbolBase;
unicode = 1024024;
}
{
color = 11;
glyphname = iconArrowClockwise.medium;
layers = (
{
layerId = "CD0E3B44-F66A-4791-B84C-A1128DC61275";
metricWidth = "=baseSymbol.medium";
shapes = (
{
closed = 1;
nodes = (
(2250,-462,o),
(2625,-278,o),
(2890,-3,cs),
(2965,75,o),
(3014,142,o),
(3071,226,cs),
(3113,290,o),
(3095,374,o),
(3032,413,cs),
(2965,456,o),
(2887,425,o),
(2851,368,cs),
(2809,299,o),
(2751,229,o),
(2697,172,cs),
(2465,-69,o),
(2145,-202,o),
(1816,-202,cs),
(1140,-202,o),
(591,347,o),
(591,1026,cs),
(591,1704,o),
(1140,2253,o),
(1816,2253,cs),
(2139,2253,o),
(2434,2127,o),
(2655,1922,cs),
(2787,1798,o),
(2884,1647,o),
(2947,1499,cs),
(2974,1436,o),
(3047,1400,o),
(3116,1427,cs),
(3189,1454,o),
(3216,1532,o),
(3189,1599,cs),
(3104,1804,o),
(2974,1982,o),
(2827,2118,cs),
(2564,2359,o),
(2211,2513,o),
(1816,2513,cs),
(996,2513,o),
(329,1846,o),
(329,1026,cs),
(329,205,o),
(996,-462,o),
(1816,-462,cs)
);
},
{
closed = 1;
nodes = (
(3243,1348,ls),
(3315,1348,o),
(3373,1406,o),
(3373,1478,cs),
(3373,1931,ls),
(3373,2003,o),
(3312,2060,o),
(3243,2060,cs),
(3174,2060,o),
(3113,2003,o),
(3113,1931,cs),
(3113,1608,l),
(2790,1608,ls),
(2718,1608,o),
(2661,1551,o),
(2661,1478,cs),
(2661,1406,o),
(2718,1348,o),
(2790,1348,cs)
);
}
);
userData = {
RMXScaler = {
height = 125;
verticalShift = -85;
width = 125;
};
};
width = 3620;
},
{
layerId = "B1F27B51-9973-4381-9301-4FE46FE1CA59";
metricWidth = "=baseSymbol.medium";
shapes = (
{
closed = 1;
nodes = (
(2196,-394,o),
(2569,-240,o),
(2838,39,cs),
(2896,102,o),
(2970,194,o),
(3018,271,cs),
(3036,300,o),
(3025,336,o),
(2997,354,cs),
(2961,375,o),
(2925,358,o),
(2910,333,cs),
(2865,256,o),
(2810,190,o),
(2749,126,cs),
(2520,-110,o),
(2196,-269,o),
(1819,-269,cs),
(1101,-269,o),
(521,309,o),
(521,1026,cs),
(521,1744,o),
(1101,2321,o),
(1819,2321,cs),
(2167,2321,o),
(2480,2180,o),
(2707,1968,cs),
(2834,1850,o),
(2944,1698,o),
(3008,1537,cs),
(3024,1496,o),
(3057,1480,o),
(3091,1490,cs),
(3121,1499,o),
(3141,1536,o),
(3125,1571,cs),
(3044,1756,o),
(2928,1933,o),
(2763,2083,cs),
(2516,2306,o),
(2184,2446,o),
(1819,2446,cs),
(1034,2446,o),
(399,1811,o),
(399,1026,cs),
(399,240,o),
(1034,-394,o),
(1819,-394,cs)
);
},
{
closed = 1;
nodes = (
(3243,1416,ls),
(3276,1416,o),
(3305,1444,o),
(3305,1478,cs),
(3305,1931,ls),
(3305,1965,o),
(3277,1993,o),
(3243,1993,cs),
(3213,1993,o),
(3184,1965,o),
(3184,1931,cs),
(3184,1541,l),
(2790,1541,ls),
(2756,1541,o),
(2731,1511,o),
(2731,1478,cs),
(2731,1444,o),
(2756,1416,o),
(2790,1416,cs)
);
}
);
userData = {
RMXScaler = {
height = 125;
verticalShift = -85;
width = 125;
};
};
width = 3620;
},
{
layerId = "5C20EF92-B63D-42A8-8878-93C2863E0093";
metricWidth = "=baseSymbol.medium";
shapes = (
{
closed = 1;
nodes = (
(2241,-535,o),
(2648,-364,o),
(2944,-54,cs),
(3018,21,o),
(3087,110,o),
(3141,197,cs),
(3200,293,o),
(3165,416,o),
(3073,475,cs),
(2981,533,o),
(2855,509,o),
(2792,409,cs),
(2747,337,o),
(2703,284,o),
(2649,226,cs),
(2438,7,o),
(2144,-129,o),
(1819,-129,cs),
(1183,-129,o),
(666,389,o),
(666,1026,cs),
(666,1662,o),
(1183,2180,o),
(1819,2180,cs),
(2120,2180,o),
(2399,2062,o),
(2606,1867,cs),
(2717,1763,o),
(2817,1630,o),
(2883,1470,cs),
(2929,1360,o),
(3053,1319,o),
(3148,1360,cs),
(3259,1406,o),
(3299,1526,o),
(3259,1625,cs),
(3175,1833,o),
(3039,2021,o),
(2888,2163,cs),
(2596,2435,o),
(2215,2586,o),
(1819,2586,cs),
(957,2586,o),
(258,1887,o),
(258,1026,cs),
(258,164,o),
(957,-535,o),
(1819,-535,cs)
);
},
{
closed = 1;
nodes = (
(3246,1275,ls),
(3358,1275,o),
(3450,1368,o),
(3450,1478,cs),
(3450,1931,ls),
(3450,2041,o),
(3358,2134,o),
(3246,2134,cs),
(3131,2134,o),
(3043,2041,o),
(3043,1931,cs),
(3043,1681,l),
(2793,1681,ls),
(2680,1681,o),
(2590,1589,o),
(2590,1478,cs),
(2590,1368,o),
(2680,1275,o),
(2793,1275,cs)
);
}
);
userData = {
RMXScaler = {
height = 125;
verticalShift = -85;
width = 125;
};
};
width = 3620;
}
);
unicode = 1024024;
userData = {
RMXScaler = {
source = iconArrowClockwise.small;
};
};
}
{
color = 11;
glyphname = iconArrowDown;
layers = (
{
layerId = "B1F27B51-9973-4381-9301-4FE46FE1CA59";
shapes = (
{
closed = 1;
nodes = (
(1430,175,o),
(1466,175,o),
(1490,199,cs),
(2344,1053,ls),
(2368,1077,o),
(2368,1113,o),
(2344,1137,cs),
(2320,1161,o),
(2284,1161,o),
(2259,1137,cs),
(1508,386,l),
(1508,1810,ls),
(1508,1843,o),
(1481,1870,o),
(1448,1870,cs),
(1415,1870,o),
(1388,1843,o),
(1388,1810,cs),
(1388,386,l),
(637,1137,ls),
(615,1161,o),
(576,1161,o),
(552,1137,cs),
(528,1113,o),
(528,1077,o),
(552,1053,cs),
(1406,199,ls)
);
}
);
width = 2896;
},
{
layerId = "CD0E3B44-F66A-4791-B84C-A1128DC61275";
shapes = (
{
closed = 1;
nodes = (
(1409,109,o),
(1487,109,o),
(1532,157,cs),
(2386,1011,ls),
(2434,1056,o),
(2434,1134,o),
(2386,1180,cs),
(2341,1228,o),
(2263,1228,o),
(2217,1180,cs),
(1569,534,l),
(1569,1810,ls),
(1569,1876,o),
(1514,1931,o),
(1448,1931,cs),
(1382,1931,o),
(1327,1876,o),
(1327,1810,cs),
(1327,534,l),
(679,1180,ls),
(634,1228,o),
(558,1228,o),
(510,1180,cs),
(462,1134,o),
(462,1056,o),
(510,1011,cs),
(1364,157,ls)
);
}
);
width = 2896;
},
{
layerId = "5C20EF92-B63D-42A8-8878-93C2863E0093";
shapes = (
{
closed = 1;
nodes = (
(1391,42,o),
(1505,42,o),
(1575,115,cs),
(2428,965,ls),
(2501,1038,o),
(2501,1152,o),
(2428,1222,cs),
(2359,1294,o),
(2244,1294,o),
(2172,1222,cs),
(1629,679,l),
(1629,1810,ls),
(1629,1910,o),
(1548,1991,o),
(1448,1991,cs),
(1348,1991,o),
(1267,1910,o),
(1267,1810,cs),
(1267,679,l),
(724,1222,ls),
(652,1294,o),
(537,1294,o),
(468,1222,cs),
(395,1152,o),
(395,1038,o),
(468,965,cs),
(1321,115,ls)
);
}
);
width = 2896;
}
);
metricWidth = symbolBase;
unicode = 1024026;
}
{
color = 11;
glyphname = iconArrowDown.medium;
layers = (
{
layerId = "CD0E3B44-F66A-4791-B84C-A1128DC61275";
metricWidth = "=baseSymbol.medium";
shapes = (
{
closed = 1;
nodes = (
(1771,-97,o),
(1849,-97,o),
(1901,-45,cs),
(2968,1020,ls),
(3017,1068,o),
(3023,1149,o),
(2971,1204,cs),
(2917,1261,o),
(2830,1249,o),
(2784,1204,cs),
(1940,362,l),
(1940,2006,ls),
(1940,2078,o),
(1879,2136,o),
(1810,2136,cs),
(1741,2136,o),
(1680,2078,o),
(1680,2006,cs),
(1680,362,l),
(836,1204,ls),
(784,1255,o),
(703,1255,o),
(652,1204,cs),
(594,1149,o),
(606,1065,o),
(652,1020,cs),
(1720,-45,ls)
);
}
);
userData = {
RMXScaler = {
height = 125;
verticalShift = -85;
width = 125;
};
};
width = 3620;
},
{
layerId = "B1F27B51-9973-4381-9301-4FE46FE1CA59";
metricWidth = "=baseSymbol.medium";
shapes = (
{
closed = 1;
nodes = (
(1795,-22,o),
(1831,-19,o),
(1854,4,cs),
(2919,1069,ls),
(2942,1092,o),
(2948,1128,o),
(2922,1154,cs),
(2900,1177,o),
(2865,1182,o),
(2837,1154,cs),
(1872,190,l),
(1872,2006,ls),
(1872,2040,o),
(1844,2068,o),
(1810,2068,cs),
(1780,2068,o),
(1751,2040,o),
(1751,2006,cs),
(1751,190,l),
(786,1154,ls),
(763,1178,o),
(724,1178,o),
(701,1154,cs),
(678,1131,o),
(674,1096,o),
(701,1069,cs),
(1769,4,ls)
);
}
);
userData = {
RMXScaler = {
height = 125;
verticalShift = -85;
width = 125;
};
};
width = 3620;
},
{
layerId = "5C20EF92-B63D-42A8-8878-93C2863E0093";
metricWidth = "=baseSymbol.medium";
shapes = (
{
closed = 1;
nodes = (
(1755,-183,o),
(1881,-167,o),
(1952,-97,cs),
(3020,968,ls),
(3100,1049,o),
(3100,1175,o),
(3020,1255,cs),
(2933,1341,o),
(2804,1326,o),
(2733,1255,cs),
(2013,539,l),
(2013,2006,ls),
(2013,2117,o),
(1922,2209,o),
(1810,2209,cs),
(1698,2209,o),
(1606,2117,o),
(1606,2006,cs),
(1606,539,l),
(887,1255,ls),
(806,1335,o),
(681,1335,o),
(600,1255,cs),
(523,1179,o),
(517,1052,o),
(600,968,cs),
(1668,-97,ls)
);
}
);
userData = {
RMXScaler = {
height = 125;
verticalShift = -85;
width = 125;
};
};
width = 3620;
}
);
unicode = 1024026;
userData = {
RMXScaler = {
source = iconArrowDown.small;
};
};
}
{
color = 11;
glyphname = iconArrowLeft;
layers = (
{
layerId = "B1F27B51-9973-4381-9301-4FE46FE1CA59";
shapes = (
{
closed = 1;
nodes = (
(1499,106,o),
(1535,106,o),
(1560,130,cs),
(1584,154,o),
(1584,190,o),
(1560,214,cs),
(808,965,l),
(2232,965,ls),
(2266,965,o),
(2293,992,o),
(2293,1026,cs),
(2293,1059,o),
(2266,1086,o),
(2232,1086,cs),
(808,1086,l),
(1560,1837,ls),
(1584,1861,o),
(1584,1897,o),
(1560,1922,cs),
(1535,1946,o),
(1499,1946,o),
(1475,1922,cs),
(621,1068,ls),
(597,1044,o),
(597,1008,o),
(621,983,cs),
(1475,130,ls)
);
}
);
width = 2896;
},
{
layerId = "CD0E3B44-F66A-4791-B84C-A1128DC61275";
shapes = (
{
closed = 1;
nodes = (
(1478,39,o),
(1557,39,o),
(1602,87,cs),
(1650,133,o),
(1650,211,o),
(1602,256,cs),
(956,905,l),
(2232,905,ls),
(2299,905,o),
(2353,959,o),
(2353,1026,cs),
(2353,1092,o),
(2299,1146,o),
(2232,1146,cs),
(956,1146,l),
(1602,1795,ls),
(1650,1840,o),
(1650,1919,o),
(1602,1964,cs),
(1557,2012,o),
(1478,2012,o),
(1433,1964,cs),
(579,1110,ls),
(531,1065,o),
(531,986,o),
(579,941,cs),
(1433,87,ls)
);
}
);
width = 2896;
},
{
layerId = "5C20EF92-B63D-42A8-8878-93C2863E0093";
shapes = (
{
closed = 1;
nodes = (
(1460,-27,o),
(1575,-27,o),
(1644,45,cs),
(1716,115,o),
(1716,229,o),
(1644,302,cs),
(1101,845,l),
(2232,845,ls),
(2332,845,o),
(2413,926,o),
(2413,1026,cs),
(2413,1125,o),
(2332,1207,o),
(2232,1207,cs),
(1101,1207,l),
(1644,1750,ls),
(1716,1822,o),
(1716,1937,o),
(1644,2006,cs),
(1575,2078,o),
(1460,2078,o),
(1388,2006,cs),
(537,1152,ls),
(465,1083,o),
(465,968,o),
(537,899,cs),
(1388,45,ls)
);
}
);
width = 2896;
}
);
metricWidth = symbolBase;
unicode = 1024027;
}
{
color = 11;
glyphname = iconArrowLeft.medium;
layers = (
{
layerId = "CD0E3B44-F66A-4791-B84C-A1128DC61275";
metricWidth = "=baseSymbol.medium";
shapes = (
{
closed = 1;
nodes = (
(1855,-181,o),
(1940,-187,o),
(1991,-133,cs),
(2042,-81,o),
(2036,3,o),
(1988,51,cs),
(1146,896,l),
(2790,896,ls),
(2863,896,o),
(2923,953,o),
(2923,1026,cs),
(2923,1098,o),
(2863,1155,o),
(2790,1155,cs),
(1146,1155,l),
(1988,2000,ls),
(2036,2048,o),
(2042,2130,o),
(1991,2184,cs),
(1943,2232,o),
(1861,2238,o),
(1807,2184,cs),
(739,1116,ls),
(688,1065,o),
(691,983,o),
(739,935,cs),
(1807,-133,ls)
);
}
);
userData = {
RMXScaler = {
height = 125;
verticalShift = -85;
width = 125;
};
};
width = 3620;
},
{
layerId = "B1F27B51-9973-4381-9301-4FE46FE1CA59";
metricWidth = "=baseSymbol.medium";
shapes = (
{
closed = 1;
nodes = (
(1883,-111,o),
(1919,-107,o),
(1942,-83,cs),
(1968,-57,o),
(1966,-21,o),
(1942,2,cs),
(978,963,l),
(2790,963,ls),
(2825,963,o),
(2853,991,o),
(2853,1026,cs),
(2853,1060,o),
(2825,1088,o),
(2790,1088,cs),
(978,1088,l),
(1942,2049,ls),
(1966,2072,o),
(1968,2109,o),
(1942,2135,cs),
(1919,2158,o),
(1883,2161,o),
(1856,2135,cs),
(788,1067,ls),
(765,1044,o),
(765,1008,o),
(788,984,cs),
(1856,-83,ls)
);
}
);
userData = {
RMXScaler = {
height = 125;
verticalShift = -85;
width = 125;
};
};
width = 3620;
},
{
layerId = "5C20EF92-B63D-42A8-8878-93C2863E0093";
metricWidth = "=baseSymbol.medium";
shapes = (
{
closed = 1;
nodes = (
(1836,-267,o),
(1966,-261,o),
(2042,-184,cs),
(2126,-98,o),
(2114,29,o),
(2039,103,cs),
(1323,823,l),
(2790,823,ls),
(2905,823,o),
(2994,915,o),
(2994,1026,cs),
(2994,1136,o),
(2905,1229,o),
(2790,1229,cs),
(1323,1229,l),
(2039,1949,ls),
(2117,2026,o),
(2123,2156,o),
(2042,2235,cs),
(1956,2325,o),
(1823,2306,o),
(1753,2235,cs),
(688,1167,ls),
(607,1087,o),
(610,961,o),
(688,884,cs),
(1753,-184,ls)
);
}
);
userData = {
RMXScaler = {
height = 125;
verticalShift = -85;
width = 125;
};
};
width = 3620;
}
);
unicode = 1024027;
userData = {
RMXScaler = {
source = iconArrowLeft.small;
};
};
}
{
color = 11;
glyphname = iconArrowLongDown;
layers = (
{
layerId = "CD0E3B44-F66A-4791-B84C-A1128DC61275";
shapes = (
{
closed = 1;
nodes = (
(1481,-78,o),
(1511,-66,o),
(1532,-45,cs),
(2217,640,ls),
(2263,685,o),
(2263,763,o),
(2217,808,cs),
(2169,857,o),
(2094,857,o),
(2045,808,cs),
(1569,332,l),
(1569,2009,ls),
(1569,2075,o),
(1514,2130,o),
(1448,2130,cs),
(1382,2130,o),
(1327,2075,o),
(1327,2009,cs),
(1327,332,l),
(851,808,ls),
(802,857,o),
(727,857,o),
(679,808,cs),
(634,763,o),
(634,685,o),
(679,640,cs),
(1364,-45,ls),
(1385,-66,o),
(1415,-78,o),
(1448,-78,cs)
);
}
);
width = 2896;
},
{
layerId = "B1F27B51-9973-4381-9301-4FE46FE1CA59";
shapes = (
{
closed = 1;
nodes = (
(1460,-8,o),
(1472,-4,o),
(1484,8,cs),
(2164,688,ls),
(2186,710,o),
(2186,738,o),
(2164,760,cs),
(2148,780,o),
(2116,780,o),
(2094,760,cs),
(1498,164,l),
(1498,2010,ls),
(1498,2036,o),
(1476,2060,o),
(1448,2060,cs),
(1420,2060,o),
(1398,2036,o),
(1398,2010,cs),
(1398,164,l),
(802,760,ls),
(780,780,o),
(748,780,o),
(732,760,cs),
(710,738,o),
(710,710,o),
(732,688,cs),
(1412,8,ls),
(1424,-4,o),
(1436,-8,o),
(1448,-8,cs)
);
}
);
width = 2896;
},
{
layerId = "5C20EF92-B63D-42A8-8878-93C2863E0093";
shapes = (
{
closed = 1;
nodes = (
(1498,-144,o),
(1544,-124,o),
(1578,-90,cs),
(2262,594,ls),
(2334,666,o),
(2334,782,o),
(2262,854,cs),
(2188,928,o),
(2070,928,o),
(2000,854,cs),
(1634,486,l),
(1634,2010,ls),
(1634,2112,o),
(1550,2194,o),
(1448,2194,cs),
(1346,2194,o),
(1262,2112,o),
(1262,2010,cs),
(1262,490,l),
(896,854,ls),
(826,928,o),
(708,928,o),
(634,854,cs),
(562,782,o),
(562,666,o),
(634,594,cs),
(1318,-90,ls),
(1352,-124,o),
(1398,-144,o),
(1448,-144,cs)
);
}
);
width = 2896;
}
);
metricWidth = symbolBase;
unicode = 1024028;
}
{
color = 11;
glyphname = iconArrowLongDown.medium;
layers = (
{
layerId = "CD0E3B44-F66A-4791-B84C-A1128DC61275";
metricWidth = "=baseSymbol.medium";
shapes = (
{
closed = 1;
nodes = (
(1843,-335,o),
(1876,-323,o),
(1901,-299,cs),
(2757,558,ls),
(2806,606,o),
(2806,691,o),
(2757,739,cs),
(2700,799,o),
(2615,784,o),
(2570,739,cs),
(1940,112,l),
(1940,2256,ls),
(1940,2326,o),
(1882,2386,o),
(1810,2386,cs),
(1738,2386,o),
(1677,2326,o),
(1677,2256,cs),
(1677,112,l),
(1050,739,ls),
(996,793,o),
(914,790,o),
(863,739,cs),
(815,691,o),
(815,606,o),
(863,558,cs),
(1716,-299,ls),
(1741,-323,o),
(1774,-335,o),
(1810,-335,cs)
);
}
);
userData = {
RMXScaler = {
height = 125;
verticalShift = -85;
width = 125;
};
};
width = 3620;
},
{
layerId = "B1F27B51-9973-4381-9301-4FE46FE1CA59";
metricWidth = "=baseSymbol.medium";
shapes = (
{
closed = 1;
nodes = (
(1822,-265,o),
(1837,-259,o),
(1851,-246,cs),
(2705,607,ls),
(2728,630,o),
(2728,667,o),
(2705,693,cs),
(2686,712,o),
(2647,717,o),
(2619,690,cs),
(1869,-57,l),
(1869,2256,ls),
(1869,2288,o),
(1844,2316,o),
(1810,2316,cs),
(1776,2316,o),
(1748,2288,o),
(1748,2256,cs),
(1748,-57,l),
(1001,690,ls),
(974,716,o),
(935,713,o),
(915,693,cs),
(892,670,o),
(892,630,o),
(915,607,cs),
(1766,-246,ls),
(1779,-259,o),
(1795,-265,o),
(1810,-265,cs)
);
}
);
userData = {
RMXScaler = {
height = 125;
verticalShift = -85;
width = 125;
};
};
width = 3620;
},
{
layerId = "5C20EF92-B63D-42A8-8878-93C2863E0093";
metricWidth = "=baseSymbol.medium";
shapes = (
{
closed = 1;
nodes = (
(1869,-408,o),
(1919,-384,o),
(1952,-350,cs),
(2809,507,ls),
(2886,584,o),
(2886,713,o),
(2809,790,cs),
(2729,871,o),
(2602,874,o),
(2519,790,cs),
(2014,286,l),
(2014,2256,ls),
(2014,2368,o),
(1921,2461,o),
(1810,2461,cs),
(1699,2461,o),
(1607,2368,o),
(1607,2256,cs),
(1607,289,l),
(1101,790,ls),
(1018,874,o),
(888,868,o),
(812,790,cs),
(734,713,o),
(734,584,o),
(812,507,cs),
(1668,-350,ls),
(1702,-384,o),
(1752,-408,o),
(1810,-408,cs)
);
}
);
userData = {
RMXScaler = {
height = 125;
verticalShift = -85;
width = 125;
};
};
width = 3620;
}
);
unicode = 1024028;
userData = {
RMXScaler = {
source = iconArrowLongDown.small;
};
};
}
{
color = 11;
glyphname = iconArrowLongLeft;
layers = (
{
layerId = "CD0E3B44-F66A-4791-B84C-A1128DC61275";
shapes = (
{
closed = 1;
nodes = (
(1107,211,o),
(1186,211,o),
(1231,256,cs),
(1279,305,o),
(1279,380,o),
(1231,428,cs),
(754,905,l),
(2431,905,ls),
(2498,905,o),
(2552,959,o),
(2552,1026,cs),
(2552,1092,o),
(2498,1146,o),
(2431,1146,cs),
(754,1146,l),
(1231,1623,ls),
(1279,1671,o),
(1279,1747,o),
(1231,1795,cs),
(1186,1840,o),
(1107,1840,o),
(1062,1795,cs),
(377,1110,ls),
(356,1089,o),
(344,1059,o),
(344,1026,cs),
(344,992,o),
(356,962,o),
(377,941,cs),
(1062,256,ls)
);
}
);
width = 2896;
},
{
layerId = "B1F27B51-9973-4381-9301-4FE46FE1CA59";
shapes = (
{
closed = 1;
nodes = (
(1132,288,o),
(1160,288,o),
(1182,310,cs),
(1202,326,o),
(1202,360,o),
(1182,380,cs),
(586,974,l),
(2432,974,ls),
(2460,974,o),
(2482,998,o),
(2482,1026,cs),
(2482,1054,o),
(2460,1076,o),
(2432,1076,cs),
(586,1076,l),
(1182,1672,ls),
(1202,1692,o),
(1202,1726,o),
(1182,1742,cs),
(1160,1764,o),
(1132,1764,o),
(1110,1742,cs),
(430,1062,ls),
(418,1050,o),
(414,1038,o),
(414,1026,cs),
(414,1014,o),
(418,1002,o),
(430,990,cs),
(1110,310,ls)
);
}
);
width = 2896;
},
{
layerId = "5C20EF92-B63D-42A8-8878-93C2863E0093";
shapes = (
{
closed = 1;
nodes = (
(1088,140,o),
(1206,140,o),
(1276,212,cs),
(1350,286,o),
(1350,402,o),
(1276,474,cs),
(912,840,l),
(2432,840,ls),
(2534,840,o),
(2616,924,o),
(2616,1026,cs),
(2616,1128,o),
(2534,1212,o),
(2432,1212,cs),
(908,1212,l),
(1276,1578,ls),
(1350,1648,o),
(1350,1766,o),
(1276,1840,cs),
(1206,1912,o),
(1088,1912,o),
(1018,1840,cs),
(332,1154,ls),
(298,1122,o),
(280,1076,o),
(280,1026,cs),
(280,976,o),
(298,930,o),
(332,896,cs),
(1018,212,ls)
);
}
);
width = 2896;
}
);
metricWidth = symbolBase;
unicode = 1024029;
}
{
color = 11;
glyphname = iconArrowLongLeft.medium;
layers = (
{
layerId = "CD0E3B44-F66A-4791-B84C-A1128DC61275";
metricWidth = "=symbolBase.medium";
shapes = (
{
closed = 1;
nodes = (
(1475,902,l),
(1828,1988,l),
(2178,902,l),
(2462,902,l),
(2974,2459,l),
(2615,2459,l),
(2314,1445,l),
(1964,2459,l),
(1686,2459,l),
(1342,1445,l),
(1041,2459,l),
(679,2459,l),
(1195,902,l)
);
},
{
closed = 1;
nodes = (
(1581,275,l),
(1581,588,l),
(229,588,l),
(229,275,l)
);
},
{
closed = 1;
nodes = (
(1644,-335,l),
(1904,33,o),
(2332,275,o),
(2824,275,cs),
(3424,275,l),
(3424,588,l),
(2824,588,ls),
(2266,588,o),
(1852,335,o),
(1605,84,c),
(1605,-335,l)
);
}
);
userData = {
RMXScaler = {
height = 125;
verticalShift = -85;
width = 125;
};
};
width = 3620;
},
{
layerId = "B1F27B51-9973-4381-9301-4FE46FE1CA59";
metricWidth = "=symbolBase.medium";
shapes = (
{
closed = 1;
nodes = (
(1475,902,l),
(1828,1988,l),
(2178,902,l),
(2462,902,l),
(2974,2459,l),
(2615,2459,l),
(2314,1445,l),
(1964,2459,l),
(1686,2459,l),
(1342,1445,l),
(1041,2459,l),
(679,2459,l),
(1195,902,l)
);
},
{
closed = 1;
nodes = (
(1581,275,l),
(1581,588,l),
(229,588,l),
(229,275,l)
);
},
{
closed = 1;
nodes = (
(1644,-335,l),
(1904,33,o),
(2332,275,o),
(2824,275,cs),
(3424,275,l),
(3424,588,l),
(2824,588,ls),
(2276,588,o),
(1862,345,o),
(1605,84,c),
(1605,-335,l)
);
}
);
userData = {
RMXScaler = {
height = 125;
verticalShift = -85;
width = 125;
};
};
width = 3620;
},
{
layerId = "5C20EF92-B63D-42A8-8878-93C2863E0093";
metricWidth = "=symbolBase.medium";
shapes = (
{
closed = 1;
nodes = (
(1475,902,l),
(1828,1988,l),
(2178,902,l),
(2462,902,l),
(2974,2459,l),
(2615,2459,l),
(2314,1445,l),
(1964,2459,l),
(1686,2459,l),
(1342,1445,l),
(1041,2459,l),
(679,2459,l),
(1195,902,l)
);
},
{
closed = 1;
nodes = (
(1581,275,l),
(1581,588,l),
(229,588,l),
(229,275,l)
);
},
{
closed = 1;
nodes = (
(1644,-335,l),
(1904,33,o),
(2332,275,o),
(2824,275,cs),
(3424,275,l),
(3424,588,l),
(2824,588,ls),
(2266,588,o),
(1852,335,o),
(1605,84,c),
(1605,-335,l)
);
}
);
userData = {
RMXScaler = {
height = 125;
verticalShift = -85;
width = 125;
};
};
width = 3620;
}
);
unicode = 1024029;
userData = {
RMXScaler = {
source = logoWepublic.small;
};
};
}
{
color = 11;
glyphname = iconArrowLongRight;
layers = (
{
layerId = "CD0E3B44-F66A-4791-B84C-A1128DC61275";
shapes = (
{
closed = 1;
nodes = (
(1710,211,o),
(1789,211,o),
(1834,256,cs),
(2519,941,ls),
(2540,962,o),
(2552,992,o),
(2552,1026,cs),
(2552,1059,o),
(2540,1089,o),
(2519,1110,cs),
(1834,1795,ls),
(1789,1840,o),
(1710,1840,o),
(1665,1795,cs),
(1617,1747,o),
(1617,1671,o),
(1665,1623,cs),
(2142,1146,l),
(465,1146,ls),
(398,1146,o),
(344,1092,o),
(344,1026,cs),
(344,959,o),
(398,905,o),
(465,905,cs),
(2142,905,l),
(1665,428,ls),
(1617,380,o),
(1617,305,o),
(1665,256,cs)
);
}
);
width = 2896;
},
{
layerId = "B1F27B51-9973-4381-9301-4FE46FE1CA59";
shapes = (
{
closed = 1;
nodes = (
(1736,288,o),
(1764,288,o),
(1786,310,cs),
(2466,990,ls),
(2478,1002,o),
(2482,1014,o),
(2482,1026,cs),
(2482,1038,o),
(2478,1050,o),
(2466,1062,cs),
(1786,1742,ls),
(1764,1764,o),
(1736,1764,o),
(1714,1742,cs),
(1694,1726,o),
(1694,1692,o),
(1714,1672,cs),
(2310,1076,l),
(466,1076,ls),
(436,1076,o),
(414,1054,o),
(414,1026,cs),
(414,998,o),
(436,974,o),
(466,974,cs),
(2310,974,l),
(1714,380,ls),
(1694,360,o),
(1694,326,o),
(1714,310,cs)
);
}
);
width = 2896;
},
{
layerId = "5C20EF92-B63D-42A8-8878-93C2863E0093";
shapes = (
{
closed = 1;
nodes = (
(1690,140,o),
(1808,140,o),
(1878,212,cs),
(2564,896,ls),
(2598,930,o),
(2616,976,o),
(2616,1026,cs),
(2616,1076,o),
(2598,1122,o),
(2564,1154,cs),
(1878,1840,ls),
(1808,1912,o),
(1690,1912,o),
(1620,1840,cs),
(1546,1766,o),
(1546,1648,o),
(1620,1578,cs),
(1988,1212,l),
(466,1212,ls),
(362,1212,o),
(280,1128,o),
(280,1026,cs),
(280,924,o),
(362,840,o),
(466,840,cs),
(1984,840,l),
(1620,474,ls),
(1546,402,o),
(1546,286,o),
(1620,212,cs)
);
}
);
width = 2896;
}
);
metricWidth = symbolBase;
unicode = 1024030;
}
{
color = 11;
glyphname = iconArrowLongRight.medium;
layers = (
{
layerId = "CD0E3B44-F66A-4791-B84C-A1128DC61275";
metricWidth = "=symbolBase.medium";
shapes = (
{
closed = 1;
nodes = (
(2154,24,o),
(2235,36,o),
(2278,78,cs),
(3134,935,ls),
(3158,959,o),
(3171,992,o),
(3171,1026,cs),
(3171,1059,o),
(3158,1092,o),
(3134,1116,cs),
(2278,1973,ls),
(2232,2018,o),
(2151,2024,o),
(2097,1973,cs),
(2036,1916,o),
(2048,1831,o),
(2094,1786,cs),
(2724,1155,l),
(579,1155,ls),
(510,1155,o),
(449,1098,o),
(449,1026,cs),
(449,953,o),
(510,896,o),
(579,896,cs),
(2724,896,l),
(2097,265,ls),
(2042,211,o),
(2045,130,o),
(2097,78,cs)
);
}
);
userData = {
RMXScaler = {
height = 125;
verticalShift = -85;
width = 125;
};
};
width = 3620;
},
{
layerId = "B1F27B51-9973-4381-9301-4FE46FE1CA59";
metricWidth = "=symbolBase.medium";
shapes = (
{
closed = 1;
nodes = (
(2169,105,o),
(2207,108,o),
(2231,131,cs),
(3082,984,ls),
(3095,998,o),
(3100,1014,o),
(3100,1026,cs),
(3100,1038,o),
(3095,1054,o),
(3082,1067,cs),
(2231,1921,ls),
(2208,1944,o),
(2172,1947,o),
(2143,1921,cs),
(2124,1902,o),
(2119,1862,o),
(2146,1835,cs),
(2893,1088,l),
(582,1088,ls),
(548,1088,o),
(520,1060,o),
(520,1026,cs),
(520,991,o),
(548,963,o),
(582,963,cs),
(2893,963,l),
(2146,216,ls),
(2120,190,o),
(2123,151,o),
(2143,131,cs)
);
}
);
userData = {
RMXScaler = {
height = 125;
verticalShift = -85;
width = 125;
};
};
width = 3620;
},
{
layerId = "5C20EF92-B63D-42A8-8878-93C2863E0093";
metricWidth = "=symbolBase.medium";
shapes = (
{
closed = 1;
nodes = (
(2122,-50,o),
(2251,-53,o),
(2332,27,cs),
(3186,884,ls),
(3220,917,o),
(3245,966,o),
(3245,1026,cs),
(3245,1085,o),
(3220,1134,o),
(3186,1167,cs),
(2332,2024,ls),
(2254,2102,o),
(2125,2105,o),
(2045,2024,cs),
(1962,1941,o),
(1968,1812,o),
(2045,1735,cs),
(2553,1229,l),
(582,1229,ls),
(472,1229,o),
(379,1136,o),
(379,1026,cs),
(379,915,o),
(472,823,o),
(582,823,cs),
(2550,823,l),
(2045,317,ls),
(1965,237,o),
(1965,108,o),
(2045,27,cs)
);
}
);
userData = {
RMXScaler = {
height = 125;
verticalShift = -85;
width = 125;
};
};
width = 3620;
}
);
unicode = 1024030;
userData = {
RMXScaler = {
source = iconArrowLongRight.small;
};
};
}
{
color = 11;
glyphname = iconArrowLongUp;
layers = (
{
layerId = "B1F27B51-9973-4381-9301-4FE46FE1CA59";
shapes = (
{
closed = 1;
nodes = (
(1481,-18,o),
(1508,9,o),
(1508,42,cs),
(1508,1864,l),
(2088,1285,ls),
(2112,1261,o),
(2151,1261,o),
(2172,1285,cs),
(2196,1309,o),
(2196,1345,o),
(2172,1370,cs),
(1490,2051,ls),
(1478,2063,o),
(1463,2069,o),
(1448,2069,cs),
(1433,2069,o),
(1418,2063,o),
(1406,2051,cs),
(724,1370,ls),
(700,1345,o),
(700,1309,o),
(724,1285,cs),
(745,1261,o),
(784,1261,o),
(808,1285,cs),
(1388,1864,l),
(1388,42,ls),
(1388,9,o),
(1415,-18,o),
(1448,-18,cs)
);
}
);
width = 2896;
},
{
layerId = "CD0E3B44-F66A-4791-B84C-A1128DC61275";
shapes = (
{
closed = 1;
nodes = (
(1514,-78,o),
(1569,-24,o),
(1569,42,cs),
(1569,1720,l),
(2045,1243,ls),
(2094,1195,o),
(2169,1195,o),
(2217,1243,cs),
(2263,1288,o),
(2263,1367,o),
(2217,1412,cs),
(1532,2097,ls),
(1511,2118,o),
(1481,2130,o),
(1448,2130,cs),
(1415,2130,o),
(1385,2118,o),
(1364,2097,cs),
(679,1412,ls),
(634,1367,o),
(634,1288,o),
(679,1243,cs),
(727,1195,o),
(802,1195,o),
(851,1243,cs),
(1327,1720,l),
(1327,42,ls),
(1327,-24,o),
(1382,-78,o),
(1448,-78,cs)
);
}
);
width = 2896;
},
{
layerId = "5C20EF92-B63D-42A8-8878-93C2863E0093";
shapes = (
{
closed = 1;
nodes = (
(1548,-139,o),
(1629,-57,o),
(1629,42,cs),
(1629,1575,l),
(2003,1201,ls),
(2072,1128,o),
(2187,1128,o),
(2259,1201,cs),
(2329,1270,o),
(2329,1385,o),
(2259,1454,cs),
(1575,2139,ls),
(1542,2172,o),
(1496,2190,o),
(1448,2190,cs),
(1400,2190,o),
(1354,2172,o),
(1321,2139,cs),
(637,1454,ls),
(567,1385,o),
(567,1270,o),
(637,1201,cs),
(709,1128,o),
(824,1128,o),
(893,1201,cs),
(1267,1572,l),
(1267,42,ls),
(1267,-57,o),
(1348,-139,o),
(1448,-139,cs)
);
}
);
width = 2896;
}
);
metricWidth = symbolBase;
unicode = 1024031;
}
{
color = 11;
glyphname = iconArrowLongUp.medium;
layers = (
{
layerId = "CD0E3B44-F66A-4791-B84C-A1128DC61275";
metricWidth = "=baseSymbol.medium";
shapes = (
{
closed = 1;
nodes = (
(1882,-335,o),
(1940,-275,o),
(1940,-205,cs),
(1940,1943,l),
(2570,1312,ls),
(2625,1258,o),
(2706,1261,o),
(2757,1312,cs),
(2806,1364,o),
(2806,1445,o),
(2757,1493,cs),
(1901,2350,ls),
(1876,2374,o),
(1843,2386,o),
(1810,2386,cs),
(1774,2386,o),
(1741,2374,o),
(1716,2350,cs),
(863,1493,ls),
(808,1439,o),
(821,1354,o),
(863,1312,cs),
(914,1261,o),
(996,1258,o),
(1050,1312,cs),
(1677,1943,l),
(1677,-205,ls),
(1677,-275,o),
(1738,-335,o),
(1810,-335,cs)
);
}
);
userData = {
RMXScaler = {
height = 125;
verticalShift = -85;
width = 125;
};
};
width = 3620;
},
{
layerId = "B1F27B51-9973-4381-9301-4FE46FE1CA59";
metricWidth = "=baseSymbol.medium";
shapes = (
{
closed = 1;
nodes = (
(1844,-265,o),
(1869,-235,o),
(1869,-205,cs),
(1869,2109,l),
(2619,1361,ls),
(2646,1335,o),
(2685,1338,o),
(2705,1358,cs),
(2735,1392,o),
(2721,1427,o),
(2705,1444,cs),
(1851,2298,ls),
(1837,2311,o),
(1822,2316,o),
(1810,2316,cs),
(1795,2316,o),
(1779,2311,o),
(1766,2298,cs),
(915,1444,ls),
(893,1421,o),
(888,1386,o),
(915,1358,cs),
(935,1338,o),
(973,1334,o),
(1001,1361,cs),
(1748,2109,l),
(1748,-205,ls),
(1748,-235,o),
(1776,-265,o),
(1810,-265,cs)
);
}
);
userData = {
RMXScaler = {
height = 125;
verticalShift = -85;
width = 125;
};
};
width = 3620;
},
{
layerId = "5C20EF92-B63D-42A8-8878-93C2863E0093";
metricWidth = "=baseSymbol.medium";
shapes = (
{
closed = 1;
nodes = (
(1921,-408,o),
(2014,-317,o),
(2014,-205,cs),
(2014,1766,l),
(2519,1261,ls),
(2595,1184,o),
(2725,1178,o),
(2809,1261,cs),
(2886,1337,o),
(2886,1467,o),
(2809,1545,cs),
(1952,2401,ls),
(1919,2435,o),
(1869,2461,o),
(1810,2461,cs),
(1752,2461,o),
(1702,2435,o),
(1668,2401,cs),
(812,1545,ls),
(734,1468,o),
(734,1338,o),
(812,1261,cs),
(901,1172,o),
(1031,1191,o),
(1101,1261,cs),
(1607,1763,l),
(1607,-205,ls),
(1607,-317,o),
(1699,-408,o),
(1810,-408,cs)
);
}
);
userData = {
RMXScaler = {
height = 125;
verticalShift = -85;
width = 125;
};
};
width = 3620;
}
);
unicode = 1024031;
userData = {
RMXScaler = {
source = iconArrowLongUp.small;
};
};
}
{
color = 11;
glyphname = iconArrowRight;
layers = (
{
layerId = "CD0E3B44-F66A-4791-B84C-A1128DC61275";
shapes = (
{
closed = 1;
nodes = (
(1339,39,o),
(1418,39,o),
(1463,87,cs),
(2317,941,ls),
(2365,986,o),
(2365,1065,o),
(2317,1110,cs),
(1463,1964,ls),
(1418,2012,o),
(1339,2012,o),
(1294,1964,cs),
(1246,1919,o),
(1246,1840,o),
(1294,1795,cs),
(1940,1146,l),
(664,1146,ls),
(597,1146,o),
(543,1092,o),
(543,1026,cs),
(543,959,o),
(597,905,o),
(664,905,cs),
(1940,905,l),
(1294,256,ls),
(1246,211,o),
(1246,133,o),
(1294,87,cs)
);
}
);
width = 2896;
},
{
layerId = "B1F27B51-9973-4381-9301-4FE46FE1CA59";
shapes = (
{
closed = 1;
nodes = (
(1364,116,o),
(1394,116,o),
(1414,136,cs),
(2268,990,ls),
(2288,1012,o),
(2288,1040,o),
(2268,1062,cs),
(1414,1916,ls),
(1394,1936,o),
(1364,1936,o),
(1342,1916,cs),
(1322,1894,o),
(1322,1864,o),
(1342,1844,cs),
(2112,1076,l),
(664,1076,ls),
(636,1076,o),
(612,1054,o),
(612,1026,cs),
(612,998,o),
(636,974,o),
(664,974,cs),
(2112,974,l),
(1342,208,ls),
(1322,186,o),
(1322,158,o),
(1342,136,cs)
);
}
);
width = 2896;
},
{
layerId = "5C20EF92-B63D-42A8-8878-93C2863E0093";
shapes = (
{
closed = 1;
nodes = (
(1320,-32,o),
(1438,-32,o),
(1510,42,cs),
(2362,896,ls),
(2436,966,o),
(2436,1084,o),
(2362,1154,cs),
(1510,2008,ls),
(1438,2082,o),
(1320,2082,o),
(1250,2008,cs),
(1176,1938,o),
(1176,1820,o),
(1250,1748,cs),
(1786,1212,l),
(664,1212,ls),
(562,1212,o),
(478,1128,o),
(478,1026,cs),
(478,924,o),
(562,840,o),
(664,840,cs),
(1786,840,l),
(1250,306,ls),
(1176,230,o),
(1176,114,o),
(1250,42,cs)
);
}
);
width = 2896;
}
);
metricWidth = symbolBase;
unicode = 1024032;
}
{
color = 11;
glyphname = iconArrowRight.medium;
layers = (
{
layerId = "CD0E3B44-F66A-4791-B84C-A1128DC61275";
metricWidth = "=baseSymbol.medium";
shapes = (
{
closed = 1;
nodes = (
(1680,-181,o),
(1762,-187,o),
(1816,-133,cs),
(2884,935,ls),
(2935,986,o),
(2932,1068,o),
(2884,1116,cs),
(1816,2184,ls),
(1765,2235,o),
(1683,2235,o),
(1632,2184,cs),
(1581,2133,o),
(1581,2051,o),
(1632,2000,cs),
(2474,1155,l),
(830,1155,ls),
(760,1155,o),
(700,1098,o),
(700,1026,cs),
(700,953,o),
(760,896,o),
(830,896,cs),
(2474,896,l),
(1632,51,ls),
(1581,0,o),
(1581,-81,o),
(1632,-133,cs)
);
}
);
userData = {
RMXScaler = {
height = 125;
verticalShift = -85;
width = 125;
};
};
width = 3620;
},
{
layerId = "B1F27B51-9973-4381-9301-4FE46FE1CA59";
metricWidth = "=baseSymbol.medium";
shapes = (
{
closed = 1;
nodes = (
(1701,-107,o),
(1738,-110,o),
(1764,-83,cs),
(2832,984,ls),
(2855,1008,o),
(2855,1043,o),
(2832,1067,cs),
(1764,2135,ls),
(1737,2161,o),
(1701,2158,o),
(1678,2135,cs),
(1651,2109,o),
(1654,2072,o),
(1678,2049,cs),
(2642,1088,l),
(830,1088,ls),
(795,1088,o),
(767,1060,o),
(767,1026,cs),
(767,991,o),
(795,963,o),
(830,963,cs),
(2642,963,l),
(1678,2,ls),
(1655,-21,o),
(1651,-56,o),
(1678,-83,cs)
);
}
);
userData = {
RMXScaler = {
height = 125;
verticalShift = -85;
width = 125;
};
};
width = 3620;
},
{
layerId = "5C20EF92-B63D-42A8-8878-93C2863E0093";
metricWidth = "=baseSymbol.medium";
shapes = (
{
closed = 1;
nodes = (
(1658,-261,o),
(1784,-267,o),
(1867,-184,cs),
(2932,884,ls),
(3019,970,o),
(3004,1097,o),
(2932,1167,cs),
(1867,2235,ls),
(1787,2316,o),
(1661,2316,o),
(1581,2235,cs),
(1494,2149,o),
(1510,2019,o),
(1581,1949,cs),
(2297,1229,l),
(830,1229,ls),
(719,1229,o),
(626,1136,o),
(626,1026,cs),
(626,915,o),
(719,823,o),
(830,823,cs),
(2297,823,l),
(1581,103,ls),
(1500,22,o),
(1503,-108,o),
(1581,-184,cs)
);
}
);
userData = {
RMXScaler = {
height = 125;
verticalShift = -85;
width = 125;
};
};
width = 3620;
}
);
unicode = 1024032;
userData = {
RMXScaler = {
source = iconArrowRight.small;
};
};
}
{
color = 11;
glyphname = iconArrowUp;
layers = (
{
layerId = "CD0E3B44-F66A-4791-B84C-A1128DC61275";
shapes = (
{
closed = 1;
nodes = (
(1514,121,o),
(1569,175,o),
(1569,241,cs),
(1569,1517,l),
(2217,872,ls),
(2263,824,o),
(2341,824,o),
(2386,872,cs),
(2434,917,o),
(2434,996,o),
(2386,1041,cs),
(1532,1894,ls),
(1487,1943,o),
(1409,1943,o),
(1364,1894,cs),
(510,1041,ls),
(462,996,o),
(462,917,o),
(510,872,cs),
(558,824,o),
(634,824,o),
(679,872,cs),
(1327,1517,l),
(1327,241,ls),
(1327,175,o),
(1382,121,o),
(1448,121,cs)
);
}
);
width = 2896;
},
{
layerId = "B1F27B51-9973-4381-9301-4FE46FE1CA59";
shapes = (
{
closed = 1;
nodes = (
(1476,190,o),
(1498,214,o),
(1498,242,cs),
(1498,1688,l),
(2266,920,ls),
(2288,900,o),
(2316,900,o),
(2338,920,cs),
(2358,942,o),
(2358,970,o),
(2338,992,cs),
(1484,1846,ls),
(1462,1866,o),
(1434,1866,o),
(1412,1846,cs),
(558,992,ls),
(538,970,o),
(538,942,o),
(558,920,cs),
(578,900,o),
(612,900,o),
(630,920,cs),
(1398,1688,l),
(1398,242,ls),
(1398,214,o),
(1420,190,o),
(1448,190,cs)
);
}
);
width = 2896;
},
{
layerId = "5C20EF92-B63D-42A8-8878-93C2863E0093";
shapes = (
{
closed = 1;
nodes = (
(1550,56,o),
(1634,140,o),
(1634,242,cs),
(1634,1364,l),
(2170,828,ls),
(2242,752,o),
(2360,752,o),
(2430,828,cs),
(2506,898,o),
(2506,1016,o),
(2430,1088,cs),
(1578,1940,ls),
(1506,2014,o),
(1390,2014,o),
(1318,1940,cs),
(466,1088,ls),
(390,1016,o),
(390,898,o),
(466,828,cs),
(536,752,o),
(654,752,o),
(726,828,cs),
(1262,1364,l),
(1262,242,ls),
(1262,140,o),
(1346,56,o),
(1448,56,cs)
);
}
);
width = 2896;
}
);
metricWidth = symbolBase;
unicode = 1024033;
}
{
color = 11;
glyphname = iconArrowUp.medium;
layers = (
{
layerId = "CD0E3B44-F66A-4791-B84C-A1128DC61275";
metricWidth = "=symbolBase.medium";
shapes = (
{
closed = 1;
nodes = (
(1879,-84,o),
(1940,-27,o),
(1940,45,cs),
(1940,1689,l),
(2784,848,ls),
(2839,793,o),
(2923,799,o),
(2971,848,cs),
(3026,905,o),
(3014,986,o),
(2968,1032,cs),
(1901,2097,ls),
(1849,2148,o),
(1771,2148,o),
(1720,2097,cs),
(652,1032,ls),
(603,983,o),
(597,899,o),
(652,848,cs),
(712,790,o),
(790,802,o),
(836,848,cs),
(1680,1689,l),
(1680,45,ls),
(1680,-27,o),
(1741,-84,o),
(1810,-84,cs)
);
}
);
userData = {
RMXScaler = {
height = 125;
verticalShift = -85;
width = 125;
};
};
width = 3620;
},
{
layerId = "B1F27B51-9973-4381-9301-4FE46FE1CA59";
metricWidth = "=symbolBase.medium";
shapes = (
{
closed = 1;
nodes = (
(1844,-17,o),
(1872,11,o),
(1872,45,cs),
(1872,1861,l),
(2837,897,ls),
(2863,871,o),
(2899,874,o),
(2922,897,cs),
(2948,923,o),
(2942,959,o),
(2919,982,cs),
(1854,2047,ls),
(1828,2074,o),
(1792,2071,o),
(1769,2047,cs),
(701,982,ls),
(674,955,o),
(678,920,o),
(701,897,cs),
(723,875,o),
(762,873,o),
(786,897,cs),
(1751,1861,l),
(1751,45,ls),
(1751,11,o),
(1780,-17,o),
(1810,-17,cs)
);
}
);
userData = {
RMXScaler = {
height = 125;
verticalShift = -85;
width = 125;
};
};
width = 3620;
},
{
layerId = "5C20EF92-B63D-42A8-8878-93C2863E0093";
metricWidth = "=symbolBase.medium";
shapes = (
{
closed = 1;
nodes = (
(1922,-158,o),
(2013,-65,o),
(2013,45,cs),
(2013,1512,l),
(2733,796,ls),
(2813,716,o),
(2942,719,o),
(3020,796,cs),
(3096,873,o),
(3103,1000,o),
(3020,1083,cs),
(1952,2148,ls),
(1865,2234,o),
(1739,2218,o),
(1668,2148,cs),
(600,1083,ls),
(520,1003,o),
(520,877,o),
(600,796,cs),
(680,716,o),
(806,716,o),
(887,796,cs),
(1606,1512,l),
(1606,45,ls),
(1606,-65,o),
(1698,-158,o),
(1810,-158,cs)
);
}
);
userData = {
RMXScaler = {
height = 125;
verticalShift = -85;
width = 125;
};
};
width = 3620;
}
);
unicode = 1024033;
userData = {
RMXScaler = {
source = iconArrowUp.small;
};
};
}
{
color = 11;
glyphname = iconCheck;
layers = (
{
layerId = "CD0E3B44-F66A-4791-B84C-A1128DC61275";
shapes = (
{
closed = 1;
nodes = (
(1183,202,o),
(1213,217,o),
(1234,241,cs),
(2440,1548,ls),
(2486,1596,o),
(2483,1671,o),
(2434,1716,cs),
(2386,1762,o),
(2311,1759,o),
(2266,1710,cs),
(1143,495,l),
(627,1011,ls),
(582,1059,o),
(504,1059,o),
(459,1011,cs),
(410,962,o),
(410,887,o),
(459,839,cs),
(1062,235,ls),
(1083,214,o),
(1116,199,o),
(1149,202,cs)
);
}
);
width = 2896;
},
{
layerId = "B1F27B51-9973-4381-9301-4FE46FE1CA59";
shapes = (
{
closed = 1;
nodes = (
(1160,272,o),
(1174,276,o),
(1186,288,cs),
(2392,1594,ls),
(2412,1614,o),
(2408,1646,o),
(2388,1668,cs),
(2366,1684,o),
(2336,1684,o),
(2314,1664,cs),
(1144,396,l),
(578,962,ls),
(558,982,o),
(528,982,o),
(508,962,cs),
(488,942,o),
(488,908,o),
(508,892,cs),
(1110,288,ls),
(1122,276,o),
(1134,272,o),
(1146,272,cs)
);
}
);
width = 2896;
},
{
layerId = "5C20EF92-B63D-42A8-8878-93C2863E0093";
shapes = (
{
closed = 1;
nodes = (
(1202,138,o),
(1248,160,o),
(1282,196,cs),
(2490,1502,ls),
(2560,1580,o),
(2554,1696,o),
(2480,1766,cs),
(2402,1836,o),
(2286,1830,o),
(2216,1756,cs),
(1140,588,l),
(672,1056,ls),
(602,1130,o),
(484,1130,o),
(414,1056,cs),
(340,984,o),
(340,868,o),
(414,794,cs),
(1018,190,ls),
(1050,156,o),
(1100,134,o),
(1150,138,cs)
);
}
);
width = 2896;
}
);
metricWidth = symbolBase;
unicode = 1024034;
}
{
color = 11;
glyphname = iconCheck.medium;
layers = (
{
layerId = "CD0E3B44-F66A-4791-B84C-A1128DC61275";
metricWidth = "=symbolBase.medium";
shapes = (
{
closed = 1;
nodes = (
(1466,15,o),
(1502,27,o),
(1529,57,cs),
(3038,1692,ls),
(3086,1744,o),
(3083,1828,o),
(3029,1876,cs),
(2968,1931,o),
(2890,1913,o),
(2848,1867,cs),
(1430,335,l),
(772,992,ls),
(721,1044,o),
(640,1044,o),
(588,992,cs),
(537,941,o),
(534,860,o),
(588,805,cs),
(1342,51,ls),
(1367,27,o),
(1403,15,o),
(1436,15,cs)
);
}
);
userData = {
RMXScaler = {
height = 125;
verticalShift = -85;
width = 125;
};
};
width = 3620;
},
{
layerId = "B1F27B51-9973-4381-9301-4FE46FE1CA59";
metricWidth = "=symbolBase.medium";
shapes = (
{
closed = 1;
nodes = (
(1458,85,o),
(1470,93,o),
(1480,104,cs),
(2989,1735,ls),
(3012,1761,o),
(3013,1803,o),
(2984,1827,cs),
(2954,1850,o),
(2918,1848,o),
(2897,1825,cs),
(1430,236,l),
(723,943,ls),
(697,969,o),
(661,966,o),
(637,943,cs),
(614,920,o),
(614,881,o),
(637,858,cs),
(1392,104,ls),
(1405,90,o),
(1421,85,o),
(1433,85,cs)
);
}
);
userData = {
RMXScaler = {
height = 125;
verticalShift = -85;
width = 125;
};
};
width = 3620;
},
{
layerId = "5C20EF92-B63D-42A8-8878-93C2863E0093";
metricWidth = "=symbolBase.medium";
shapes = (
{
closed = 1;
nodes = (
(1494,-55,o),
(1544,-31,o),
(1581,9,cs),
(3089,1641,ls),
(3173,1731,o),
(3156,1863,o),
(3074,1934,cs),
(2991,2005,o),
(2868,1999,o),
(2793,1919,cs),
(1427,437,l),
(821,1044,ls),
(740,1124,o),
(613,1121,o),
(537,1044,cs),
(457,963,o),
(454,838,o),
(537,754,cs),
(1291,0,ls),
(1328,-37,o),
(1384,-55,o),
(1436,-55,cs)
);
}
);
userData = {
RMXScaler = {
height = 125;
verticalShift = -85;
width = 125;
};
};
width = 3620;
}
);
unicode = 1024034;
userData = {
RMXScaler = {
source = iconCheck.small;
};
};
}
{
color = 11;
glyphname = iconChevronDown;
layers = (
{
layerId = "B1F27B51-9973-4381-9301-4FE46FE1CA59";
shapes = (
{
closed = 1;
nodes = (
(1430,477,o),
(1466,477,o),
(1490,501,cs),
(2344,1354,ls),
(2368,1379,o),
(2368,1415,o),
(2344,1439,cs),
(2320,1463,o),
(2281,1463,o),
(2259,1439,cs),
(1448,627,l),
(637,1439,ls),
(612,1463,o),
(576,1463,o),
(552,1439,cs),
(528,1415,o),
(528,1379,o),
(552,1354,cs),
(1406,501,ls)
);
}
);
width = 2896;
},
{
layerId = "CD0E3B44-F66A-4791-B84C-A1128DC61275";
shapes = (
{
closed = 1;
nodes = (
(1409,410,o),
(1487,410,o),
(1532,459,cs),
(2386,1312,ls),
(2434,1358,o),
(2434,1436,o),
(2386,1481,cs),
(2338,1529,o),
(2263,1529,o),
(2217,1481,cs),
(1448,715,l),
(679,1481,ls),
(634,1529,o),
(555,1529,o),
(510,1481,cs),
(462,1436,o),
(462,1358,o),
(510,1312,cs),
(1364,459,ls)
);
}
);
width = 2896;
},
{
layerId = "5C20EF92-B63D-42A8-8878-93C2863E0093";
shapes = (
{
closed = 1;
nodes = (
(1391,344,o),
(1505,344,o),
(1575,416,cs),
(2428,1267,ls),
(2501,1339,o),
(2501,1454,o),
(2428,1523,cs),
(2359,1596,o),
(2244,1596,o),
(2172,1523,cs),
(1448,799,l),
(724,1523,ls),
(652,1596,o),
(537,1596,o),
(468,1523,cs),
(395,1454,o),
(395,1339,o),
(468,1267,cs),
(1321,416,ls)
);
}
);
width = 2896;
}
);
metricWidth = symbolBase;
unicode = 1024035;
}
{
color = 11;
glyphname = iconChevronLeft.medium;
layers = (
{
layerId = "CD0E3B44-F66A-4791-B84C-A1128DC61275";
metricWidth = "=symbolBase.medium";
shapes = (
{
closed = 1;
nodes = (
(2082,-181,o),
(2166,-187,o),
(2217,-133,cs),
(2269,-81,o),
(2263,3,o),
(2214,51,cs),
(1243,1026,l),
(2214,2000,ls),
(2263,2048,o),
(2269,2130,o),
(2217,2184,cs),
(2163,2241,o),
(2078,2229,o),
(2033,2184,cs),
(965,1116,ls),
(914,1065,o),
(917,983,o),
(965,935,cs),
(2033,-133,ls)
);
}
);
userData = {
RMXScaler = {
height = 125;
verticalShift = -85;
width = 125;
};
};
width = 3620;
},
{
layerId = "B1F27B51-9973-4381-9301-4FE46FE1CA59";
metricWidth = "=symbolBase.medium";
shapes = (
{
closed = 1;
nodes = (
(2110,-111,o),
(2145,-107,o),
(2168,-83,cs),
(2194,-57,o),
(2192,-21,o),
(2168,2,cs),
(1141,1026,l),
(2168,2049,ls),
(2192,2072,o),
(2191,2112,o),
(2168,2135,cs),
(2145,2158,o),
(2110,2162,o),
(2082,2135,cs),
(1015,1067,ls),
(991,1044,o),
(991,1008,o),
(1015,984,cs),
(2082,-83,ls)
);
}
);
userData = {
RMXScaler = {
height = 125;
verticalShift = -85;
width = 125;
};
};
width = 3620;
},
{
layerId = "5C20EF92-B63D-42A8-8878-93C2863E0093";
metricWidth = "=symbolBase.medium";
shapes = (
{
closed = 1;
nodes = (
(2062,-267,o),
(2192,-261,o),
(2269,-184,cs),
(2352,-98,o),
(2340,29,o),
(2266,103,cs),
(1345,1026,l),
(2266,1949,ls),
(2346,2029,o),
(2346,2155,o),
(2266,2235,cs),
(2188,2313,o),
(2062,2319,o),
(1979,2235,cs),
(914,1167,ls),
(834,1087,o),
(837,961,o),
(914,884,cs),
(1979,-184,ls)
);
}
);
userData = {
RMXScaler = {
height = 125;
verticalShift = -85;
width = 125;
};
};
width = 3620;
}
);
unicode = 1024036;
userData = {
RMXScaler = {
source = iconChevronLeft.small;
};
};
}
{
color = 11;
glyphname = iconChevronRight;
layers = (
{
layerId = "CD0E3B44-F66A-4791-B84C-A1128DC61275";
shapes = (
{
closed = 1;
nodes = (
(1038,39,o),
(1116,39,o),
(1161,87,cs),
(2015,941,ls),
(2063,986,o),
(2063,1065,o),
(2015,1110,cs),
(1161,1964,ls),
(1116,2012,o),
(1038,2012,o),
(992,1964,cs),
(944,1916,o),
(944,1840,o),
(992,1795,cs),
(1759,1026,l),
(992,256,ls),
(944,211,o),
(944,133,o),
(992,87,cs)
);
}
);
width = 2896;
},
{
layerId = "B1F27B51-9973-4381-9301-4FE46FE1CA59";
shapes = (
{
closed = 1;
nodes = (
(1062,116,o),
(1092,116,o),
(1112,136,cs),
(1966,990,ls),
(1986,1012,o),
(1986,1040,o),
(1966,1062,cs),
(1112,1916,ls),
(1092,1936,o),
(1062,1936,o),
(1042,1916,cs),
(1022,1894,o),
(1022,1860,o),
(1042,1844,cs),
(1860,1026,l),
(1042,208,ls),
(1022,186,o),
(1022,158,o),
(1042,136,cs)
);
}
);
width = 2896;
},
{
layerId = "5C20EF92-B63D-42A8-8878-93C2863E0093";
shapes = (
{
closed = 1;
nodes = (
(1018,-32,o),
(1136,-32,o),
(1210,42,cs),
(2060,896,ls),
(2134,966,o),
(2134,1084,o),
(2060,1154,cs),
(1210,2008,ls),
(1136,2082,o),
(1018,2082,o),
(948,2008,cs),
(874,1938,o),
(874,1820,o),
(948,1748,cs),
(1668,1026,l),
(948,306,ls),
(874,230,o),
(874,114,o),
(948,42,cs)
);
}
);
width = 2896;
}
);
metricWidth = symbolBase;
unicode = 1024037;
}
{
color = 11;
glyphname = iconChevronRight.medium;
layers = (
{
layerId = "CD0E3B44-F66A-4791-B84C-A1128DC61275";
metricWidth = "=baseSymbol.medium";
shapes = (
{
closed = 1;
nodes = (
(1306,-184,o),
(1388,-184,o),
(1439,-133,cs),
(2504,935,ls),
(2555,986,o),
(2555,1065,o),
(2504,1116,cs),
(1439,2184,ls),
(1391,2232,o),
(1306,2238,o),
(1255,2184,cs),
(1198,2124,o),
(1210,2045,o),
(1255,2000,cs),
(2229,1026,l),
(1255,51,ls),
(1204,0,o),
(1204,-81,o),
(1255,-133,cs)
);
}
);
userData = {
RMXScaler = {
height = 125;
verticalShift = -85;
width = 125;
};
};
width = 3620;
},
{
layerId = "B1F27B51-9973-4381-9301-4FE46FE1CA59";
metricWidth = "=baseSymbol.medium";
shapes = (
{
closed = 1;
nodes = (
(1327,-107,o),
(1364,-110,o),
(1390,-83,cs),
(2458,984,ls),
(2481,1008,o),
(2482,1044,o),
(2458,1067,cs),
(1390,2135,ls),
(1363,2162,o),
(1327,2158,o),
(1304,2135,cs),
(1281,2113,o),
(1280,2073,o),
(1304,2049,cs),
(2328,1026,l),
(1304,2,ls),
(1281,-21,o),
(1278,-57,o),
(1304,-83,cs)
);
}
);
userData = {
RMXScaler = {
height = 125;
verticalShift = -85;
width = 125;
};
};
width = 3620;
},
{
layerId = "5C20EF92-B63D-42A8-8878-93C2863E0093";
metricWidth = "=baseSymbol.medium";
shapes = (
{
closed = 1;
nodes = (
(1280,-261,o),
(1407,-267,o),
(1490,-184,cs),
(2555,884,ls),
(2636,964,o),
(2633,1091,o),
(2555,1167,cs),
(1490,2235,ls),
(1410,2316,o),
(1284,2316,o),
(1204,2235,cs),
(1123,2156,o),
(1123,2029,o),
(1204,1949,cs),
(2124,1026,l),
(1204,103,ls),
(1123,22,o),
(1123,-104,o),
(1204,-184,cs)
);
}
);
userData = {
RMXScaler = {
height = 125;
verticalShift = -85;
width = 125;
};
};
width = 3620;
}
);
unicode = 1024037;
userData = {
RMXScaler = {
source = iconChevronRight.small;
};
};
}
{
color = 11;
glyphname = iconChevronUp;
layers = (
{
layerId = "CD0E3B44-F66A-4791-B84C-A1128DC61275";
shapes = (
{
closed = 1;
nodes = (
(558,522,o),
(634,522,o),
(679,570,cs),
(1448,1336,l),
(2217,570,ls),
(2263,522,o),
(2341,522,o),
(2386,570,cs),
(2434,615,o),
(2434,694,o),
(2386,739,cs),
(1532,1593,ls),
(1487,1641,o),
(1409,1641,o),
(1364,1593,cs),
(510,739,ls),
(462,694,o),
(462,615,o),
(510,570,cs)
);
}
);
width = 2896;
},
{
layerId = "B1F27B51-9973-4381-9301-4FE46FE1CA59";
shapes = (
{
closed = 1;
nodes = (
(578,598,o),
(612,598,o),
(630,618,cs),
(1448,1438,l),
(2266,618,ls),
(2288,598,o),
(2316,598,o),
(2338,618,cs),
(2358,640,o),
(2358,670,o),
(2338,690,cs),
(1484,1544,ls),
(1462,1564,o),
(1434,1564,o),
(1412,1544,cs),
(558,690,ls),
(538,670,o),
(538,640,o),
(558,618,cs)
);
}
);
width = 2896;
},
{
layerId = "5C20EF92-B63D-42A8-8878-93C2863E0093";
shapes = (
{
closed = 1;
nodes = (
(536,452,o),
(654,452,o),
(726,526,cs),
(1448,1246,l),
(2170,526,ls),
(2242,452,o),
(2360,452,o),
(2430,526,cs),
(2506,596,o),
(2506,714,o),
(2430,786,cs),
(1578,1638,ls),
(1506,1712,o),
(1390,1712,o),
(1318,1638,cs),
(466,786,ls),
(390,714,o),
(390,596,o),
(466,526,cs)
);
}
);
width = 2896;
}
);
metricWidth = symbolBase;
unicode = 1024038;
}
{
color = 11;
glyphname = iconChevronUp.medium;
layers = (
{
layerId = "CD0E3B44-F66A-4791-B84C-A1128DC61275";
metricWidth = "=baseSymbol.medium";
shapes = (
{
closed = 1;
nodes = (
(712,413,o),
(790,425,o),
(836,471,cs),
(1810,1442,l),
(2784,471,ls),
(2839,416,o),
(2923,422,o),
(2971,471,cs),
(3026,528,o),
(3014,609,o),
(2968,655,cs),
(1901,1720,ls),
(1849,1771,o),
(1771,1771,o),
(1720,1720,cs),
(652,655,ls),
(603,606,o),
(597,522,o),
(652,471,cs)
);
}
);
userData = {
RMXScaler = {
height = 125;
verticalShift = -85;
width = 125;
};
};
width = 3620;
},
{
layerId = "B1F27B51-9973-4381-9301-4FE46FE1CA59";
metricWidth = "=baseSymbol.medium";
shapes = (
{
closed = 1;
nodes = (
(723,498,o),
(762,496,o),
(786,520,cs),
(1810,1543,l),
(2837,520,ls),
(2863,494,o),
(2899,497,o),
(2922,520,cs),
(2948,546,o),
(2942,582,o),
(2919,605,cs),
(1854,1670,ls),
(1828,1696,o),
(1792,1693,o),
(1769,1670,cs),
(701,605,ls),
(674,578,o),
(678,543,o),
(701,520,cs)
);
}
);
userData = {
RMXScaler = {
height = 125;
verticalShift = -85;
width = 125;
};
};
width = 3620;
},
{
layerId = "5C20EF92-B63D-42A8-8878-93C2863E0093";
metricWidth = "=baseSymbol.medium";
shapes = (
{
closed = 1;
nodes = (
(680,339,o),
(806,339,o),
(887,419,cs),
(1810,1339,l),
(2733,419,ls),
(2813,339,o),
(2942,342,o),
(3020,419,cs),
(3096,496,o),
(3103,622,o),
(3020,706,cs),
(1952,1771,ls),
(1865,1857,o),
(1739,1841,o),
(1668,1771,cs),
(600,706,ls),
(520,625,o),
(520,500,o),
(600,419,cs)
);
}
);
userData = {
RMXScaler = {
height = 125;
verticalShift = -85;
width = 125;
};
};
width = 3620;
}
);
unicode = 1024038;
userData = {
RMXScaler = {
source = iconChevronUp.small;
};
};
}
{
color = 11;
glyphname = iconCircleCheck;
layers = (
{
layerId = "CD0E3B44-F66A-4791-B84C-A1128DC61275";
shapes = (
{
closed = 1;
nodes = (
(2114,-182,o),
(2654,356,o),
(2654,1024,cs),
(2654,1690,o),
(2114,2230,o),
(1448,2230,cs),
(782,2230,o),
(242,1690,o),
(242,1024,cs),
(244,356,o),
(782,-182,o),
(1448,-182,cs)
);
},
{
closed = 1;
nodes = (
(914,58,o),
(482,490,o),
(482,1024,cs),
(482,1558,o),
(914,1990,o),
(1448,1990,cs),
(1982,1990,o),
(2414,1558,o),
(2414,1024,cs),
(2414,490,o),
(1982,58,o),
(1448,58,cs)
);
},
{
closed = 1;
nodes = (
(1228,471,o),
(1306,471,o),
(1351,519,cs),
(2075,1243,ls),
(2124,1288,o),
(2124,1367,o),
(2075,1412,cs),
(2030,1460,o),
(1952,1460,o),
(1907,1412,cs),
(1267,775,l),
(989,1050,ls),
(944,1098,o),
(866,1098,o),
(821,1050,cs),
(772,1005,o),
(772,926,o),
(821,881,cs),
(1183,519,ls)
);
}
);
width = 2896;
},
{
layerId = "B1F27B51-9973-4381-9301-4FE46FE1CA59";
shapes = (
{
closed = 1;
nodes = (
(2114,-182,o),
(2654,356,o),
(2654,1024,cs),
(2654,1690,o),
(2114,2230,o),
(1448,2230,cs),
(782,2230,o),
(242,1690,o),
(242,1024,cs),
(244,356,o),
(782,-182,o),
(1448,-182,cs)
);
},
{
closed = 1;
nodes = (
(840,-80,o),
(344,414,o),
(344,1024,cs),
(344,1632,o),
(840,2128,o),
(1448,2128,cs),
(2058,2128,o),
(2552,1632,o),
(2552,1024,cs),
(2552,414,o),
(2058,-80,o),
(1448,-80,cs)
);
},
{
closed = 1;
nodes = (
(1250,546,o),
(1280,546,o),
(1300,566,cs),
(2028,1294,ls),
(2048,1314,o),
(2048,1344,o),
(2028,1366,cs),
(2008,1386,o),
(1978,1386,o),
(1958,1366,cs),
(1264,672,l),
(938,1000,ls),
(918,1020,o),
(888,1020,o),
(868,1000,cs),
(848,978,o),
(848,948,o),
(868,928,cs),
(1230,566,ls)
);
}
);
width = 2896;
},
{
layerId = "5C20EF92-B63D-42A8-8878-93C2863E0093";
shapes = (
{
closed = 1;
nodes = (
(2114,-182,o),
(2654,358,o),
(2654,1024,cs),
(2654,1690,o),
(2114,2230,o),
(1448,2230,cs),
(782,2230,o),
(242,1690,o),
(242,1024,cs),
(242,358,o),
(782,-182,o),
(1448,-182,cs)
);
},
{
closed = 1;
nodes = (
(984,186,o),
(610,560,o),
(610,1024,cs),
(612,1488,o),
(984,1862,o),
(1448,1862,cs),
(1912,1862,o),
(2286,1488,o),
(2286,1024,cs),
(2286,560,o),
(1912,186,o),
(1448,186,cs)
);
},
{
closed = 1;
nodes = (
(1272,464,o),
(1390,464,o),
(1460,538,cs),
(2056,1134,ls),
(2132,1206,o),
(2132,1322,o),
(2056,1394,cs),
(1986,1468,o),
(1868,1468,o),
(1798,1394,cs),
(1330,928,l),
(1098,1158,ls),
(1028,1232,o),
(910,1232,o),
(840,1158,cs),
(764,1088,o),
(764,970,o),
(840,900,cs),
(1202,538,ls)
);
}
);
width = 2896;
}
);
metricWidth = symbolBase;
unicode = 1024039;
}
{
color = 11;
glyphname = iconCircleCheck.medium;
layers = (
{
layerId = "CD0E3B44-F66A-4791-B84C-A1128DC61275";
metricWidth = "=symbolBase.medium";
shapes = (
{
closed = 1;
nodes = (
(2643,-483,o),
(3318,193,o),
(3318,1026,cs),
(3318,1858,o),
(2643,2534,o),
(1810,2534,cs),
(977,2534,o),
(302,1858,o),
(302,1026,cs),
(302,193,o),
(977,-483,o),
(1810,-483,cs)
);
},
{
closed = 1;
nodes = (
(1122,-220,o),
(564,338,o),
(564,1026,cs),
(564,1713,o),
(1122,2272,o),
(1810,2272,cs),
(2498,2272,o),
(3056,1713,o),
(3056,1026,cs),
(3056,338,o),
(2498,-220,o),
(1810,-220,cs)
);
},
{
closed = 1;
nodes = (
(1545,356,o),
(1623,356,o),
(1674,407,cs),
(2579,1312,ls),
(2628,1361,o),
(2634,1442,o),
(2582,1493,cs),
(2528,1551,o),
(2444,1539,o),
(2398,1493,cs),
(1584,685,l),
(1222,1041,ls),
(1173,1089,o),
(1089,1095,o),
(1038,1041,cs),
(983,983,o),
(999,902,o),
(1041,860,cs),
(1493,407,ls)
);
}
);
userData = {
RMXScaler = {
height = 125;
verticalShift = -85;
width = 125;
};
};
width = 3620;
},
{
layerId = "B1F27B51-9973-4381-9301-4FE46FE1CA59";
metricWidth = "=symbolBase.medium";
shapes = (
{
closed = 1;
nodes = (
(2643,-483,o),
(3318,193,o),
(3318,1026,cs),
(3318,1858,o),
(2643,2534,o),
(1810,2534,cs),
(977,2534,o),
(302,1858,o),
(302,1026,cs),
(302,193,o),
(977,-483,o),
(1810,-483,cs)
);
},
{
closed = 1;
nodes = (
(1045,-361,o),
(423,261,o),
(423,1026,cs),
(423,1791,o),
(1045,2412,o),
(1810,2412,cs),
(2575,2412,o),
(3197,1791,o),
(3197,1026,cs),
(3197,261,o),
(2575,-361,o),
(1810,-361,cs)
);
},
{
closed = 1;
nodes = (
(1561,428,o),
(1597,425,o),
(1623,451,cs),
(2535,1363,ls),
(2558,1387,o),
(2561,1423,o),
(2535,1449,cs),
(2512,1471,o),
(2477,1476,o),
(2449,1449,cs),
(1582,581,l),
(1171,990,ls),
(1144,1017,o),
(1109,1013,o),
(1085,990,cs),
(1059,963,o),
(1061,928,o),
(1085,904,cs),
(1537,451,ls)
);
}
);
userData = {
RMXScaler = {
height = 125;
verticalShift = -85;
width = 125;
};
};
width = 3620;
},
{
layerId = "5C20EF92-B63D-42A8-8878-93C2863E0093";
metricWidth = "=symbolBase.medium";
shapes = (
{
closed = 1;
nodes = (
(2643,-483,o),
(3318,193,o),
(3318,1026,cs),
(3318,1858,o),
(2643,2534,o),
(1810,2534,cs),
(977,2534,o),
(302,1858,o),
(302,1026,cs),
(302,193,o),
(977,-483,o),
(1810,-483,cs)
);
},
{
closed = 1;
nodes = (
(1200,-75,o),
(709,415,o),
(709,1026,cs),
(709,1636,o),
(1200,2127,o),
(1810,2127,cs),
(2420,2127,o),
(2911,1636,o),
(2911,1026,cs),
(2911,415,o),
(2420,-75,o),
(1810,-75,cs)
);
},
{
closed = 1;
nodes = (
(1570,330,o),
(1693,323,o),
(1777,406,cs),
(2580,1211,ls),
(2657,1287,o),
(2660,1414,o),
(2583,1494,cs),
(2500,1581,o),
(2367,1565,o),
(2297,1494,cs),
(1634,839,l),
(1323,1142,ls),
(1234,1230,o),
(1108,1214,o),
(1037,1142,cs),
(957,1063,o),
(965,933,o),
(1040,859,cs),
(1492,406,ls)
);
}
);
userData = {
RMXScaler = {
height = 125;
verticalShift = -85;
width = 125;
};
};
width = 3620;
}
);
unicode = 1024039;
userData = {
RMXScaler = {
source = iconCircleCheck.small;
};
};
}
{
color = 11;
glyphname = iconCircleCheckFill;
layers = (
{
layerId = "CD0E3B44-F66A-4791-B84C-A1128DC61275";
shapes = (
{
closed = 1;
nodes = (
(2114,-182,o),
(2654,358,o),
(2654,1024,cs),
(2654,1690,o),
(2114,2230,o),
(1448,2230,cs),
(782,2230,o),
(242,1690,o),
(242,1024,cs),
(242,358,o),
(782,-182,o),
(1448,-182,cs)
);
},
{
closed = 1;
nodes = (
(821,881,ls),
(772,926,o),
(772,1005,o),
(821,1050,cs),
(866,1098,o),
(944,1098,o),
(989,1050,cs),
(1267,775,l),
(1907,1412,ls),
(1952,1460,o),
(2030,1460,o),
(2075,1412,cs),
(2124,1367,o),
(2124,1288,o),
(2075,1243,cs),
(1351,519,ls),
(1306,471,o),
(1228,471,o),
(1183,519,cs)
);
}
);
width = 2896;
},
{
layerId = "B1F27B51-9973-4381-9301-4FE46FE1CA59";
shapes = (
{
closed = 1;
nodes = (
(2114,-182,o),
(2654,358,o),
(2654,1024,cs),
(2654,1690,o),
(2114,2230,o),
(1448,2230,cs),
(782,2230,o),
(242,1690,o),
(242,1024,cs),
(242,358,o),
(782,-182,o),
(1448,-182,cs)
);
},
{
closed = 1;
nodes = (
(870,930,ls),
(850,950,o),
(850,980,o),
(870,1002,cs),
(890,1022,o),
(920,1022,o),
(940,1002,cs),
(1268,674,l),
(1956,1364,ls),
(1976,1384,o),
(2006,1384,o),
(2026,1364,cs),
(2046,1342,o),
(2046,1312,o),
(2026,1292,cs),
(1302,568,ls),
(1282,548,o),
(1252,548,o),
(1232,568,cs)
);
}
);
width = 2896;
},
{
layerId = "5C20EF92-B63D-42A8-8878-93C2863E0093";
shapes = (
{
closed = 1;
nodes = (
(2114,-182,o),
(2654,358,o),
(2654,1024,cs),
(2654,1690,o),
(2114,2230,o),
(1448,2230,cs),
(782,2230,o),
(242,1690,o),
(242,1024,cs),
(242,358,o),
(782,-182,o),
(1448,-182,cs)
);
},
{
closed = 1;
nodes = (
(776,836,ls),
(702,906,o),
(702,1024,o),
(776,1094,cs),
(846,1168,o),
(964,1168,o),
(1034,1094,cs),
(1268,866,l),
(1862,1456,ls),
(1932,1530,o),
(2050,1530,o),
(2120,1456,cs),
(2194,1386,o),
(2194,1268,o),
(2120,1198,cs),
(1396,474,ls),
(1326,400,o),
(1208,400,o),
(1138,474,cs)
);
}
);
width = 2896;
}
);
metricWidth = symbolBase;
unicode = 1024040;
}
{
color = 11;
glyphname = iconClose;
layers = (
{
layerId = "B1F27B51-9973-4381-9301-4FE46FE1CA59";
shapes = (
{
closed = 1;
nodes = (
(646,175,o),
(682,175,o),
(706,199,cs),
(1448,941,l),
(2190,199,ls),
(2214,175,o),
(2250,175,o),
(2275,199,cs),
(2299,223,o),
(2299,259,o),
(2275,284,cs),
(1532,1026,l),
(2275,1768,ls),
(2299,1792,o),
(2299,1828,o),
(2275,1852,cs),
(2250,1876,o),
(2214,1876,o),
(2190,1852,cs),
(1448,1110,l),
(706,1852,ls),
(682,1876,o),
(646,1876,o),
(621,1852,cs),
(597,1828,o),
(597,1792,o),
(621,1768,cs),
(1364,1026,l),
(621,284,ls),
(597,259,o),
(597,223,o),
(621,199,cs)
);
}
);
width = 2896;
},
{
layerId = "CD0E3B44-F66A-4791-B84C-A1128DC61275";
shapes = (
{
closed = 1;
nodes = (
(624,109,o),
(703,109,o),
(748,157,cs),
(1448,854,l),
(2148,157,ls),
(2193,109,o),
(2272,109,o),
(2317,157,cs),
(2365,202,o),
(2365,281,o),
(2317,326,cs),
(1620,1026,l),
(2317,1726,ls),
(2365,1771,o),
(2365,1849,o),
(2317,1894,cs),
(2272,1943,o),
(2193,1943,o),
(2148,1894,cs),
(1448,1198,l),
(748,1894,ls),
(703,1943,o),
(624,1943,o),
(579,1894,cs),
(531,1849,o),
(531,1771,o),
(579,1726,cs),
(1276,1026,l),
(579,326,ls),
(531,281,o),
(531,202,o),
(579,157,cs)
);
}
);
width = 2896;
},
{
layerId = "5C20EF92-B63D-42A8-8878-93C2863E0093";
shapes = (
{
closed = 1;
nodes = (
(606,42,o),
(721,42,o),
(790,115,cs),
(1448,769,l),
(2106,115,ls),
(2175,42,o),
(2290,42,o),
(2359,115,cs),
(2431,184,o),
(2431,299,o),
(2359,368,cs),
(1704,1026,l),
(2359,1683,ls),
(2431,1753,o),
(2431,1867,o),
(2359,1937,cs),
(2290,2009,o),
(2175,2009,o),
(2106,1937,cs),
(1448,1282,l),
(790,1937,ls),
(721,2009,o),
(606,2009,o),
(537,1937,cs),
(465,1867,o),
(465,1753,o),
(537,1683,cs),
(1192,1026,l),
(537,368,ls),
(465,299,o),
(465,184,o),
(537,115,cs)
);
}
);
width = 2896;
}
);
metricWidth = symbolBase;
unicode = 1024041;
}
{
color = 11;
glyphname = iconClose.medium;
layers = (
{
layerId = "CD0E3B44-F66A-4791-B84C-A1128DC61275";
metricWidth = "=symbolBase.medium";
shapes = (
{
closed = 1;
nodes = (
(790,-100,o),
(875,-94,o),
(923,-45,cs),
(1810,839,l),
(2700,-45,ls),
(2748,-94,o),
(2833,-100,o),
(2884,-45,cs),
(2935,6,o),
(2932,87,o),
(2884,136,cs),
(1997,1026,l),
(2884,1916,ls),
(2932,1964,o),
(2935,2045,o),
(2884,2097,cs),
(2836,2145,o),
(2754,2151,o),
(2700,2097,cs),
(1810,1213,l),
(923,2097,ls),
(875,2145,o),
(793,2151,o),
(739,2100,cs),
(691,2051,o),
(685,1970,o),
(739,1916,cs),
(1626,1026,l),
(739,136,ls),
(691,87,o),
(688,3,o),
(739,-48,cs)
);
}
);
userData = {
RMXScaler = {
height = 125;
verticalShift = -85;
width = 125;
};
};
width = 3620;
},
{
layerId = "B1F27B51-9973-4381-9301-4FE46FE1CA59";
metricWidth = "=symbolBase.medium";
shapes = (
{
closed = 1;
nodes = (
(811,-19,o),
(847,-23,o),
(874,4,cs),
(1810,940,l),
(2749,4,ls),
(2776,-23,o),
(2812,-19,o),
(2835,4,cs),
(2858,27,o),
(2859,62,o),
(2835,87,cs),
(1896,1026,l),
(2835,1965,ls),
(2859,1988,o),
(2858,2024,o),
(2835,2047,cs),
(2812,2072,o),
(2775,2074,o),
(2749,2047,cs),
(1810,1111,l),
(874,2047,ls),
(847,2075,o),
(811,2071,o),
(788,2047,cs),
(765,2023,o),
(765,1988,o),
(788,1965,cs),
(1727,1026,l),
(788,87,ls),
(765,63,o),
(765,27,o),
(788,4,cs)
);
}
);
userData = {
RMXScaler = {
height = 125;
verticalShift = -85;
width = 125;
};
};
width = 3620;
},
{
layerId = "5C20EF92-B63D-42A8-8878-93C2863E0093";
metricWidth = "=symbolBase.medium";
shapes = (
{
closed = 1;
nodes = (
(764,-174,o),
(891,-177,o),
(971,-97,cs),
(1810,736,l),
(2649,-97,ls),
(2726,-174,o),
(2855,-180,o),
(2935,-97,cs),
(3019,-10,o),
(3003,117,o),
(2932,187,cs),
(2100,1026,l),
(2932,1864,ls),
(3010,1942,o),
(3013,2067,o),
(2935,2148,cs),
(2862,2222,o),
(2735,2234,o),
(2649,2148,cs),
(1810,1315,l),
(971,2148,ls),
(891,2228,o),
(764,2225,o),
(688,2148,cs),
(610,2070,o),
(607,1945,o),
(688,1864,cs),
(1523,1026,l),
(688,187,ls),
(607,107,o),
(610,-19,o),
(688,-97,cs)
);
}
);
userData = {
RMXScaler = {
height = 125;
verticalShift = -85;
width = 125;
};
};
width = 3620;
}
);
unicode = 1024041;
userData = {
RMXScaler = {
source = iconClose.small;
};
};
}
{
color = 11;
glyphname = iconCopy.medium;
layers = (
{
layerId = "CD0E3B44-F66A-4791-B84C-A1128DC61275";
metricWidth = "=symbolBase.medium";
shapes = (
{
closed = 1;
nodes = (
(2676,-350,ls),
(2748,-350,o),
(2809,-290,o),
(2809,-220,cs),
(2809,1894,ls),
(2809,1964,o),
(2748,2024,o),
(2676,2024,cs),
(564,2024,ls),
(495,2024,o),
(434,1964,o),
(434,1894,cs),
(434,-220,ls),
(434,-290,o),
(495,-350,o),
(564,-350,cs)
);
},
{
closed = 1;
nodes = (
(697,1762,l),
(2546,1762,l),
(2546,-87,l),
(697,-87,l)
);
},
{
closed = 1;
nodes = (
(3201,404,o),
(3261,465,o),
(3261,537,cs),
(3261,2347,ls),
(3261,2416,o),
(3201,2477,o),
(3128,2477,cs),
(1318,2477,ls),
(1246,2477,o),
(1189,2416,o),
(1189,2347,cs),
(1189,2275,o),
(1246,2214,o),
(1318,2214,cs),
(2999,2214,l),
(2999,537,ls),
(2999,465,o),
(3056,404,o),
(3128,404,cs)
);
}
);
userData = {
RMXScaler = {
height = 125;
verticalShift = -85;
width = 125;
};
};
width = 3620;
},
{
layerId = "B1F27B51-9973-4381-9301-4FE46FE1CA59";
metricWidth = "=symbolBase.medium";
shapes = (
{
closed = 1;
nodes = (
(2683,-280,ls),
(2716,-280,o),
(2745,-250,o),
(2745,-220,cs),
(2745,1897,ls),
(2745,1932,o),
(2716,1961,o),
(2683,1961,cs),
(567,1961,ls),
(533,1961,o),
(505,1932,o),
(505,1897,cs),
(505,-220,ls),
(505,-250,o),
(533,-280,o),
(567,-280,cs)
);
},
{
closed = 1;
nodes = (
(627,1839,l),
(2623,1839,l),
(2623,-158,l),
(627,-158,l)
);
},
{
closed = 1;
nodes = (
(3163,475,o),
(3191,500,o),
(3191,537,cs),
(3191,2347,ls),
(3191,2377,o),
(3163,2406,o),
(3131,2406,cs),
(1321,2406,ls),
(1288,2406,o),
(1259,2381,o),
(1259,2347,cs),
(1259,2310,o),
(1288,2285,o),
(1321,2285,cs),
(3069,2285,l),
(3069,537,ls),
(3069,500,o),
(3098,475,o),
(3131,475,cs)
);
}
);
userData = {
RMXScaler = {
height = 125;
verticalShift = -85;
width = 125;
};
};
width = 3620;
},
{
layerId = "5C20EF92-B63D-42A8-8878-93C2863E0093";
metricWidth = "=symbolBase.medium";
shapes = (
{
closed = 1;
nodes = (
(2577,-423,ls),
(2689,-423,o),
(2781,-332,o),
(2781,-220,cs),
(2781,1793,ls),
(2781,1905,o),
(2689,1997,o),
(2577,1997,cs),
(567,1997,ls),
(457,1997,o),
(364,1905,o),
(364,1793,cs),
(364,-220,ls),
(364,-332,o),
(457,-423,o),
(567,-423,cs)
);
},
{
closed = 1;
nodes = (
(770,1590,l),
(2374,1590,l),
(2374,-17,l),
(770,-17,l)
);
},
{
closed = 1;
nodes = (
(3243,334,o),
(3334,422,o),
(3334,537,cs),
(3334,2347,ls),
(3334,2459,o),
(3243,2551,o),
(3131,2551,cs),
(1321,2551,ls),
(1211,2551,o),
(1118,2459,o),
(1118,2347,cs),
(1118,2232,o),
(1211,2144,o),
(1321,2144,cs),
(2928,2144,l),
(2928,537,ls),
(2928,422,o),
(3021,334,o),
(3131,334,cs)
);
}
);
userData = {
RMXScaler = {
height = 125;
verticalShift = -85;
width = 125;
};
};
width = 3620;
}
);
unicode = 1024042;
userData = {
RMXScaler = {
source = iconCopy.small;
};
};
}
{
color = 11;
glyphname = iconDivider.medium;
layers = (
{
layerId = "CD0E3B44-F66A-4791-B84C-A1128DC61275";
metricWidth = "=baseSymbol.medium";
shapes = (
{
closed = 1;
nodes = (
(1843,-247,o),
(1873,-217,o),
(1873,-181,cs),
(1873,2232,ls),
(1873,2269,o),
(1843,2299,o),
(1810,2299,cs),
(1774,2299,o),
(1744,2269,o),
(1744,2232,cs),
(1744,-181,ls),
(1744,-217,o),
(1774,-247,o),
(1810,-247,cs)
);
}
);
userData = {
RMXScaler = {
height = 125;
verticalShift = -85;
width = 125;
};
};
width = 3620;
},
{
layerId = "B1F27B51-9973-4381-9301-4FE46FE1CA59";
metricWidth = "=baseSymbol.medium";
shapes = (
{
closed = 1;
nodes = (
(1825,-211,o),
(1837,-199,o),
(1837,-181,cs),
(1837,2232,ls),
(1837,2250,o),
(1825,2263,o),
(1810,2263,cs),
(1792,2263,o),
(1780,2250,o),
(1780,2232,cs),
(1780,-181,ls),
(1780,-199,o),
(1792,-211,o),
(1810,-211,cs)
);
}
);
userData = {
RMXScaler = {
height = 125;
verticalShift = -85;
width = 125;
};
};
width = 3620;
},
{
layerId = "5C20EF92-B63D-42A8-8878-93C2863E0093";
metricWidth = "=baseSymbol.medium";
shapes = (
{
closed = 1;
nodes = (
(1881,-308,o),
(1938,-252,o),
(1938,-181,cs),
(1938,2232,ls),
(1938,2304,o),
(1881,2359,o),
(1810,2359,cs),
(1739,2359,o),
(1683,2304,o),
(1683,2232,cs),
(1683,-181,ls),
(1683,-252,o),
(1739,-308,o),
(1810,-308,cs)
);
}
);
userData = {
RMXScaler = {
height = 125;
verticalShift = -85;
width = 125;
};
};
width = 3620;
}
);
unicode = 1024043;
userData = {
RMXScaler = {
source = iconDivider.small;
};
};
}
{
color = 11;
glyphname = iconDot2;
layers = (
{
layerId = "B1F27B51-9973-4381-9301-4FE46FE1CA59";
shapes = (
{
closed = 1;
nodes = (
(568,180,o),
(640,252,o),
(640,340,cs),
(640,428,o),
(568,500,o),
(480,500,cs),
(392,500,o),
(320,428,o),
(320,340,cs),
(320,252,o),
(392,180,o),
(480,180,cs)
);
}
);
width = 960;
},
{
layerId = "CD0E3B44-F66A-4791-B84C-A1128DC61275";
shapes = (
{
closed = 1;
nodes = (
(568,180,o),
(640,252,o),
(640,340,cs),
(640,428,o),
(568,500,o),
(480,500,cs),
(392,500,o),
(320,428,o),
(320,340,cs),
(320,252,o),
(392,180,o),
(480,180,cs)
);
}
);
width = 960;
},
{
layerId = "5C20EF92-B63D-42A8-8878-93C2863E0093";
shapes = (
{
closed = 1;
nodes = (
(568,180,o),
(640,252,o),
(640,340,cs),
(640,428,o),
(568,500,o),
(480,500,cs),
(392,500,o),
(320,428,o),
(320,340,cs),
(320,252,o),
(392,180,o),
(480,180,cs)
);
}
);
width = 960;
}
);
metricWidth = symbolBase;
unicode = 1024044;
}
{
color = 11;
glyphname = iconDot2.medium;
layers = (
{
layerId = "CD0E3B44-F66A-4791-B84C-A1128DC61275";
metricWidth = "=symbolBase.medium";
shapes = (
{
closed = 1;
nodes = (
(2142,422,o),
(2413,694,o),
(2413,1026,cs),
(2413,1358,o),
(2142,1629,o),
(1810,1629,cs),
(1478,1629,o),
(1207,1358,o),
(1207,1026,cs),
(1207,694,o),
(1478,422,o),
(1810,422,cs)
);
}
);
userData = {
RMXScaler = {
height = 125;
verticalShift = -85;
width = 125;
};
};
width = 3620;
},
{
layerId = "B1F27B51-9973-4381-9301-4FE46FE1CA59";
metricWidth = "=symbolBase.medium";
shapes = (
{
closed = 1;
nodes = (
(2142,422,o),
(2413,694,o),
(2413,1026,cs),
(2413,1358,o),
(2142,1629,o),
(1810,1629,cs),
(1478,1629,o),
(1207,1358,o),
(1207,1026,cs),
(1207,694,o),
(1478,422,o),
(1810,422,cs)
);
}
);
userData = {
RMXScaler = {
height = 125;
verticalShift = -85;
width = 125;
};
};
width = 3620;
},
{
layerId = "5C20EF92-B63D-42A8-8878-93C2863E0093";
metricWidth = "=symbolBase.medium";
shapes = (
{
closed = 1;
nodes = (
(2142,422,o),
(2413,694,o),
(2413,1026,cs),
(2413,1358,o),
(2142,1629,o),
(1810,1629,cs),
(1478,1629,o),
(1207,1358,o),
(1207,1026,cs),
(1207,694,o),
(1478,422,o),
(1810,422,cs)
);
}
);
userData = {
RMXScaler = {
height = 125;
verticalShift = -85;
width = 125;
};
};
width = 3620;
}
);
unicode = 1024044;
userData = {
RMXScaler = {
source = iconDot2.small;
};
};
}
{
color = 11;
glyphname = iconExchangeRate;
layers = (
{
layerId = "B1F27B51-9973-4381-9301-4FE46FE1CA59";
shapes = (
{
closed = 1;
nodes = (
(701,-60,o),
(880,119,o),
(880,340,cs),
(880,561,o),
(701,740,o),
(480,740,cs),
(259,740,o),
(80,561,o),
(80,340,cs),
(80,119,o),
(259,-60,o),
(480,-60,cs)
);
},
{
closed = 1;
nodes = (
(281,-20,o),
(120,141,o),
(120,340,cs),
(120,539,o),
(281,700,o),
(480,700,cs),
(679,700,o),
(840,539,o),
(840,340,cs),
(840,141,o),
(679,-20,o),
(480,-20,cs)
);
},
{
closed = 1;
nodes = (
(394,118,o),
(406,118,o),
(414,126,cs),
(422,134,o),
(422,146,o),
(414,154,cs),
(328,240,l),
(414,326,ls),
(422,334,o),
(422,346,o),
(414,354,cs),
(406,362,o),
(394,362,o),
(386,354,cs),
(286,254,ls),
(278,246,o),
(278,234,o),
(286,226,cs),
(386,126,ls)
);
},
{
closed = 1;
nodes = (
(640,220,ls),
(651,220,o),
(660,229,o),
(660,240,cs),
(660,251,o),
(651,260,o),
(640,260,cs),
(300,260,ls),
(289,260,o),
(280,251,o),
(280,240,cs),
(280,229,o),
(289,220,o),
(300,220,cs)
);
},
{
closed = 1;
nodes = (
(640,420,ls),
(651,420,o),
(660,429,o),
(660,440,cs),
(660,451,o),
(651,460,o),
(640,460,cs),
(300,460,ls),
(289,460,o),
(280,451,o),
(280,440,cs),
(280,429,o),
(289,420,o),
(300,420,cs)
);
},
{
closed = 1;
nodes = (
(534,318,o),
(546,318,o),
(554,326,cs),
(654,426,ls),
(662,434,o),
(662,446,o),
(654,454,cs),
(554,554,ls),
(546,562,o),
(534,562,o),
(526,554,cs),
(518,546,o),
(518,534,o),
(526,526,cs),
(612,440,l),
(526,354,ls),
(518,346,o),
(518,334,o),
(526,326,cs)
);
}
);
width = 960;
},
{
layerId = "CD0E3B44-F66A-4791-B84C-A1128DC61275";
shapes = (
{
closed = 1;
nodes = (
(701,-60,o),
(880,119,o),
(880,340,cs),
(880,561,o),
(701,740,o),
(480,740,cs),
(259,740,o),
(80,561,o),
(80,340,cs),
(80,119,o),
(259,-60,o),
(480,-60,cs)
);
},
{
closed = 1;
nodes = (
(292,0,o),
(140,152,o),
(140,340,cs),
(140,528,o),
(292,680,o),
(480,680,cs),
(668,680,o),
(820,528,o),
(820,340,cs),
(820,152,o),
(668,0,o),
(480,0,cs)
);
},
{
closed = 1;
nodes = (
(392,113,o),
(408,113,o),
(418,122,cs),
(427,132,o),
(427,148,o),
(418,158,cs),
(335,240,l),
(418,322,ls),
(427,332,o),
(427,348,o),
(418,358,cs),
(408,367,o),
(392,367,o),
(382,358,cs),
(282,258,ls),
(273,248,o),
(273,232,o),
(282,222,cs),
(382,122,ls)
);
},
{
closed = 1;
nodes = (
(640,215,ls),
(654,215,o),
(665,226,o),
(665,240,cs),
(665,254,o),
(654,265,o),
(640,265,cs),
(300,265,ls),
(286,265,o),
(275,254,o),
(275,240,cs),
(275,226,o),
(286,215,o),
(300,215,cs)
);
},
{
closed = 1;
nodes = (
(640,415,ls),
(654,415,o),
(665,426,o),
(665,440,cs),
(665,454,o),
(654,465,o),
(640,465,cs),
(300,465,ls),
(286,465,o),
(275,454,o),
(275,440,cs),
(275,426,o),
(286,415,o),
(300,415,cs)
);
},
{
closed = 1;
nodes = (
(532,313,o),
(548,313,o),
(558,322,cs),
(658,422,ls),
(667,432,o),
(667,448,o),
(658,458,cs),
(558,558,ls),
(548,567,o),
(532,567,o),
(522,558,cs),
(513,548,o),
(513,532,o),
(522,522,cs),
(605,440,l),
(522,358,ls),
(513,348,o),
(513,332,o),
(522,322,cs)
);
}
);
width = 960;
},
{
layerId = "5C20EF92-B63D-42A8-8878-93C2863E0093";
shapes = (
{
closed = 1;
nodes = (
(701,-60,o),
(880,119,o),
(880,340,cs),
(880,561,o),
(701,740,o),
(480,740,cs),
(259,740,o),
(80,561,o),
(80,340,cs),
(80,119,o),
(259,-60,o),
(480,-60,cs)
);
},
{
closed = 1;
nodes = (
(325,60,o),
(200,185,o),
(200,340,cs),
(200,495,o),
(325,620,o),
(480,620,cs),
(635,620,o),
(760,495,o),
(760,340,cs),
(760,185,o),
(635,60,o),
(480,60,cs)
);
},
{
closed = 1;
nodes = (
(387,116,o),
(413,116,o),
(428,132,cs),
(444,147,o),
(444,173,o),
(428,188,cs),
(377,240,l),
(428,292,ls),
(444,307,o),
(444,333,o),
(428,348,cs),
(413,364,o),
(387,364,o),
(372,348,cs),
(292,268,ls),
(276,253,o),
(276,227,o),
(292,212,cs),
(372,132,ls)
);
},
{
closed = 1;
nodes = (
(620,200,ls),
(642,200,o),
(660,218,o),
(660,240,cs),
(660,262,o),
(642,280,o),
(620,280,cs),
(320,280,ls),
(298,280,o),
(280,262,o),
(280,240,cs),
(280,218,o),
(298,200,o),
(320,200,cs)
);
},
{
closed = 1;
nodes = (
(640,400,ls),
(662,400,o),
(680,418,o),
(680,440,cs),
(680,462,o),
(662,480,o),
(640,480,cs),
(320,480,ls),
(298,480,o),
(280,462,o),
(280,440,cs),
(280,418,o),
(298,400,o),
(320,400,cs)
);
},
{
closed = 1;
nodes = (
(547,316,o),
(573,316,o),
(588,332,cs),
(668,412,ls),
(684,427,o),
(684,453,o),
(668,468,cs),
(588,548,ls),
(573,564,o),
(547,564,o),
(532,548,cs),
(516,533,o),
(516,507,o),
(532,492,cs),
(583,440,l),
(532,388,ls),
(516,373,o),
(516,347,o),
(532,332,cs)
);
}
);
width = 960;
}
);
metricWidth = symbolBase;
unicode = 1024045;
}
{
color = 11;
glyphname = iconExclam;
layers = (
{
layerId = "CD0E3B44-F66A-4791-B84C-A1128DC61275";
shapes = (
{
closed = 1;
nodes = (
(1569,784,l),
(1569,1750,l),
(1327,1750,l),
(1327,784,l)
);
},
{
closed = 1;
nodes = (
(1539,317,o),
(1614,392,o),
(1614,483,cs),
(1614,573,o),
(1539,649,o),
(1448,649,cs),
(1358,649,o),
(1282,573,o),
(1282,483,cs),
(1282,392,o),
(1358,317,o),
(1448,317,cs)
);
}
);
width = 2896;
},
{
layerId = "B1F27B51-9973-4381-9301-4FE46FE1CA59";
shapes = (
{
closed = 1;
nodes = (
(1498,780,l),
(1498,1748,l),
(1398,1748,l),
(1398,780,l)
);
},
{
closed = 1;
nodes = (
(1500,386,o),
(1544,430,o),
(1544,484,cs),
(1544,534,o),
(1500,578,o),
(1448,578,cs),
(1396,578,o),
(1352,534,o),
(1352,484,cs),
(1352,430,o),
(1396,386,o),
(1448,386,cs)
);
}
);
width = 2896;
},
{
layerId = "5C20EF92-B63D-42A8-8878-93C2863E0093";
shapes = (
{
closed = 1;
nodes = (
(1634,880,l),
(1634,1812,l),
(1262,1812,l),
(1262,880,l)
);
},
{
closed = 1;
nodes = (
(1574,252,o),
(1678,356,o),
(1678,484,cs),
(1678,608,o),
(1574,714,o),
(1448,714,cs),
(1322,714,o),
(1218,608,o),
(1218,484,cs),
(1218,356,o),
(1322,252,o),
(1448,252,cs)
);
}
);
width = 2896;
}
);
metricWidth = symbolBase;
unicode = 1024046;
}
{
color = 11;
glyphname = iconExclammark;
layers = (
{
layerId = "CD0E3B44-F66A-4791-B84C-A1128DC61275";
shapes = (
{
closed = 1;
nodes = (
(1570,634,l),
(1570,1992,l),
(1328,1992,l),
(1328,634,l)
);
},
{
closed = 1;
nodes = (
(1540,60,o),
(1614,136,o),
(1614,226,cs),
(1614,318,o),
(1540,392,o),
(1448,392,cs),
(1356,392,o),
(1282,318,o),
(1282,226,cs),
(1282,136,o),
(1356,60,o),
(1448,60,cs)
);
}
);
width = 2896;
},
{
layerId = "B1F27B51-9973-4381-9301-4FE46FE1CA59";
shapes = (
{
closed = 1;
nodes = (
(1498,528,l),
(1498,1992,l),
(1398,1992,l),
(1398,528,l)
);
},
{
closed = 1;
nodes = (
(1500,60,o),
(1544,106,o),
(1544,156,cs),
(1544,208,o),
(1500,254,o),
(1448,254,cs),
(1398,254,o),
(1352,208,o),
(1352,156,cs),
(1352,106,o),
(1398,60,o),
(1448,60,cs)
);
}
);
width = 2896;
},
{
layerId = "5C20EF92-B63D-42A8-8878-93C2863E0093";
shapes = (
{
closed = 1;
nodes = (
(1634,730,l),
(1634,1992,l),
(1264,1992,l),
(1264,730,l)
);
},
{
closed = 1;
nodes = (
(1574,60,o),
(1678,166,o),
(1678,292,cs),
(1678,416,o),
(1574,522,o),
(1448,522,cs),
(1322,522,o),
(1218,416,o),
(1218,292,cs),
(1218,166,o),
(1322,60,o),
(1448,60,cs)
);
}
);
width = 2896;
}
);
metricWidth = symbolBase;
unicode = 1024046;
}
{
color = 11;
glyphname = iconExclammark.medium;
layers = (
{
layerId = "CD0E3B44-F66A-4791-B84C-A1128DC61275";
metricWidth = "=symbolBase.medium";
shapes = (
{
closed = 1;
nodes = (
(1940,507,l),
(1940,2232,l),
(1680,2232,l),
(1680,507,l)
);
},
{
closed = 1;
nodes = (
(1913,-181,o),
(1997,-94,o),
(1997,6,cs),
(1997,106,o),
(1913,193,o),
(1810,193,cs),
(1710,193,o),
(1623,109,o),
(1623,6,cs),
(1623,-94,o),
(1707,-181,o),
(1810,-181,cs)
);
}
);
userData = {
RMXScaler = {
height = 125;
verticalShift = -85;
width = 125;
};
};
width = 3620;
},
{
layerId = "B1F27B51-9973-4381-9301-4FE46FE1CA59";
metricWidth = "=symbolBase.medium";
shapes = (
{
closed = 1;
nodes = (
(1872,401,l),
(1872,2232,l),
(1751,2232,l),
(1751,401,l)
);
},
{
closed = 1;
nodes = (
(1873,-181,o),
(1930,-129,o),
(1930,-64,cs),
(1930,0,o),
(1877,55,o),
(1810,55,cs),
(1746,55,o),
(1693,0,o),
(1693,-64,cs),
(1693,-125,o),
(1747,-181,o),
(1810,-181,cs)
);
}
);
userData = {
RMXScaler = {
height = 125;
verticalShift = -85;
width = 125;
};
};
width = 3620;
},
{
layerId = "5C20EF92-B63D-42A8-8878-93C2863E0093";
metricWidth = "=symbolBase.medium";
shapes = (
{
closed = 1;
nodes = (
(2013,616,l),
(2013,2232,l),
(1606,2232,l),
(1606,616,l)
);
},
{
closed = 1;
nodes = (
(1951,-181,o),
(2070,-64,o),
(2070,79,cs),
(2070,221,o),
(1951,341,o),
(1810,341,cs),
(1665,341,o),
(1550,221,o),
(1550,79,cs),
(1550,-64,o),
(1669,-181,o),
(1810,-181,cs)
);
}
);
userData = {
RMXScaler = {
height = 125;
verticalShift = -85;
width = 125;
};
};
width = 3620;
}
);
unicode = 1024046;
userData = {
RMXScaler = {
source = iconExclammark.small;
};
};
}
{
color = 11;
glyphname = iconExclamFill;
layers = (
{
layerId = "B1F27B51-9973-4381-9301-4FE46FE1CA59";
shapes = (
{
closed = 1;
nodes = (
(2115,-181,o),
(2655,359,o),
(2655,1026,cs),
(2655,1692,o),
(2115,2232,o),
(1448,2232,cs),
(781,2232,o),
(241,1692,o),
(241,1026,cs),
(241,359,o),
(781,-181,o),
(1448,-181,cs)
);
},
{
closed = 1;
nodes = (
(1391,362,o),
(1342,410,o),
(1342,468,cs),
(1342,525,o),
(1391,573,o),
(1448,573,cs),
(1505,573,o),
(1554,525,o),
(1554,468,cs),
(1554,410,o),
(1505,362,o),
(1448,362,cs)
);
},
{
closed = 1;
nodes = (
(1388,1750,l),
(1508,1750,l),
(1508,784,l),
(1388,784,l)
);
}
);
width = 2896;
},
{
layerId = "CD0E3B44-F66A-4791-B84C-A1128DC61275";
shapes = (
{
closed = 1;
nodes = (
(2115,-181,o),
(2655,359,o),
(2655,1026,cs),
(2655,1692,o),
(2115,2232,o),
(1448,2232,cs),
(781,2232,o),
(241,1692,o),
(241,1026,cs),
(241,359,o),
(781,-181,o),
(1448,-181,cs)
);
},
{
closed = 1;
nodes = (
(1358,302,o),
(1282,377,o),
(1282,468,cs),
(1282,558,o),
(1358,634,o),
(1448,634,cs),
(1539,634,o),
(1614,558,o),
(1614,468,cs),
(1614,377,o),
(1539,302,o),
(1448,302,cs)
);
},
{
closed = 1;
nodes = (
(1327,1750,l),
(1569,1750,l),
(1569,784,l),
(1327,784,l)
);
}
);
width = 2896;
},
{
layerId = "5C20EF92-B63D-42A8-8878-93C2863E0093";
shapes = (
{
closed = 1;
nodes = (
(2115,-181,o),
(2655,359,o),
(2655,1026,cs),
(2655,1692,o),
(2115,2232,o),
(1448,2232,cs),
(781,2232,o),
(241,1692,o),
(241,1026,cs),
(241,359,o),
(781,-181,o),
(1448,-181,cs)
);
},
{
closed = 1;
nodes = (
(1324,241,o),
(1222,344,o),
(1222,468,cs),
(1222,591,o),
(1324,694,o),
(1448,694,cs),
(1572,694,o),
(1674,591,o),
(1674,468,cs),
(1674,344,o),
(1572,241,o),
(1448,241,cs)
);
},
{
closed = 1;
nodes = (
(1267,1810,l),
(1629,1810,l),
(1629,875,l),
(1267,875,l)
);
}
);
width = 2896;
}
);
metricWidth = symbolBase;
unicode = 1024047;
}
{
color = 11;
glyphname = iconExclamFill.medium;
layers = (
{
layerId = "CD0E3B44-F66A-4791-B84C-A1128DC61275";
metricWidth = "=symbolBase.medium";
shapes = (
{
closed = 1;
nodes = (
(2643,-483,o),
(3318,193,o),
(3318,1026,cs),
(3318,1858,o),
(2643,2534,o),
(1810,2534,cs),
(977,2534,o),
(302,1858,o),
(302,1026,cs),
(302,193,o),
(977,-483,o),
(1810,-483,cs)
);
},
{
closed = 1;
nodes = (
(1710,142,o),
(1623,226,o),
(1623,329,cs),
(1623,428,o),
(1707,516,o),
(1810,516,cs),
(1913,516,o),
(1997,428,o),
(1997,329,cs),
(1997,226,o),
(1910,142,o),
(1810,142,cs)
);
},
{
closed = 1;
nodes = (
(1680,1931,l),
(1940,1931,l),
(1940,724,l),
(1680,724,l)
);
}
);
userData = {
RMXScaler = {
height = 125;
verticalShift = -85;
width = 125;
};
};
width = 3620;
},
{
layerId = "B1F27B51-9973-4381-9301-4FE46FE1CA59";
metricWidth = "=symbolBase.medium";
shapes = (
{
closed = 1;
nodes = (
(2643,-483,o),
(3318,193,o),
(3318,1026,cs),
(3318,1858,o),
(2643,2534,o),
(1810,2534,cs),
(977,2534,o),
(302,1858,o),
(302,1026,cs),
(302,193,o),
(977,-483,o),
(1810,-483,cs)
);
},
{
closed = 1;
nodes = (
(1746,209,o),
(1693,265,o),
(1693,329,cs),
(1693,389,o),
(1747,446,o),
(1810,446,cs),
(1873,446,o),
(1927,389,o),
(1927,329,cs),
(1927,265,o),
(1874,209,o),
(1810,209,cs)
);
},
{
closed = 1;
nodes = (
(1748,1929,l),
(1872,1929,l),
(1872,722,l),
(1748,722,l)
);
}
);
userData = {
RMXScaler = {
height = 125;
verticalShift = -85;
width = 125;
};
};
width = 3620;
},
{
layerId = "5C20EF92-B63D-42A8-8878-93C2863E0093";
metricWidth = "=symbolBase.medium";
shapes = (
{
closed = 1;
nodes = (
(2643,-483,o),
(3318,193,o),
(3318,1026,cs),
(3318,1858,o),
(2643,2534,o),
(1810,2534,cs),
(977,2534,o),
(302,1858,o),
(302,1026,cs),
(302,193,o),
(977,-483,o),
(1810,-483,cs)
);
},
{
closed = 1;
nodes = (
(1669,68,o),
(1550,184,o),
(1550,329,cs),
(1550,471,o),
(1665,589,o),
(1810,589,cs),
(1955,589,o),
(2070,471,o),
(2070,329,cs),
(2070,184,o),
(1951,68,o),
(1810,68,cs)
);
},
{
closed = 1;
nodes = (
(1607,1981,l),
(2013,1981,l),
(2013,800,l),
(1607,800,l)
);
}
);
userData = {
RMXScaler = {
height = 125;
verticalShift = -85;
width = 125;
};
};
width = 3620;
}
);
unicode = 1024047;
userData = {
RMXScaler = {
source = iconExclamFill.small;
};
};
}
{
color = 11;
glyphname = iconExternal;
layers = (
{
background = {
shapes = (
{
closed = 1;
nodes = (
);
}
);
};
layerId = "CD0E3B44-F66A-4791-B84C-A1128DC61275";
shapes = (
{
closed = 1;
nodes = (
(2220,-181,ls),
(2326,-181,o),
(2413,-94,o),
(2413,12,cs),
(2413,1008,ls),
(2413,1074,o),
(2359,1128,o),
(2293,1128,cs),
(2226,1128,o),
(2172,1074,o),
(2172,1008,cs),
(2172,60,ls),
(2172,60,o),
(2172,60,o),
(2172,60,cs),
(483,60,ls),
(483,60,o),
(483,60,o),
(483,60,cs),
(483,1750,ls),
(483,1750,o),
(483,1750,o),
(483,1750,cs),
(1430,1750,ls),
(1496,1750,o),
(1551,1804,o),
(1551,1870,cs),
(1551,1937,o),
(1496,1991,o),
(1430,1991,cs),
(434,1991,ls),
(329,1991,o),
(241,1904,o),
(241,1798,cs),
(241,12,ls),
(241,-94,o),
(329,-181,o),
(434,-181,cs)
);
},
{
closed = 1;
nodes = (
(1279,772,o),
(1354,772,o),
(1403,821,cs),
(2365,1783,l),
(2365,1424,ls),
(2365,1358,o),
(2419,1303,o),
(2486,1303,cs),
(2552,1303,o),
(2606,1358,o),
(2606,1424,cs),
(2606,2075,ls),
(2606,2106,o),
(2594,2139,o),
(2570,2160,cs),
(2549,2184,o),
(2519,2196,o),
(2486,2196,cs),
(1834,2196,ls),
(1768,2196,o),
(1713,2142,o),
(1713,2075,cs),
(1713,2009,o),
(1768,1955,o),
(1834,1955,cs),
(2196,1955,l),
(1231,989,ls),
(1183,944,o),
(1183,866,o),
(1231,821,cs)
);
}
);
width = 2896;
},
{
layerId = "B1F27B51-9973-4381-9301-4FE46FE1CA59";
shapes = (
{
closed = 1;
nodes = (
(2220,-112,ls),
(2288,-112,o),
(2344,-54,o),
(2344,12,cs),
(2344,1144,ls),
(2344,1170,o),
(2320,1194,o),
(2294,1194,cs),
(2264,1194,o),
(2242,1170,o),
(2242,1144,cs),
(2242,4,ls),
(2242,-2,o),
(2234,-10,o),
(2228,-10,cs),
(426,-10,ls),
(420,-10,o),
(412,-2,o),
(412,4,cs),
(412,1806,ls),
(412,1812,o),
(420,1820,o),
(426,1820,cs),
(1566,1820,ls),
(1594,1820,o),
(1616,1842,o),
(1616,1870,cs),
(1616,1898,o),
(1594,1922,o),
(1566,1922,cs),
(434,1922,ls),
(368,1922,o),
(312,1864,o),
(312,1798,cs),
(312,12,ls),
(312,-54,o),
(368,-112,o),
(434,-112,cs)
);
},
{
closed = 1;
nodes = (
(1300,850,o),
(1334,850,o),
(1350,870,cs),
(2434,1954,l),
(2434,1424,ls),
(2434,1396,o),
(2458,1374,o),
(2486,1374,cs),
(2514,1374,o),
(2536,1396,o),
(2536,1424,cs),
(2536,2076,ls),
(2536,2088,o),
(2532,2100,o),
(2522,2112,cs),
(2514,2122,o),
(2498,2126,o),
(2486,2126,cs),
(1834,2126,ls),
(1806,2126,o),
(1784,2104,o),
(1784,2076,cs),
(1784,2048,o),
(1806,2024,o),
(1834,2024,cs),
(2364,2024,l),
(1280,940,ls),
(1260,920,o),
(1260,890,o),
(1280,870,cs)
);
}
);
width = 2896;
},
{
layerId = "5C20EF92-B63D-42A8-8878-93C2863E0093";
shapes = (
{
closed = 1;
nodes = (
(2220,-246,ls),
(2362,-246,o),
(2478,-130,o),
(2478,12,cs),
(2478,1006,ls),
(2478,1106,o),
(2394,1190,o),
(2294,1190,cs),
(2190,1190,o),
(2108,1106,o),
(2108,1006,cs),
(2108,124,ls),
(2108,124,o),
(2108,126,o),
(2108,126,cs),
(546,126,ls),
(546,126,o),
(548,124,o),
(548,124,cs),
(548,1686,ls),
(548,1686,o),
(546,1684,o),
(546,1684,cs),
(1428,1684,ls),
(1528,1684,o),
(1612,1768,o),
(1612,1870,cs),
(1612,1972,o),
(1528,2056,o),
(1428,2056,cs),
(434,2056,ls),
(294,2056,o),
(176,1940,o),
(176,1798,cs),
(176,12,ls),
(176,-130,o),
(294,-246,o),
(434,-246,cs)
);
},
{
closed = 1;
nodes = (
(1256,702,o),
(1374,702,o),
(1448,776,cs),
(2300,1628,l),
(2300,1424,ls),
(2300,1322,o),
(2384,1238,o),
(2486,1238,cs),
(2588,1238,o),
(2672,1322,o),
(2672,1424,cs),
(2672,2076,ls),
(2672,2126,o),
(2652,2172,o),
(2618,2204,cs),
(2582,2242,o),
(2536,2260,o),
(2486,2260,cs),
(1834,2260,ls),
(1732,2260,o),
(1648,2178,o),
(1648,2076,cs),
(1648,1974,o),
(1732,1890,o),
(1834,1890,cs),
(2038,1890,l),
(1186,1034,ls),
(1112,964,o),
(1112,846,o),
(1186,776,cs)
);
}
);
width = 2896;
}
);
metricWidth = symbolBase;
unicode = 1024048;
}
{
color = 11;
glyphname = iconEye;
layers = (
{
layerId = "B1F27B51-9973-4381-9301-4FE46FE1CA59";
shapes = (
{
closed = 1;
nodes = (
(1801,241,o),
(2112,362,o),
(2353,621,cs),
(2525,811,o),
(2588,999,o),
(2591,1008,cs),
(2594,1020,o),
(2594,1032,o),
(2591,1044,cs),
(2588,1053,o),
(2525,1240,o),
(2353,1430,cs),
(2112,1689,o),
(1801,1810,o),
(1448,1810,cs),
(1095,1810,o),
(784,1689,o),
(543,1430,cs),
(371,1240,o),
(308,1053,o),
(305,1044,cs),
(302,1032,o),
(302,1020,o),
(305,1008,cs),
(308,999,o),
(371,811,o),
(543,621,cs),
(784,362,o),
(1095,241,o),
(1448,241,cs)
);
},
{
closed = 1;
nodes = (
(1131,362,o),
(851,468,o),
(637,700,cs),
(510,839,o),
(446,977,o),
(425,1026,c),
(446,1074,o),
(510,1213,o),
(637,1351,cs),
(851,1584,o),
(1131,1689,o),
(1448,1689,cs),
(1765,1689,o),
(2045,1584,o),
(2259,1351,cs),
(2386,1213,o),
(2450,1074,o),
(2471,1026,c),
(2450,977,o),
(2386,839,o),
(2259,700,cs),
(2045,468,o),
(1765,362,o),
(1448,362,cs)
);
},
{
closed = 1;
nodes = (
(1680,603,o),
(1870,793,o),
(1870,1026,cs),
(1870,1258,o),
(1680,1448,o),
(1448,1448,cs),
(1216,1448,o),
(1026,1258,o),
(1026,1026,cs),
(1026,793,o),
(1216,603,o),
(1448,603,cs)
);
},
{
closed = 1;
nodes = (
(1282,724,o),
(1146,860,o),
(1146,1026,cs),
(1146,1192,o),
(1282,1327,o),
(1448,1327,cs),
(1614,1327,o),
(1750,1192,o),
(1750,1026,cs),
(1750,860,o),
(1614,724,o),
(1448,724,cs)
);
}
);
width = 2896;
},
{
layerId = "CD0E3B44-F66A-4791-B84C-A1128DC61275";
shapes = (
{
closed = 1;
nodes = (
(1819,181,o),
(2145,308,o),
(2395,582,cs),
(2579,781,o),
(2646,980,o),
(2649,986,cs),
(2658,1014,o),
(2658,1038,o),
(2649,1065,cs),
(2646,1071,o),
(2579,1270,o),
(2395,1469,cs),
(2145,1744,o),
(1819,1870,o),
(1448,1870,cs),
(1077,1870,o),
(751,1744,o),
(501,1469,cs),
(317,1270,o),
(250,1071,o),
(247,1065,cs),
(238,1038,o),
(238,1014,o),
(247,986,cs),
(250,980,o),
(317,781,o),
(501,582,cs),
(751,308,o),
(1077,181,o),
(1448,181,cs)
);
},
{
closed = 1;
nodes = (
(1152,422,o),
(884,525,o),
(685,739,cs),
(576,851,o),
(519,968,o),
(492,1026,c),
(519,1083,o),
(576,1201,o),
(685,1312,cs),
(884,1526,o),
(1152,1629,o),
(1448,1629,cs),
(1744,1629,o),
(2012,1526,o),
(2211,1312,cs),
(2320,1201,o),
(2377,1083,o),
(2404,1026,c),
(2377,968,o),
(2320,851,o),
(2211,739,cs),
(2012,525,o),
(1744,422,o),
(1448,422,cs)
);
},
{
closed = 1;
nodes = (
(1713,543,o),
(1931,760,o),
(1931,1026,cs),
(1931,1291,o),
(1713,1508,o),
(1448,1508,cs),
(1183,1508,o),
(965,1291,o),
(965,1026,cs),
(965,760,o),
(1183,543,o),
(1448,543,cs)
);
},
{
closed = 1;
nodes = (
(1315,784,o),
(1207,893,o),
(1207,1026,cs),
(1207,1158,o),
(1315,1267,o),
(1448,1267,cs),
(1581,1267,o),
(1689,1158,o),
(1689,1026,cs),
(1689,893,o),
(1581,784,o),
(1448,784,cs)
);
}
);
width = 2896;
},
{
layerId = "5C20EF92-B63D-42A8-8878-93C2863E0093";
shapes = (
{
closed = 1;
nodes = (
(1949,121,o),
(2266,350,o),
(2440,540,cs),
(2628,745,o),
(2697,947,o),
(2706,968,cs),
(2718,1005,o),
(2718,1047,o),
(2706,1083,cs),
(2697,1104,o),
(2628,1306,o),
(2440,1511,cs),
(2266,1701,o),
(1949,1931,o),
(1448,1931,cs),
(947,1931,o),
(630,1701,o),
(456,1511,cs),
(268,1306,o),
(199,1104,o),
(190,1083,cs),
(178,1047,o),
(178,1005,o),
(190,968,cs),
(199,947,o),
(268,745,o),
(456,540,cs),
(630,350,o),
(947,121,o),
(1448,121,cs)
);
},
{
closed = 1;
nodes = (
(1155,483,o),
(914,582,o),
(730,775,cs),
(643,872,o),
(588,965,o),
(558,1026,c),
(585,1083,o),
(637,1173,o),
(721,1264,cs),
(905,1466,o),
(1149,1569,o),
(1448,1569,cs),
(1741,1569,o),
(1982,1469,o),
(2166,1276,cs),
(2253,1180,o),
(2308,1086,o),
(2338,1026,c),
(2311,968,o),
(2259,878,o),
(2175,787,cs),
(1991,585,o),
(1747,483,o),
(1448,483,cs)
);
},
{
closed = 1;
nodes = (
(1713,543,o),
(1931,760,o),
(1931,1026,cs),
(1931,1291,o),
(1713,1508,o),
(1448,1508,cs),
(1183,1508,o),
(965,1291,o),
(965,1026,cs),
(965,760,o),
(1183,543,o),
(1448,543,cs)
);
},
{
closed = 1;
nodes = (
(1382,905,o),
(1327,959,o),
(1327,1026,cs),
(1327,1092,o),
(1382,1146,o),
(1448,1146,cs),
(1514,1146,o),
(1569,1092,o),
(1569,1026,cs),
(1569,959,o),
(1514,905,o),
(1448,905,cs)
);
}
);
width = 2896;
}
);
metricWidth = symbolBase;
unicode = 1024049;
}
{
color = 11;
glyphname = iconEye.medium;
layers = (
{
layerId = "CD0E3B44-F66A-4791-B84C-A1128DC61275";
metricWidth = "=symbolBase.medium";
shapes = (
{
closed = 1;
nodes = (
(2256,-9,o),
(2670,139,o),
(2993,498,cs),
(3204,733,o),
(3282,959,o),
(3291,983,cs),
(3300,1011,o),
(3303,1035,o),
(3291,1068,cs),
(3282,1092,o),
(3204,1318,o),
(2993,1554,cs),
(2673,1910,o),
(2259,2060,o),
(1810,2060,cs),
(1339,2060,o),
(941,1894,o),
(640,1566,cs),
(416,1321,o),
(335,1083,o),
(329,1068,cs),
(320,1041,o),
(320,1014,o),
(329,983,cs),
(338,959,o),
(419,724,o),
(640,486,cs),
(941,157,o),
(1339,-9,o),
(1810,-9,cs)
);
},
{
closed = 1;
nodes = (
(1433,250,o),
(1098,380,o),
(845,649,cs),
(700,802,o),
(627,953,o),
(594,1026,c),
(627,1095,o),
(706,1255,o),
(845,1403,cs),
(1098,1671,o),
(1433,1801,o),
(1810,1801,cs),
(2187,1801,o),
(2531,1671,o),
(2790,1388,cs),
(2923,1243,o),
(2993,1104,o),
(3029,1026,c),
(2993,950,o),
(2923,808,o),
(2790,664,cs),
(2531,380,o),
(2187,250,o),
(1810,250,cs)
);
},
{
closed = 1;
nodes = (
(2133,443,o),
(2395,706,o),
(2395,1026,cs),
(2395,1345,o),
(2133,1608,o),
(1810,1608,cs),
(1490,1608,o),
(1228,1345,o),
(1228,1026,cs),
(1228,706,o),
(1490,443,o),
(1810,443,cs)
);
},
{
closed = 1;
nodes = (
(1635,703,o),
(1490,848,o),
(1490,1026,cs),
(1490,1204,o),
(1635,1348,o),
(1810,1348,cs),
(1988,1348,o),
(2133,1204,o),
(2133,1026,cs),
(2133,848,o),
(1988,703,o),
(1810,703,cs)
);
}
);
userData = {
RMXScaler = {
height = 125;
verticalShift = -85;
width = 125;
};
};
width = 3620;
},
{
layerId = "B1F27B51-9973-4381-9301-4FE46FE1CA59";
metricWidth = "=symbolBase.medium";
shapes = (
{
closed = 1;
nodes = (
(2235,58,o),
(2632,199,o),
(2940,541,cs),
(3147,771,o),
(3226,997,o),
(3228,1008,cs),
(3230,1018,o),
(3230,1035,o),
(3228,1044,cs),
(3226,1054,o),
(3143,1286,o),
(2940,1510,cs),
(2632,1852,o),
(2235,1993,o),
(1810,1993,cs),
(1374,1993,o),
(995,1844,o),
(706,1537,cs),
(490,1306,o),
(401,1065,o),
(395,1044,cs),
(393,1034,o),
(393,1021,o),
(395,1008,cs),
(401,987,o),
(490,746,o),
(706,515,cs),
(995,207,o),
(1374,58,o),
(1810,58,cs)
);
},
{
closed = 1;
nodes = (
(1426,183,o),
(1070,307,o),
(795,599,cs),
(627,781,o),
(543,963,o),
(517,1026,c),
(550,1101,o),
(633,1280,o),
(795,1452,cs),
(1070,1745,o),
(1426,1868,o),
(1810,1868,cs),
(2181,1868,o),
(2536,1755,o),
(2814,1467,cs),
(2993,1277,o),
(3077,1094,o),
(3106,1026,c),
(3073,950,o),
(2986,764,o),
(2814,584,cs),
(2549,313,o),
(2211,183,o),
(1810,183,cs)
);
},
{
closed = 1;
nodes = (
(2096,509,o),
(2327,744,o),
(2327,1026,cs),
(2327,1307,o),
(2096,1543,o),
(1810,1543,cs),
(1528,1543,o),
(1296,1307,o),
(1296,1026,cs),
(1296,744,o),
(1528,509,o),
(1810,509,cs)
);
},
{
closed = 1;
nodes = (
(1596,631,o),
(1418,809,o),
(1418,1026,cs),
(1418,1243,o),
(1596,1421,o),
(1810,1421,cs),
(2027,1421,o),
(2205,1243,o),
(2205,1026,cs),
(2205,809,o),
(2027,631,o),
(1810,631,cs)
);
}
);
userData = {
RMXScaler = {
height = 125;
verticalShift = -85;
width = 125;
};
};
width = 3620;
},
{
layerId = "5C20EF92-B63D-42A8-8878-93C2863E0093";
metricWidth = "=symbolBase.medium";
shapes = (
{
closed = 1;
nodes = (
(2386,-82,o),
(2787,166,o),
(3035,436,cs),
(3268,695,o),
(3349,936,o),
(3359,961,cs),
(3375,1005,o),
(3374,1048,o),
(3359,1090,cs),
(3349,1115,o),
(3265,1364,o),
(3035,1614,cs),
(2787,1885,o),
(2386,2134,o),
(1810,2134,cs),
(1235,2134,o),
(839,1889,o),
(594,1626,cs),
(361,1379,o),
(268,1115,o),
(258,1090,cs),
(242,1051,o),
(245,998,o),
(258,961,cs),
(268,937,o),
(358,680,o),
(594,425,cs),
(839,162,o),
(1235,-82,o),
(1810,-82,cs)
);
},
{
closed = 1;
nodes = (
(1443,324,o),
(1136,447,o),
(902,691,cs),
(777,822,o),
(705,956,o),
(672,1026,c),
(708,1104,o),
(776,1223,o),
(884,1338,cs),
(1133,1610,o),
(1455,1728,o),
(1810,1728,cs),
(2156,1728,o),
(2477,1613,o),
(2720,1355,cs),
(2834,1236,o),
(2906,1107,o),
(2945,1026,c),
(2909,950,o),
(2843,826,o),
(2717,694,cs),
(2490,453,o),
(2180,324,o),
(1810,324,cs)
);
},
{
closed = 1;
nodes = (
(2143,420,o),
(2415,693,o),
(2415.002,1026,cs),
(2415,1359,o),
(2143,1631,o),
(1810,1631,cs),
(1477,1631,o),
(1205,1359,o),
(1205,1026,cs),
(1205,693,o),
(1477,420,o),
(1810,420,cs)
);
},
{
closed = 1;
nodes = (
(1699,828,o),
(1612,918,o),
(1612,1026,cs),
(1612,1133,o),
(1699,1224,o),
(1810,1224,cs),
(1918,1224,o),
(2008,1133,o),
(2008,1026,cs),
(2008,918,o),
(1918,828,o),
(1810,828,cs)
);
}
);
userData = {
RMXScaler = {
height = 125;
verticalShift = -85;
width = 125;
};
};
width = 3620;
}
);
unicode = 1024049;
userData = {
RMXScaler = {
source = iconEye.small;
};
};
}
{
color = 11;
glyphname = iconHeart;
layers = (
{
layerId = "CD0E3B44-F66A-4791-B84C-A1128DC61275";
shapes = (
{
closed = 1;
nodes = (
(1481,0,o),
(1511,12,o),
(1535,36,cs),
(2088,603,ls),
(2365,878,o),
(2546,1104,o),
(2546,1412,cs),
(2546,1789,o),
(2278,2051,o),
(1931,2051,cs),
(1729,2051,o),
(1557,1961,o),
(1448,1819,c),
(1339,1961,o),
(1167,2051,o),
(965,2051,cs),
(618,2051,o),
(350,1789,o),
(350,1412,cs),
(350,1104,o),
(531,878,o),
(808,603,cs),
(1361,36,ls),
(1385,12,o),
(1415,0,o),
(1448,0,cs)
);
},
{
closed = 1;
nodes = (
(977,772,ls),
(700,1053,o),
(591,1213,o),
(591,1412,cs),
(591,1662,o),
(757,1810,o),
(965,1810,cs),
(1177,1810,o),
(1327,1659,o),
(1327,1448,cs),
(1327,1382,o),
(1382,1327,o),
(1448,1327,cs),
(1514,1327,o),
(1569,1382,o),
(1569,1448,cs),
(1569,1659,o),
(1720,1810,o),
(1931,1810,cs),
(2139,1810,o),
(2305,1662,o),
(2305,1412,cs),
(2305,1213,o),
(2196,1055,o),
(1919,772,cs),
(1448,293,l)
);
}
);
width = 2896;
},
{
layerId = "B1F27B51-9973-4381-9301-4FE46FE1CA59";
shapes = (
{
closed = 1;
nodes = (
(1460,46,o),
(1476,52,o),
(1482,62,c),
(2038,630,ls),
(2316,906,o),
(2476,1112,o),
(2476,1388,cs),
(2476,1730,o),
(2236,1958,o),
(1932,1958,cs),
(1710,1958,o),
(1532,1842,o),
(1448,1664,c),
(1364,1842,o),
(1184,1958,o),
(966,1958,cs),
(660,1958,o),
(420,1730,o),
(420,1388,cs),
(420,1112,o),
(580,906,o),
(858,630,cs),
(1414,62,l),
(1420,52,o),
(1436,46,o),
(1448,46,cs)
);
},
{
closed = 1;
nodes = (
(928,700,ls),
(652,978,o),
(522,1158,o),
(522,1388,cs),
(522,1674,o),
(716,1856,o),
(966,1856,cs),
(1216,1856,o),
(1398,1674,o),
(1398,1424,cs),
(1398,1398,o),
(1420,1374,o),
(1448,1374,cs),
(1476,1374,o),
(1498,1398,o),
(1498,1424,cs),
(1498,1674,o),
(1680,1856,o),
(1932,1856,cs),
(2180,1856,o),
(2374,1674,o),
(2374,1388,cs),
(2374,1158,o),
(2244,978,o),
(1968,700,cs),
(1448,172,l)
);
}
);
width = 2896;
},
{
layerId = "5C20EF92-B63D-42A8-8878-93C2863E0093";
shapes = (
{
closed = 1;
nodes = (
(1497,-64,o),
(1547,-42,o),
(1581,-8,c),
(2136,559,ls),
(2410,834,o),
(2610,1076,o),
(2610,1412,cs),
(2610,1825,o),
(2314,2116,o),
(1931,2116,cs),
(1739,2116,o),
(1570,2042,o),
(1448,1920,c),
(1326,2042,o),
(1157,2116,o),
(965,2116,cs),
(583,2116,o),
(286,1825,o),
(286,1412,cs),
(286,1076,o),
(486,834,o),
(760,559,cs),
(1315,-8,l),
(1349,-42,o),
(1399,-64,o),
(1448,-64,cs)
);
},
{
closed = 1;
nodes = (
(1026,818,ls),
(745,1098,o),
(656,1242,o),
(656,1412,cs),
(656,1627,o),
(792,1746,o),
(965,1746,cs),
(1141,1746,o),
(1263,1624,o),
(1263,1448,cs),
(1263,1346,o),
(1346,1263,o),
(1448,1263,cs),
(1550,1263,o),
(1633,1346,o),
(1633,1448,cs),
(1633,1624,o),
(1755,1746,o),
(1931,1746,cs),
(2104,1746,o),
(2240,1627,o),
(2240,1412,cs),
(2240,1242,o),
(2151,1098,o),
(1870,818,cs),
(1448,386,l)
);
}
);
width = 2896;
}
);
metricWidth = symbolBase;
unicode = 1024050;
}
{
color = 11;
glyphname = iconHeart.medium;
layers = (
{
layerId = "CD0E3B44-F66A-4791-B84C-A1128DC61275";
metricWidth = "=symbolBase.medium";
shapes = (
{
closed = 1;
nodes = (
(1849,-244,o),
(1882,-229,o),
(1907,-205,cs),
(2597,504,ls),
(2938,854,o),
(3164,1128,o),
(3164,1502,cs),
(3164,1964,o),
(2836,2281,o),
(2413,2281,cs),
(2151,2281,o),
(1937,2157,o),
(1810,1973,c),
(1680,2163,o),
(1463,2281,o),
(1207,2281,cs),
(787,2281,o),
(459,1964,o),
(459,1502,cs),
(459,1131,o),
(682,857,o),
(1026,504,cs),
(1716,-205,ls),
(1741,-229,o),
(1774,-244,o),
(1810,-244,cs)
);
},
{
closed = 1;
nodes = (
(1210,688,ls),
(869,1035,o),
(721,1243,o),
(721,1502,cs),
(721,1822,o),
(935,2018,o),
(1207,2018,cs),
(1481,2018,o),
(1680,1822,o),
(1680,1548,cs),
(1680,1475,o),
(1738,1415,o),
(1810,1415,cs),
(1882,1415,o),
(1943,1475,o),
(1943,1548,cs),
(1943,1819,o),
(2139,2018,o),
(2413,2018,cs),
(2688,2018,o),
(2902,1822,o),
(2902,1502,cs),
(2902,1246,o),
(2766,1047,o),
(2413,688,cs),
(1810,75,l)
);
}
);
userData = {
RMXScaler = {
height = 125;
verticalShift = -85;
width = 125;
};
};
width = 3620;
},
{
layerId = "B1F27B51-9973-4381-9301-4FE46FE1CA59";
metricWidth = "=symbolBase.medium";
shapes = (
{
closed = 1;
nodes = (
(1821,-198,o),
(1840,-193,o),
(1850,-180,c),
(2545,529,ls),
(2902,896,o),
(3091,1142,o),
(3091,1478,cs),
(3091,1905,o),
(2790,2186,o),
(2413,2186,cs),
(2140,2186,o),
(1916,2044,o),
(1810,1816,c),
(1701,2050,o),
(1470,2186,o),
(1207,2186,cs),
(827,2186,o),
(526,1905,o),
(526,1478,cs),
(526,1142,o),
(714,896,o),
(1072,529,cs),
(1766,-180,l),
(1776,-193,o),
(1795,-198,o),
(1810,-198,cs)
);
},
{
closed = 1;
nodes = (
(1157,614,ls),
(799,977,o),
(648,1198,o),
(648,1478,cs),
(648,1836,o),
(893,2064,o),
(1207,2064,cs),
(1516,2064,o),
(1748,1837,o),
(1748,1523,cs),
(1748,1490,o),
(1776,1461,o),
(1810,1461,cs),
(1840,1461,o),
(1869,1490,o),
(1869,1523,cs),
(1869,1837,o),
(2101,2064,o),
(2413,2064,cs),
(2723,2064,o),
(2969,1836,o),
(2969,1478,cs),
(2969,1187,o),
(2795,956,o),
(2460,614,cs),
(1810,-47,l)
);
}
);
userData = {
RMXScaler = {
height = 125;
verticalShift = -85;
width = 125;
};
};
width = 3620;
},
{
layerId = "5C20EF92-B63D-42A8-8878-93C2863E0093";
metricWidth = "=symbolBase.medium";
shapes = (
{
closed = 1;
nodes = (
(1865,-309,o),
(1918,-284,o),
(1955,-246,c),
(2649,460,ls),
(2993,808,o),
(3235,1103,o),
(3235,1509,cs),
(3235,2009,o),
(2878,2361,o),
(2413,2361,cs),
(2179,2361,o),
(1963,2270,o),
(1810,2102,c),
(1658,2270,o),
(1441,2361,o),
(1207,2361,cs),
(742,2361,o),
(385,2009,o),
(385,1509,cs),
(385,1103,o),
(627,808,o),
(971,460,cs),
(1665,-246,l),
(1702,-284,o),
(1755,-309,o),
(1810,-309,cs)
);
},
{
closed = 1;
nodes = (
(1261,746,ls),
(908,1108,o),
(791,1288,o),
(791,1509,cs),
(791,1793,o),
(977,1954,o),
(1207,1954,cs),
(1443,1954,o),
(1607,1790,o),
(1607,1555,cs),
(1607,1443,o),
(1699,1350,o),
(1810,1350,cs),
(1921,1350,o),
(2013,1443,o),
(2013,1555,cs),
(2013,1790,o),
(2177,1954,o),
(2413,1954,cs),
(2643,1954,o),
(2829,1793,o),
(2829,1509,cs),
(2829,1288,o),
(2715,1111,o),
(2359,746,cs),
(1810,185,l)
);
}
);
userData = {
RMXScaler = {
height = 125;
verticalShift = -85;
width = 125;
};
};
width = 3620;
}
);
unicode = 1024050;
userData = {
RMXScaler = {
source = iconHeart.small;
};
};
}
{
color = 11;
glyphname = iconMessage.medium;
layers = (
{
layerId = "CD0E3B44-F66A-4791-B84C-A1128DC61275";
metricWidth = "=baseSymbol.medium";
shapes = (
{
closed = 1;
nodes = (
(1795,-332,o),
(1870,-311,o),
(1910,-265,cs),
(2395,293,l),
(3168,293,ls),
(3240,293,o),
(3300,350,o),
(3300,422,cs),
(3300,2232,ls),
(3300,2305,o),
(3240,2362,o),
(3168,2362,cs),
(453,2362,ls),
(383,2362,o),
(323,2305,o),
(323,2232,cs),
(323,422,ls),
(323,350,o),
(383,293,o),
(453,293,cs),
(1499,293,ls),
(1569,293,o),
(1629,350,o),
(1629,422,cs),
(1629,495,o),
(1569,552,o),
(1499,552,cs),
(585,552,l),
(585,2103,l),
(3038,2103,l),
(3038,552,l),
(2332,552,ls),
(2290,552,o),
(2256,534,o),
(2232,507,cs),
(1713,-97,ls),
(1659,-160,o),
(1680,-244,o),
(1732,-284,cs)
);
},
{
closed = 1;
nodes = (
(1339,1177,o),
(1409,1243,o),
(1409,1327,cs),
(1409,1412,o),
(1339,1478,o),
(1258,1478,cs),
(1173,1478,o),
(1107,1409,o),
(1107,1327,cs),
(1107,1246,o),
(1173,1177,o),
(1258,1177,cs)
);
},
{
closed = 1;
nodes = (
(1894,1177,o),
(1961,1246,o),
(1961,1327,cs),
(1961,1409,o),
(1894,1478,o),
(1810,1478,cs),
(1729,1478,o),
(1659,1412,o),
(1659,1327,cs),
(1659,1243,o),
(1729,1177,o),
(1810,1177,cs)
);
},
{
closed = 1;
nodes = (
(2450,1177,o),
(2516,1246,o),
(2516,1327,cs),
(2516,1409,o),
(2450,1478,o),
(2365,1478,cs),
(2284,1478,o),
(2214,1412,o),
(2214,1327,cs),
(2214,1243,o),
(2284,1177,o),
(2365,1177,cs)
);
}
);
userData = {
RMXScaler = {
height = 125;
verticalShift = -85;
width = 125;
};
};
width = 3620;
},
{
layerId = "B1F27B51-9973-4381-9301-4FE46FE1CA59";
metricWidth = "=baseSymbol.medium";
shapes = (
{
closed = 1;
nodes = (
(1796,-247,o),
(1832,-243,o),
(1853,-220,cs),
(2360,360,l),
(3168,360,ls),
(3198,360,o),
(3227,388,o),
(3227,422,cs),
(3227,2232,ls),
(3227,2267,o),
(3198,2295,o),
(3168,2295,cs),
(453,2295,ls),
(418,2295,o),
(390,2267,o),
(390,2232,cs),
(390,422,ls),
(390,388,o),
(418,360,o),
(453,360,cs),
(1496,360,ls),
(1529,360,o),
(1556,388,o),
(1556,422,cs),
(1556,457,o),
(1529,485,o),
(1496,485,cs),
(512,485,l),
(512,2170,l),
(3105,2170,l),
(3105,485,l),
(2329,485,ls),
(2318,485,o),
(2296,478,o),
(2282,462,cs),
(1763,-142,ls),
(1744,-164,o),
(1745,-206,o),
(1771,-227,cs)
);
},
{
closed = 1;
nodes = (
(1336,1177,o),
(1406,1243,o),
(1406,1327,cs),
(1406,1412,o),
(1336,1478,o),
(1255,1478,cs),
(1170,1478,o),
(1104,1409,o),
(1104,1327,cs),
(1104,1246,o),
(1170,1177,o),
(1255,1177,cs)
);
},
{
closed = 1;
nodes = (
(1891,1177,o),
(1961,1243,o),
(1961,1327,cs),
(1961,1412,o),
(1891,1478,o),
(1810,1478,cs),
(1726,1478,o),
(1659,1409,o),
(1659,1327,cs),
(1659,1246,o),
(1726,1177,o),
(1810,1177,cs)
);
},
{
closed = 1;
nodes = (
(2447,1177,o),
(2513,1246,o),
(2513,1327,cs),
(2513,1409,o),
(2447,1478,o),
(2362,1478,cs),
(2281,1478,o),
(2211,1412,o),
(2211,1327,cs),
(2211,1243,o),
(2281,1177,o),
(2362,1177,cs)
);
}
);
userData = {
RMXScaler = {
height = 125;
verticalShift = -85;
width = 125;
};
};
width = 3620;
},
{
layerId = "5C20EF92-B63D-42A8-8878-93C2863E0093";
metricWidth = "=baseSymbol.medium";
shapes = (
{
closed = 1;
nodes = (
(1757,-406,o),
(1886,-403,o),
(1964,-314,cs),
(2424,219,l),
(3168,219,ls),
(3278,219,o),
(3371,312,o),
(3371,422,cs),
(3371,2232,ls),
(3371,2343,o),
(3278,2435,o),
(3168,2435,cs),
(453,2435,ls),
(342,2435,o),
(249,2343,o),
(249,2232,cs),
(249,422,ls),
(249,312,o),
(342,219,o),
(453,219,cs),
(1496,219,ls),
(1611,219,o),
(1699,312,o),
(1699,422,cs),
(1699,533,o),
(1611,625,o),
(1496,625,cs),
(656,625,l),
(656,2029,l),
(2964,2029,l),
(2964,625,l),
(2332,625,ls),
(2274,625,o),
(2218,601,o),
(2178,555,cs),
(1656,-48,ls),
(1582,-135,o),
(1594,-260,o),
(1674,-332,cs)
);
},
{
closed = 1;
nodes = (
(1339,1177,o),
(1406,1246,o),
(1406,1327,cs),
(1406,1409,o),
(1339,1478,o),
(1255,1478,cs),
(1173,1478,o),
(1104,1412,o),
(1104,1327,cs),
(1104,1243,o),
(1173,1177,o),
(1255,1177,cs)
);
},
{
closed = 1;
nodes = (
(1894,1177,o),
(1961,1246,o),
(1961,1327,cs),
(1961,1412,o),
(1894,1478,o),
(1810,1478,cs),
(1729,1478,o),
(1659,1412,o),
(1659,1327,cs),
(1659,1246,o),
(1729,1177,o),
(1810,1177,cs)
);
},
{
closed = 1;
nodes = (
(2447,1177,o),
(2516,1243,o),
(2516,1327,cs),
(2516,1412,o),
(2447,1478,o),
(2365,1478,cs),
(2281,1478,o),
(2214,1409,o),
(2214,1327,cs),
(2214,1246,o),
(2281,1177,o),
(2365,1177,cs)
);
}
);
userData = {
RMXScaler = {
height = 125;
verticalShift = -85;
width = 125;
};
};
width = 3620;
}
);
unicode = 1024051;
userData = {
RMXScaler = {
source = iconMessage.small;
};
};
}
{
color = 11;
glyphname = iconNeithStation;
layers = (
{
layerId = "B1F27B51-9973-4381-9301-4FE46FE1CA59";
shapes = (
{
closed = 1;
nodes = (
(745,-140,o),
(960,75,o),
(960,340,cs),
(960,605,o),
(745,820,o),
(480,820,cs),
(215,820,o),
(0,605,o),
(0,340,cs),
(0,75,o),
(215,-140,o),
(480,-140,cs)
);
},
{
closed = 1;
nodes = (
(248,-49,o),
(162,18,o),
(107,107,c),
(220,144,l),
(253,100,o),
(298,64,o),
(350,42,c),
(350,-80,l)
);
},
{
closed = 1;
nodes = (
(322,118,o),
(297,138,o),
(275,162,c),
(350,187,l),
(350,103,l)
);
},
{
closed = 1;
nodes = (
(508,17,l),
(603,25,o),
(686,73,o),
(740,144,c),
(853,107,l),
(780,-10,o),
(654,-90,o),
(508,-99,c)
);
},
{
closed = 1;
nodes = (
(508,188,l),
(606,188,l),
(684,162,l),
(640,112,o),
(578,79,o),
(508,72,c)
);
},
{
closed = 1;
nodes = (
(443,-100,o),
(406,-95,o),
(372,-87,c),
(372,267,l),
(350,267,l),
(350,208,l),
(214,167,l),
(317,521,ls),
(336,588,o),
(407,632,o),
(485,632,cs),
(557,632,o),
(619,592,o),
(646,534,c),
(651,534,o),
(655,535,o),
(659,539,cs),
(666,546,o),
(665,556,o),
(658,562,cs),
(630,587,ls),
(610,605,o),
(608,636,o),
(626,657,cs),
(645,677,o),
(676,678,o),
(696,660,cs),
(705,652,ls),
(712,646,o),
(713,635,o),
(707,628,cs),
(700,621,o),
(690,621,o),
(683,627,cs),
(674,635,ls),
(667,641,o),
(657,641,o),
(651,634,cs),
(645,628,o),
(646,618,o),
(652,612,cs),
(680,587,ls),
(700,568,o),
(702,537,o),
(684,517,cs),
(676,509,o),
(666,501,o),
(646,501,cs),
(487,501,l),
(487,-100,l),
(480,-100,ls)
);
},
{
closed = 1;
nodes = (
(508,419,l),
(534,420,l),
(540,416,o),
(557,408,o),
(573,408,cs),
(589,408,o),
(606,418,o),
(613,423,c),
(628,422,l),
(623,442,l),
(618,443,o),
(609,446,o),
(598,447,c),
(599,444,o),
(600,441,o),
(600,438,cs),
(600,428,o),
(592,421,o),
(583,421,cs),
(573,421,o),
(565,428,o),
(565,438,cs),
(565,441,o),
(566,444,o),
(567,447,c),
(548,444,o),
(534,440,o),
(513,433,c),
(508,433,l),
(508,480,l),
(639,480,l),
(640,472,o),
(641,463,o),
(641,455,cs),
(641,446,l),
(682,372,l),
(642,357,l),
(642,273,l),
(585,273,l),
(585,210,l),
(508,210,l)
);
}
);
width = 960;
},
{
layerId = "CD0E3B44-F66A-4791-B84C-A1128DC61275";
shapes = (
{
closed = 1;
nodes = (
(745,-140,o),
(960,75,o),
(960,340,cs),
(960,605,o),
(745,820,o),
(480,820,cs),
(215,820,o),
(0,605,o),
(0,340,cs),
(0,75,o),
(215,-140,o),
(480,-140,cs)
);
},
{
closed = 1;
nodes = (
(248,-49,o),
(162,18,o),
(107,107,c),
(220,144,l),
(253,100,o),
(298,64,o),
(350,42,c),
(350,-80,l)
);
},
{
closed = 1;
nodes = (
(322,118,o),
(297,138,o),
(275,162,c),
(350,187,l),
(350,103,l)
);
},
{
closed = 1;
nodes = (
(508,17,l),
(603,25,o),
(686,73,o),
(740,144,c),
(853,107,l),
(780,-10,o),
(654,-90,o),
(508,-99,c)
);
},
{
closed = 1;
nodes = (
(508,188,l),
(606,188,l),
(684,162,l),
(640,112,o),
(578,79,o),
(508,72,c)
);
},
{
closed = 1;
nodes = (
(443,-100,o),
(406,-95,o),
(372,-87,c),
(372,267,l),
(350,267,l),
(350,208,l),
(214,167,l),
(317,521,ls),
(336,588,o),
(407,632,o),
(485,632,cs),
(557,632,o),
(619,592,o),
(646,534,c),
(651,534,o),
(655,535,o),
(659,539,cs),
(666,546,o),
(665,556,o),
(658,562,cs),
(630,587,ls),
(610,605,o),
(608,636,o),
(626,657,cs),
(645,677,o),
(676,678,o),
(696,660,cs),
(705,652,ls),
(712,646,o),
(713,635,o),
(707,628,cs),
(700,621,o),
(690,621,o),
(683,627,cs),
(674,635,ls),
(667,641,o),
(657,641,o),
(651,634,cs),
(645,628,o),
(646,618,o),
(652,612,cs),
(680,587,ls),
(700,568,o),
(702,537,o),
(684,517,cs),
(676,509,o),
(666,501,o),
(646,501,cs),
(487,501,l),
(487,-100,l),
(480,-100,ls)
);
},
{
closed = 1;
nodes = (
(508,419,l),
(534,420,l),
(540,416,o),
(557,408,o),
(573,408,cs),
(589,408,o),
(606,418,o),
(613,423,c),
(628,422,l),
(623,442,l),
(618,443,o),
(609,446,o),
(598,447,c),
(599,444,o),
(600,441,o),
(600,438,cs),
(600,428,o),
(592,421,o),
(583,421,cs),
(573,421,o),
(565,428,o),
(565,438,cs),
(565,441,o),
(566,444,o),
(567,447,c),
(548,444,o),
(534,440,o),
(513,433,c),
(508,433,l),
(508,480,l),
(639,480,l),
(640,472,o),
(641,463,o),
(641,455,cs),
(641,446,l),
(682,372,l),
(642,357,l),
(642,273,l),
(585,273,l),
(585,210,l),
(508,210,l)
);
}
);
width = 960;
},
{
layerId = "5C20EF92-B63D-42A8-8878-93C2863E0093";
shapes = (
{
closed = 1;
nodes = (
(745,-140,o),
(960,75,o),
(960,340,cs),
(960,605,o),
(745,820,o),
(480,820,cs),
(215,820,o),
(0,605,o),
(0,340,cs),
(0,75,o),
(215,-140,o),
(480,-140,cs)
);
},
{
closed = 1;
nodes = (
(248,-49,o),
(162,18,o),
(107,107,c),
(220,144,l),
(253,100,o),
(298,64,o),
(350,42,c),
(350,-80,l)
);
},
{
closed = 1;
nodes = (
(322,118,o),
(297,138,o),
(275,162,c),
(350,187,l),
(350,103,l)
);
},
{
closed = 1;
nodes = (
(508,17,l),
(603,25,o),
(686,73,o),
(740,144,c),
(853,107,l),
(780,-10,o),
(654,-90,o),
(508,-99,c)
);
},
{
closed = 1;
nodes = (
(508,188,l),
(606,188,l),
(684,162,l),
(640,112,o),
(578,79,o),
(508,72,c)
);
},
{
closed = 1;
nodes = (
(443,-100,o),
(406,-95,o),
(372,-87,c),
(372,267,l),
(350,267,l),
(350,208,l),
(214,167,l),
(317,521,ls),
(336,588,o),
(407,632,o),
(485,632,cs),
(557,632,o),
(619,592,o),
(646,534,c),
(651,534,o),
(655,535,o),
(659,539,cs),
(666,546,o),
(665,556,o),
(658,562,cs),
(630,587,ls),
(610,605,o),
(608,636,o),
(626,657,cs),
(645,677,o),
(676,678,o),
(696,660,cs),
(705,652,ls),
(712,646,o),
(713,635,o),
(707,628,cs),
(700,621,o),
(690,621,o),
(683,627,cs),
(674,635,ls),
(667,641,o),
(657,641,o),
(651,634,cs),
(645,628,o),
(646,618,o),
(652,612,cs),
(680,587,ls),
(700,568,o),
(702,537,o),
(684,517,cs),
(676,509,o),
(666,501,o),
(646,501,cs),
(487,501,l),
(487,-100,l),
(480,-100,ls)
);
},
{
closed = 1;
nodes = (
(508,419,l),
(534,420,l),
(540,416,o),
(557,408,o),
(573,408,cs),
(589,408,o),
(606,418,o),
(613,423,c),
(628,422,l),
(623,442,l),
(618,443,o),
(609,446,o),
(598,447,c),
(599,444,o),
(600,441,o),
(600,438,cs),
(600,428,o),
(592,421,o),
(583,421,cs),
(573,421,o),
(565,428,o),
(565,438,cs),
(565,441,o),
(566,444,o),
(567,447,c),
(548,444,o),
(534,440,o),
(513,433,c),
(508,433,l),
(508,480,l),
(639,480,l),
(640,472,o),
(641,463,o),
(641,455,cs),
(641,446,l),
(682,372,l),
(642,357,l),
(642,273,l),
(585,273,l),
(585,210,l),
(508,210,l)
);
}
);
width = 960;
}
);
metricWidth = symbolBase;
unicode = 1024052;
}
{
color = 11;
glyphname = iconNeithStation.medium;
layers = (
{
layerId = "CD0E3B44-F66A-4791-B84C-A1128DC61275";
metricWidth = "=symbolBase.medium";
shapes = (
{
closed = 1;
nodes = (
(2809,-784,o),
(3620,27,o),
(3620,1026,cs),
(3620,2024,o),
(2809,2836,o),
(1810,2836,cs),
(811,2836,o),
(0,2024,o),
(0,1026,cs),
(0,27,o),
(811,-784,o),
(1810,-784,cs)
);
},
{
closed = 1;
nodes = (
(935,-440,o),
(612,-187,o),
(404,148,c),
(830,287,l),
(953,121,o),
(1125,-15,o),
(1321,-100,c),
(1321,-558,l)
);
},
{
closed = 1;
nodes = (
(1216,190,o),
(1122,265,o),
(1038,356,c),
(1321,449,l),
(1321,133,l)
);
},
{
closed = 1;
nodes = (
(1916,-193,l),
(2275,-163,o),
(2588,18,o),
(2790,287,c),
(3216,148,l),
(2941,-296,o),
(2465,-597,o),
(1916,-630,c)
);
},
{
closed = 1;
nodes = (
(1916,453,l),
(2287,453,l),
(2579,356,l),
(2413,166,o),
(2181,42,o),
(1916,15,c)
);
},
{
closed = 1;
nodes = (
(1674,-633,o),
(1532,-615,o),
(1403,-585,c),
(1403,751,l),
(1321,751,l),
(1321,528,l),
(808,374,l),
(1195,1707,ls),
(1267,1958,o),
(1532,2127,o),
(1828,2127,cs),
(2109,2127,o),
(2338,1970,o),
(2437,1759,c),
(2456,1759,o),
(2471,1762,o),
(2486,1777,cs),
(2510,1801,o),
(2510,1840,o),
(2483,1864,cs),
(2377,1958,ls),
(2302,2024,o),
(2293,2139,o),
(2359,2217,cs),
(2434,2305,o),
(2555,2296,o),
(2625,2232,cs),
(2658,2202,ls),
(2688,2175,o),
(2685,2133,o),
(2664,2112,cs),
(2634,2082,o),
(2597,2091,o),
(2576,2109,cs),
(2540,2139,ls),
(2510,2163,o),
(2477,2157,o),
(2456,2136,cs),
(2434,2115,o),
(2431,2075,o),
(2459,2051,cs),
(2564,1958,ls),
(2643,1888,o),
(2652,1768,o),
(2579,1692,cs),
(2546,1656,o),
(2504,1632,o),
(2437,1632,cs),
(1837,1632,l),
(1837,-633,l),
(1810,-633,ls)
);
},
{
closed = 1;
nodes = (
(1916,1324,l),
(2015,1327,l),
(2042,1309,o),
(2106,1282,o),
(2160,1282,cs),
(2217,1282,o),
(2278,1315,o),
(2311,1339,c),
(2368,1336,l),
(2350,1412,l),
(2332,1415,o),
(2299,1427,o),
(2256,1430,c),
(2259,1418,o),
(2263,1406,o),
(2263,1397,cs),
(2263,1358,o),
(2232,1330,o),
(2199,1330,cs),
(2160,1330,o),
(2130,1358,o),
(2130,1397,cs),
(2130,1403,o),
(2136,1421,o),
(2139,1430,c),
(2066,1418,o),
(2012,1403,o),
(1934,1376,c),
(1916,1376,l),
(1916,1554,l),
(2410,1554,l),
(2413,1523,o),
(2416,1487,o),
(2416,1460,cs),
(2416,1427,l),
(2573,1146,l),
(2422,1089,l),
(2422,772,l),
(2205,772,l),
(2205,537,l),
(1916,537,l)
);
}
);
userData = {
RMXScaler = {
height = 125;
verticalShift = -85;
width = 125;
};
};
width = 3620;
},
{
layerId = "B1F27B51-9973-4381-9301-4FE46FE1CA59";
metricWidth = "=symbolBase.medium";
shapes = (
{
closed = 1;
nodes = (
(2809,-784,o),
(3620,27,o),
(3620,1026,cs),
(3620,2024,o),
(2809,2836,o),
(1810,2836,cs),
(811,2836,o),
(0,2024,o),
(0,1026,cs),
(0,27,o),
(811,-784,o),
(1810,-784,cs)
);
},
{
closed = 1;
nodes = (
(935,-440,o),
(612,-187,o),
(404,148,c),
(830,287,l),
(953,121,o),
(1125,-15,o),
(1321,-100,c),
(1321,-558,l)
);
},
{
closed = 1;
nodes = (
(1216,190,o),
(1122,265,o),
(1038,356,c),
(1321,449,l),
(1321,133,l)
);
},
{
closed = 1;
nodes = (
(1916,-193,l),
(2275,-163,o),
(2588,18,o),
(2790,287,c),
(3216,148,l),
(2941,-296,o),
(2465,-597,o),
(1916,-630,c)
);
},
{
closed = 1;
nodes = (
(1916,453,l),
(2287,453,l),
(2579,356,l),
(2413,166,o),
(2178,42,o),
(1916,15,c)
);
},
{
closed = 1;
nodes = (
(1674,-633,o),
(1532,-615,o),
(1403,-585,c),
(1403,751,l),
(1321,751,l),
(1321,528,l),
(808,374,l),
(1195,1707,ls),
(1267,1958,o),
(1532,2127,o),
(1828,2127,cs),
(2109,2127,o),
(2338,1970,o),
(2437,1759,c),
(2456,1759,o),
(2471,1762,o),
(2486,1777,cs),
(2510,1801,o),
(2510,1840,o),
(2483,1864,cs),
(2377,1958,ls),
(2302,2024,o),
(2293,2139,o),
(2359,2217,cs),
(2434,2305,o),
(2555,2296,o),
(2625,2232,cs),
(2658,2202,ls),
(2688,2175,o),
(2685,2133,o),
(2664,2112,cs),
(2634,2082,o),
(2597,2091,o),
(2576,2109,cs),
(2540,2139,ls),
(2510,2163,o),
(2477,2157,o),
(2456,2136,cs),
(2431,2112,o),
(2434,2072,o),
(2459,2051,cs),
(2564,1958,ls),
(2643,1888,o),
(2652,1768,o),
(2579,1692,cs),
(2546,1656,o),
(2504,1632,o),
(2437,1632,cs),
(1837,1632,l),
(1837,-633,l),
(1810,-633,ls)
);
},
{
closed = 1;
nodes = (
(1916,1324,l),
(2015,1327,l),
(2042,1309,o),
(2106,1282,o),
(2160,1282,cs),
(2217,1282,o),
(2278,1315,o),
(2311,1339,c),
(2368,1336,l),
(2350,1412,l),
(2332,1415,o),
(2299,1427,o),
(2256,1430,c),
(2259,1418,o),
(2263,1406,o),
(2263,1397,cs),
(2263,1358,o),
(2232,1330,o),
(2199,1330,cs),
(2160,1330,o),
(2130,1358,o),
(2130,1397,cs),
(2130,1403,o),
(2136,1421,o),
(2139,1430,c),
(2066,1418,o),
(2012,1403,o),
(1934,1376,c),
(1916,1376,l),
(1916,1554,l),
(2410,1554,l),
(2413,1523,o),
(2416,1487,o),
(2416,1460,cs),
(2416,1427,l),
(2573,1146,l),
(2422,1089,l),
(2422,772,l),
(2205,772,l),
(2205,537,l),
(1916,537,l)
);
}
);
userData = {
RMXScaler = {
height = 125;
verticalShift = -85;
width = 125;
};
};
width = 3620;
},
{
layerId = "5C20EF92-B63D-42A8-8878-93C2863E0093";
metricWidth = "=symbolBase.medium";
shapes = (
{
closed = 1;
nodes = (
(2809,-784,o),
(3620,27,o),
(3620,1026,cs),
(3620,2024,o),
(2809,2836,o),
(1810,2836,cs),
(811,2836,o),
(0,2024,o),
(0,1026,cs),
(0,27,o),
(811,-784,o),
(1810,-784,cs)
);
},
{
closed = 1;
nodes = (
(935,-440,o),
(612,-187,o),
(404,148,c),
(830,287,l),
(953,121,o),
(1125,-15,o),
(1321,-100,c),
(1321,-558,l)
);
},
{
closed = 1;
nodes = (
(1216,190,o),
(1122,265,o),
(1038,356,c),
(1321,449,l),
(1321,133,l)
);
},
{
closed = 1;
nodes = (
(1916,-193,l),
(2275,-163,o),
(2588,18,o),
(2790,287,c),
(3216,148,l),
(2941,-296,o),
(2465,-597,o),
(1916,-630,c)
);
},
{
closed = 1;
nodes = (
(1916,453,l),
(2287,453,l),
(2579,356,l),
(2413,166,o),
(2181,42,o),
(1916,15,c)
);
},
{
closed = 1;
nodes = (
(1674,-633,o),
(1532,-615,o),
(1403,-585,c),
(1403,751,l),
(1321,751,l),
(1321,528,l),
(808,374,l),
(1195,1707,ls),
(1267,1958,o),
(1532,2127,o),
(1828,2127,cs),
(2109,2127,o),
(2338,1970,o),
(2437,1759,c),
(2456,1759,o),
(2471,1762,o),
(2486,1777,cs),
(2510,1801,o),
(2510,1840,o),
(2483,1864,cs),
(2377,1958,ls),
(2302,2024,o),
(2293,2139,o),
(2359,2217,cs),
(2434,2305,o),
(2555,2296,o),
(2625,2232,cs),
(2658,2202,ls),
(2688,2175,o),
(2685,2133,o),
(2664,2112,cs),
(2634,2082,o),
(2597,2091,o),
(2576,2109,cs),
(2540,2139,ls),
(2510,2163,o),
(2477,2157,o),
(2456,2136,cs),
(2434,2115,o),
(2431,2075,o),
(2459,2051,cs),
(2564,1958,ls),
(2643,1888,o),
(2652,1768,o),
(2579,1692,cs),
(2546,1656,o),
(2504,1632,o),
(2437,1632,cs),
(1837,1632,l),
(1837,-633,l),
(1810,-633,ls)
);
},
{
closed = 1;
nodes = (
(1916,1324,l),
(2015,1327,l),
(2042,1309,o),
(2106,1282,o),
(2160,1282,cs),
(2217,1282,o),
(2278,1315,o),
(2311,1339,c),
(2368,1336,l),
(2350,1412,l),
(2332,1415,o),
(2299,1427,o),
(2256,1430,c),
(2259,1418,o),
(2263,1406,o),
(2263,1397,cs),
(2263,1358,o),
(2232,1330,o),
(2199,1330,cs),
(2160,1330,o),
(2130,1358,o),
(2130,1397,cs),
(2130,1403,o),
(2136,1421,o),
(2139,1430,c),
(2066,1418,o),
(2012,1403,o),
(1934,1376,c),
(1916,1376,l),
(1916,1554,l),
(2410,1554,l),
(2413,1523,o),
(2416,1487,o),
(2416,1460,cs),
(2416,1427,l),
(2573,1146,l),
(2422,1089,l),
(2422,772,l),
(2205,772,l),
(2205,537,l),
(1916,537,l)
);
}
);
userData = {
RMXScaler = {
height = 125;
verticalShift = -85;
width = 125;
};
};
width = 3620;
}
);
unicode = 1024052;
userData = {
RMXScaler = {
source = iconNeithStation.small;
};
};
}
{
color = 11;
glyphname = iconPen.medium;
layers = (
{
layerId = "CD0E3B44-F66A-4791-B84C-A1128DC61275";
metricWidth = "=symbolBase.medium";
shapes = (
{
closed = 1;
nodes = (
(1222,-305,ls),
(1249,-305,o),
(1282,-296,o),
(1309,-268,cs),
(2996,1418,ls),
(3023,1445,o),
(3032,1457,o),
(3068,1493,cs),
(3152,1578,o),
(3177,1741,o),
(3068,1861,cs),
(3053,1876,o),
(3038,1894,o),
(2996,1937,cs),
(2721,2211,ls),
(2682,2250,o),
(2646,2284,o),
(2631,2296,cs),
(2513,2389,o),
(2356,2365,o),
(2278,2287,cs),
(2244,2256,o),
(2229,2238,o),
(2202,2211,cs),
(513,525,ls),
(489,501,o),
(480,468,o),
(480,437,cs),
(480,-181,ls),
(480,-253,o),
(531,-305,o),
(603,-305,cs)
);
},
{
closed = 1;
nodes = (
(727,389,l),
(2371,2033,ls),
(2401,2063,o),
(2416,2075,o),
(2440,2100,cs),
(2456,2115,o),
(2471,2109,o),
(2480,2100,cs),
(2501,2078,o),
(2516,2066,o),
(2549,2033,cs),
(2818,1765,ls),
(2854,1729,o),
(2860,1716,o),
(2881,1698,cs),
(2893,1686,o),
(2893,1668,o),
(2881,1656,cs),
(2848,1623,o),
(2869,1641,o),
(2818,1590,cs),
(1170,-57,l),
(727,-57,l)
);
}
);
userData = {
RMXScaler = {
height = 125;
verticalShift = -85;
width = 125;
};
};
width = 3620;
},
{
layerId = "B1F27B51-9973-4381-9301-4FE46FE1CA59";
metricWidth = "=symbolBase.medium";
shapes = (
{
closed = 1;
nodes = (
(1222,-244,ls),
(1238,-244,o),
(1250,-239,o),
(1263,-226,cs),
(2949,1460,ls),
(2981,1491,o),
(2996,1509,o),
(3022,1535,cs),
(3098,1615,o),
(3089,1751,o),
(3022,1819,cs),
(2987,1857,o),
(2979,1865,o),
(2949,1895,cs),
(2679,2165,ls),
(2650,2194,o),
(2640,2201,o),
(2605,2236,cs),
(2526,2315,o),
(2390,2308,o),
(2320,2237,cs),
(2287,2203,o),
(2275,2192,o),
(2244,2165,cs),
(559,483,l),
(549,476,o),
(540,460,o),
(540,437,cs),
(540,-181,ls),
(540,-215,o),
(569,-244,o),
(603,-244,cs)
);
},
{
closed = 1;
nodes = (
(664,414,l),
(2329,2075,ls),
(2363,2110,o),
(2374,2119,o),
(2402,2147,cs),
(2442,2183,o),
(2492,2176,o),
(2521,2147,cs),
(2536,2132,o),
(2591,2075,o),
(2591,2075,cs),
(2860,1807,ls),
(2893,1774,o),
(2910,1758,o),
(2931,1737,cs),
(2964,1703,o),
(2964,1654,o),
(2931,1618,cs),
(2914,1601,o),
(2913,1596,o),
(2860,1544,cs),
(1196,-118,l),
(664,-118,l)
);
}
);
userData = {
RMXScaler = {
height = 125;
verticalShift = -85;
width = 125;
};
};
width = 3620;
},
{
layerId = "5C20EF92-B63D-42A8-8878-93C2863E0093";
metricWidth = "=symbolBase.medium";
shapes = (
{
closed = 1;
nodes = (
(1222,-381,ls),
(1271,-381,o),
(1323,-363,o),
(1364,-323,cs),
(3050,1364,ls),
(3077,1391,o),
(3108,1425,o),
(3129,1445,cs),
(3242,1571,o),
(3248,1760,o),
(3138,1896,cs),
(3114,1928,o),
(3099,1940,o),
(3050,1988,cs),
(2772,2266,ls),
(2733,2302,o),
(2728,2317,o),
(2682,2354,cs),
(2529,2476,o),
(2343,2441,o),
(2235,2351,cs),
(2215,2333,o),
(2190,2309,o),
(2148,2266,cs),
(462,582,l),
(424,545,o),
(402,496,o),
(402,437,cs),
(402,-181,ls),
(402,-292,o),
(493,-381,o),
(603,-381,cs)
);
},
{
closed = 1;
nodes = (
(804,354,l),
(2431,1985,ls),
(2443,1996,o),
(2455,2005,o),
(2457,2007,cs),
(2463,2009,o),
(2458,2016,o),
(2467,2007,cs),
(2472,2002,o),
(2480,1997,o),
(2492,1985,cs),
(2766,1707,ls),
(2783,1689,o),
(2770,1700,o),
(2791,1682,cs),
(2796,1679,o),
(2793,1675,o),
(2791,1672,cs),
(2789,1671,o),
(2776,1661,o),
(2766,1651,cs),
(1138,19,l),
(804,19,l)
);
}
);
userData = {
RMXScaler = {
height = 125;
verticalShift = -85;
width = 125;
};
};
width = 3620;
}
);
unicode = 1024053;
userData = {
RMXScaler = {
source = iconPen.small;
};
};
}
{
color = 11;
glyphname = iconPerson.medium;
layers = (
{
layerId = "CD0E3B44-F66A-4791-B84C-A1128DC61275";
metricWidth = "=baseSymbol.medium";
shapes = (
{
closed = 1;
nodes = (
(609,-561,o),
(664,-501,o),
(673,-443,cs),
(751,30,o),
(1167,443,o),
(1810,443,cs),
(2456,443,o),
(2872,27,o),
(2950,-446,cs),
(2962,-519,o),
(3032,-558,o),
(3092,-552,cs),
(3152,-546,o),
(3222,-489,o),
(3207,-401,cs),
(3107,199,o),
(2579,703,o),
(1810,703,cs),
(1047,703,o),
(519,205,o),
(416,-398,cs),
(404,-468,o),
(449,-543,o),
(528,-552,cs)
);
},
{
closed = 1;
nodes = (
(2259,845,o),
(2625,1213,o),
(2625,1659,cs),
(2625,2106,o),
(2259,2474,o),
(1810,2474,cs),
(1364,2474,o),
(996,2109,o),
(996,1659,cs),
(996,1210,o),
(1364,845,o),
(1810,845,cs)
);
},
{
closed = 1;
nodes = (
(1508,1107,o),
(1258,1354,o),
(1258,1659,cs),
(1258,1964,o),
(1508,2211,o),
(1810,2211,cs),
(2115,2211,o),
(2365,1964,o),
(2365,1659,cs),
(2365,1354,o),
(2115,1107,o),
(1810,1107,cs)
);
}
);
userData = {
RMXScaler = {
height = 125;
verticalShift = -85;
width = 125;
};
};
width = 3620;
},
{
layerId = "B1F27B51-9973-4381-9301-4FE46FE1CA59";
metricWidth = "=baseSymbol.medium";
shapes = (
{
closed = 1;
nodes = (
(568,-491,o),
(597,-465,o),
(602,-433,cs),
(688,82,o),
(1142,511,o),
(1810,511,cs),
(2474,511,o),
(2928,86,o),
(3014,-429,cs),
(3019,-460,o),
(3047,-491,o),
(3081,-486,cs),
(3126,-480,o),
(3141,-437,o),
(3136,-409,cs),
(3031,183,o),
(2514,636,o),
(1810,636,cs),
(1082,636,o),
(579,163,o),
(480,-412,cs),
(475,-442,o),
(496,-480,o),
(535,-486,cs)
);
},
{
closed = 1;
nodes = (
(2256,845,o),
(2625,1210,o),
(2625,1659,cs),
(2625,2109,o),
(2256,2474,o),
(1810,2474,cs),
(1361,2474,o),
(996,2106,o),
(996,1659,cs),
(996,1213,o),
(1361,845,o),
(1810,845,cs)
);
},
{
closed = 1;
nodes = (
(1428,966,o),
(1117,1277,o),
(1117,1659,cs),
(1117,2041,o),
(1428,2352,o),
(1810,2352,cs),
(2189,2352,o),
(2503,2041,o),
(2503,1659,cs),
(2503,1277,o),
(2189,966,o),
(1810,966,cs)
);
}
);
userData = {
RMXScaler = {
height = 125;
verticalShift = -85;
width = 125;
};
};
width = 3620;
},
{
layerId = "5C20EF92-B63D-42A8-8878-93C2863E0093";
metricWidth = "=baseSymbol.medium";
shapes = (
{
closed = 1;
nodes = (
(622,-642,o),
(725,-564,o),
(743,-453,cs),
(815,-15,o),
(1206,370,o),
(1810,370,cs),
(2417,370,o),
(2805,-21,o),
(2877,-460,cs),
(2895,-570,o),
(3000,-642,o),
(3111,-622,cs),
(3226,-604,o),
(3296,-493,o),
(3274,-376,cs),
(3155,265,o),
(2596,776,o),
(1810,776,cs),
(1006,776,o),
(452,250,o),
(343,-385,cs),
(324,-494,o),
(392,-604,o),
(509,-622,cs)
);
},
{
closed = 1;
nodes = (
(2256,845,o),
(2625,1210,o),
(2625,1659,cs),
(2625,2109,o),
(2256,2474,o),
(1810,2474,cs),
(1361,2474,o),
(996,2106,o),
(996,1659,cs),
(996,1213,o),
(1361,845,o),
(1810,845,cs)
);
},
{
closed = 1;
nodes = (
(1586,1252,o),
(1403,1435,o),
(1403,1659,cs),
(1403,1883,o),
(1586,2066,o),
(1810,2066,cs),
(2034,2066,o),
(2217,1883,o),
(2217,1659,cs),
(2217,1435,o),
(2034,1252,o),
(1810,1252,cs)
);
}
);
userData = {
RMXScaler = {
height = 125;
verticalShift = -85;
width = 125;
};
};
width = 3620;
}
);
unicode = 1024054;
userData = {
RMXScaler = {
source = iconPerson.small;
};
};
}
{
color = 11;
glyphname = iconPersons;
layers = (
{
layerId = "CD0E3B44-F66A-4791-B84C-A1128DC61275";
shapes = (
{
closed = 1;
nodes = (
(428,-181,o),
(483,-127,o),
(483,-60,cs),
(483,422,ls),
(483,465,o),
(495,507,o),
(519,543,cs),
(531,558,ls),
(570,618,o),
(637,655,o),
(709,655,cs),
(1520,655,ls),
(1590,655,o),
(1659,618,o),
(1698,558,cs),
(1710,543,l),
(1732,507,o),
(1744,465,o),
(1744,422,cs),
(1744,-60,ls),
(1744,-127,o),
(1798,-181,o),
(1864,-181,cs),
(1934,-181,o),
(1985,-127,o),
(1985,-60,cs),
(1985,422,ls),
(1985,513,o),
(1961,600,o),
(1910,676,cs),
(1897,694,ls),
(1813,821,o),
(1671,896,o),
(1520,896,cs),
(709,896,ls),
(555,896,o),
(413,821,o),
(329,694,cs),
(317,676,ls),
(268,600,o),
(241,513,o),
(241,422,cs),
(241,-60,ls),
(241,-127,o),
(296,-181,o),
(362,-181,cs)
);
},
{
closed = 1;
nodes = (
(2600,-181,o),
(2655,-127,o),
(2655,-60,cs),
(2655,422,ls),
(2655,513,o),
(2628,600,o),
(2579,676,cs),
(2567,694,ls),
(2483,821,o),
(2341,896,o),
(2187,896,cs),
(2118,896,ls),
(2048,896,o),
(1997,842,o),
(1997,775,cs),
(1997,709,o),
(2048,655,o),
(2118,655,cs),
(2187,655,ls),
(2259,655,o),
(2326,618,o),
(2365,558,cs),
(2377,543,ls),
(2401,507,o),
(2413,465,o),
(2413,422,cs),
(2413,-60,ls),
(2413,-127,o),
(2468,-181,o),
(2534,-181,cs)
);
},
{
closed = 1;
nodes = (
(1457,989,o),
(1735,1267,o),
(1735,1611,cs),
(1735,1955,o),
(1457,2232,o),
(1113,2232,cs),
(769,2232,o),
(492,1955,o),
(492,1611,cs),
(492,1267,o),
(769,989,o),
(1113,989,cs)
);
},
{
closed = 1;
nodes = (
(905,1231,o),
(733,1400,o),
(733,1611,cs),
(733,1822,o),
(905,1991,o),
(1113,1991,cs),
(1324,1991,o),
(1493,1822,o),
(1493,1611,cs),
(1493,1400,o),
(1324,1231,o),
(1113,1231,cs)
);
},
{
closed = 1;
nodes = (
(2127,989,o),
(2404,1267,o),
(2404,1611,cs),
(2404,1955,o),
(2127,2232,o),
(1783,2232,cs),
(1716,2232,o),
(1662,2178,o),
(1662,2112,cs),
(1662,2045,o),
(1716,1991,o),
(1783,1991,cs),
(1991,1991,o),
(2163,1822,o),
(2163,1611,cs),
(2163,1400,o),
(1991,1231,o),
(1783,1231,cs),
(1716,1231,o),
(1662,1177,o),
(1662,1110,cs),
(1662,1044,o),
(1716,989,o),
(1783,989,cs)
);
}
);
width = 2896;
},
{
layerId = "B1F27B51-9973-4381-9301-4FE46FE1CA59";
shapes = (
{
closed = 1;
nodes = (
(390,-112,o),
(412,-88,o),
(412,-60,cs),
(412,422,ls),
(412,478,o),
(428,534,o),
(460,582,cs),
(472,600,ls),
(524,678,o),
(612,724,o),
(710,724,cs),
(1520,724,ls),
(1614,724,o),
(1700,678,o),
(1754,600,cs),
(1766,582,ls),
(1798,534,o),
(1814,478,o),
(1814,422,cs),
(1814,-60,ls),
(1814,-88,o),
(1836,-112,o),
(1864,-112,cs),
(1892,-112,o),
(1916,-88,o),
(1916,-60,cs),
(1916,422,ls),
(1916,500,o),
(1898,582,o),
(1850,644,cs),
(1842,656,ls),
(1764,758,o),
(1650,826,o),
(1520,826,cs),
(710,826,ls),
(580,826,o),
(460,760,o),
(388,656,cs),
(376,638,ls),
(336,572,o),
(312,500,o),
(312,422,cs),
(312,-60,ls),
(312,-88,o),
(334,-112,o),
(362,-112,cs)
);
},
{
closed = 1;
nodes = (
(2562,-112,o),
(2584,-88,o),
(2584,-60,cs),
(2584,422,ls),
(2584,500,o),
(2560,572,o),
(2520,638,cs),
(2508,656,ls),
(2438,760,o),
(2316,826,o),
(2188,826,cs),
(2116,826,ls),
(2084,826,o),
(2064,802,o),
(2064,776,cs),
(2064,748,o),
(2084,724,o),
(2116,724,cs),
(2188,724,ls),
(2284,724,o),
(2372,678,o),
(2424,600,cs),
(2436,582,ls),
(2468,534,o),
(2484,478,o),
(2484,422,cs),
(2484,-60,ls),
(2484,-88,o),
(2506,-112,o),
(2534,-112,cs)
);
},
{
closed = 1;
nodes = (
(1418,1060,o),
(1664,1306,o),
(1664,1612,cs),
(1664,1916,o),
(1418,2162,o),
(1114,2162,cs),
(808,2162,o),
(562,1916,o),
(562,1612,cs),
(562,1306,o),
(808,1060,o),
(1114,1060,cs)
);
},
{
closed = 1;
nodes = (
(866,1160,o),
(664,1362,o),
(664,1612,cs),
(664,1860,o),
(866,2060,o),
(1114,2060,cs),
(1364,2060,o),
(1564,1860,o),
(1564,1612,cs),
(1564,1362,o),
(1364,1160,o),
(1114,1160,cs)
);
},
{
closed = 1;
nodes = (
(2086,1056,o),
(2334,1302,o),
(2334,1612,cs),
(2334,1920,o),
(2086,2166,o),
(1776,2164,cs),
(1748,2162,o),
(1726,2138,o),
(1728,2110,cs),
(1728,2082,o),
(1752,2060,o),
(1780,2062,cs),
(2028,2062,o),
(2232,1862,o),
(2232,1612,cs),
(2232,1360,o),
(2028,1158,o),
(1780,1160,cs),
(1752,1160,o),
(1728,1138,o),
(1728,1112,cs),
(1726,1084,o),
(1748,1060,o),
(1776,1058,cs)
);
}
);
width = 2896;
},
{
layerId = "5C20EF92-B63D-42A8-8878-93C2863E0093";
shapes = (
{
closed = 1;
nodes = (
(464,-246,o),
(548,-162,o),
(548,-60,cs),
(548,422,ls),
(548,452,o),
(556,482,o),
(574,508,cs),
(582,522,ls),
(612,564,o),
(660,590,o),
(710,590,cs),
(1520,590,ls),
(1570,590,o),
(1618,564,o),
(1644,522,cs),
(1656,508,ls),
(1670,482,o),
(1678,452,o),
(1678,422,cs),
(1678,-60,ls),
(1678,-162,o),
(1762,-246,o),
(1864,-246,cs),
(1970,-246,o),
(2050,-162,o),
(2050,-60,cs),
(2050,422,ls),
(2050,526,o),
(2018,626,o),
(1964,712,cs),
(1952,730,ls),
(1854,872,o),
(1694,960,o),
(1520,960,cs),
(710,960,ls),
(536,960,o),
(372,872,o),
(278,730,cs),
(264,712,ls),
(208,626,o),
(176,526,o),
(176,422,cs),
(176,-60,ls),
(176,-162,o),
(260,-246,o),
(362,-246,cs)
);
},
{
closed = 1;
nodes = (
(2636,-246,o),
(2720,-162,o),
(2720,-60,cs),
(2720,422,ls),
(2720,526,o),
(2688,626,o),
(2632,712,cs),
(2618,730,ls),
(2524,872,o),
(2360,960,o),
(2188,960,cs),
(2190,960,ls),
(2090,960,o),
(2006,878,o),
(2006,776,cs),
(2006,674,o),
(2090,590,o),
(2190,590,cs),
(2188,590,ls),
(2236,590,o),
(2284,564,o),
(2314,522,cs),
(2322,508,ls),
(2340,482,o),
(2348,452,o),
(2348,422,cs),
(2348,-60,ls),
(2348,-162,o),
(2432,-246,o),
(2534,-246,cs)
);
},
{
closed = 1;
nodes = (
(1492,924,o),
(1800,1232,o),
(1800,1612,cs),
(1800,1990,o),
(1492,2298,o),
(1114,2298,cs),
(734,2298,o),
(426,1990,o),
(426,1612,cs),
(426,1232,o),
(734,924,o),
(1114,924,cs)
);
},
{
closed = 1;
nodes = (
(940,1296,o),
(798,1436,o),
(798,1612,cs),
(798,1784,o),
(940,1926,o),
(1114,1926,cs),
(1288,1926,o),
(1428,1784,o),
(1428,1612,cs),
(1428,1436,o),
(1288,1296,o),
(1114,1296,cs)
);
},
{
closed = 1;
nodes = (
(2270,1046,o),
(2470,1304,o),
(2470,1612,cs),
(2470,1914,o),
(2270,2174,o),
(1994,2266,cs),
(1896,2298,o),
(1794,2242,o),
(1762,2144,cs),
(1732,2048,o),
(1786,1942,o),
(1880,1912,cs),
(2010,1870,o),
(2098,1750,o),
(2098,1612,cs),
(2098,1470,o),
(2010,1352,o),
(1880,1308,cs),
(1786,1280,o),
(1732,1174,o),
(1762,1076,cs),
(1794,980,o),
(1896,924,o),
(1994,956,cs)
);
}
);
width = 2896;
}
);
metricWidth = symbolBase;
unicode = 1024055;
}
{
color = 11;
glyphname = iconPersons.medium;
layers = (
{
layerId = "CD0E3B44-F66A-4791-B84C-A1128DC61275";
metricWidth = "=baseSymbol.medium";
shapes = (
{
closed = 1;
nodes = (
(525,-462,o),
(585,-404,o),
(585,-332,cs),
(585,272,ls),
(585,326,o),
(594,386,o),
(634,434,cs),
(649,453,ls),
(709,525,o),
(787,582,o),
(887,582,cs),
(1901,582,ls),
(1994,582,o),
(2088,534,o),
(2142,453,cs),
(2154,434,l),
(2190,377,o),
(2202,320,o),
(2202,272,cs),
(2202,-332,ls),
(2202,-404,o),
(2263,-462,o),
(2332,-462,cs),
(2404,-462,o),
(2462,-404,o),
(2462,-332,cs),
(2462,272,ls),
(2462,389,o),
(2431,495,o),
(2371,579,cs),
(2356,600,ls),
(2250,748,o),
(2085,845,o),
(1901,845,cs),
(887,845,ls),
(700,845,o),
(525,754,o),
(428,600,cs),
(413,576,ls),
(353,480,o),
(323,374,o),
(323,272,cs),
(323,-332,ls),
(323,-404,o),
(383,-462,o),
(453,-462,cs)
);
},
{
closed = 1;
nodes = (
(3240,-462,o),
(3300,-404,o),
(3300,-332,cs),
(3300,272,ls),
(3300,377,o),
(3267,480,o),
(3207,576,cs),
(3192,600,ls),
(3095,754,o),
(2920,845,o),
(2736,845,cs),
(2649,845,ls),
(2573,845,o),
(2519,784,o),
(2519,712,cs),
(2519,640,o),
(2573,582,o),
(2649,582,cs),
(2736,582,ls),
(2833,582,o),
(2914,525,o),
(2974,453,cs),
(2990,434,ls),
(3029,386,o),
(3038,326,o),
(3038,272,cs),
(3038,-332,ls),
(3038,-404,o),
(3098,-462,o),
(3168,-462,cs)
);
},
{
closed = 1;
nodes = (
(1810,1002,o),
(2148,1339,o),
(2148,1759,cs),
(2148,2175,o),
(1810,2513,o),
(1394,2513,cs),
(974,2513,o),
(637,2175,o),
(637,1759,cs),
(637,1339,o),
(974,1002,o),
(1394,1002,cs)
);
},
{
closed = 1;
nodes = (
(1122,1261,o),
(896,1481,o),
(896,1759,cs),
(896,2033,o),
(1122,2253,o),
(1394,2253,cs),
(1668,2253,o),
(1888,2030,o),
(1888,1759,cs),
(1888,1484,o),
(1668,1261,o),
(1394,1261,cs)
);
},
{
closed = 1;
nodes = (
(2649,1002,o),
(2987,1339,o),
(2987,1759,cs),
(2987,2175,o),
(2649,2513,o),
(2229,2513,cs),
(2160,2513,o),
(2100,2456,o),
(2100,2383,cs),
(2100,2311,o),
(2160,2253,o),
(2229,2253,cs),
(2501,2253,o),
(2724,2030,o),
(2724,1759,cs),
(2724,1484,o),
(2501,1261,o),
(2229,1261,cs),
(2160,1261,o),
(2100,1204,o),
(2100,1131,cs),
(2100,1059,o),
(2160,1002,o),
(2229,1002,cs)
);
}
);
userData = {
RMXScaler = {
height = 125;
verticalShift = -85;
width = 125;
};
};
width = 3620;
},
{
layerId = "B1F27B51-9973-4381-9301-4FE46FE1CA59";
metricWidth = "=baseSymbol.medium";
shapes = (
{
closed = 1;
nodes = (
(483,-394,o),
(512,-366,o),
(512,-332,cs),
(512,272,ls),
(512,343,o),
(531,417,o),
(570,474,cs),
(585,495,ls),
(657,594,o),
(766,653,o),
(884,653,cs),
(1901,653,ls),
(2015,653,o),
(2120,593,o),
(2191,495,cs),
(2207,474,ls),
(2253,408,o),
(2269,334,o),
(2269,272,cs),
(2269,-332,ls),
(2269,-366,o),
(2298,-394,o),
(2329,-394,cs),
(2362,-394,o),
(2391,-366,o),
(2391,-332,cs),
(2391,272,ls),
(2391,359,o),
(2361,457,o),
(2308,547,cs),
(2300,562,ls),
(2221,695,o),
(2066,774,o),
(1901,774,cs),
(884,774,ls),
(734,774,o),
(573,705,o),
(485,562,cs),
(470,538,ls),
(420,459,o),
(390,367,o),
(390,272,cs),
(390,-332,ls),
(390,-366,o),
(418,-394,o),
(453,-394,cs)
);
},
{
closed = 1;
nodes = (
(3198,-394,o),
(3227,-366,o),
(3227,-332,cs),
(3227,272,ls),
(3227,367,o),
(3197,459,o),
(3146,538,cs),
(3131,562,ls),
(3043,705,o),
(2882,774,o),
(2733,774,cs),
(2644,774,ls),
(2603,774,o),
(2580,746,o),
(2580,712,cs),
(2580,678,o),
(2606,653,o),
(2644,653,cs),
(2733,653,ls),
(2851,653,o),
(2959,594,o),
(3031,495,cs),
(3046,474,ls),
(3086,417,o),
(3105,343,o),
(3105,272,cs),
(3105,-332,ls),
(3105,-366,o),
(3133,-394,o),
(3168,-394,cs)
);
},
{
closed = 1;
nodes = (
(1772,1069,o),
(2078,1379,o),
(2078,1759,cs),
(2078,2137,o),
(1772,2446,o),
(1391,2446,cs),
(1010,2446,o),
(704,2137,o),
(704,1759,cs),
(704,1379,o),
(1010,1069,o),
(1391,1069,cs)
);
},
{
closed = 1;
nodes = (
(1080,1194,o),
(826,1446,o),
(826,1759,cs),
(826,2068,o),
(1080,2321,o),
(1391,2321,cs),
(1703,2321,o),
(1956,2069,o),
(1956,1759,cs),
(1956,1446,o),
(1703,1194,o),
(1391,1194,cs)
);
},
{
closed = 1;
nodes = (
(2606,1062,o),
(2913,1380,o),
(2913,1759,cs),
(2913,2139,o),
(2603,2453,o),
(2216,2447,cs),
(2186,2446,o),
(2158,2419,o),
(2159,2382,cs),
(2160,2335,o),
(2213,2320,o),
(2272,2321,cs),
(2555,2319,o),
(2791,2059,o),
(2791,1759,cs),
(2791,1458,o),
(2558,1196,o),
(2268,1194,cs),
(2206,1195,o),
(2160,1176,o),
(2159,1132,cs),
(2158,1099,o),
(2182,1068,o),
(2216,1068,cs)
);
}
);
userData = {
RMXScaler = {
height = 125;
verticalShift = -85;
width = 125;
};
};
width = 3620;
},
{
layerId = "5C20EF92-B63D-42A8-8878-93C2863E0093";
metricWidth = "=baseSymbol.medium";
shapes = (
{
closed = 1;
nodes = (
(563,-535,o),
(656,-442,o),
(656,-332,cs),
(656,272,ls),
(656,316,o),
(672,357,o),
(695,392,cs),
(707,410,ls),
(748,474,o),
(817,508,o),
(887,508,cs),
(1901,508,ls),
(1972,508,o),
(2046,476,o),
(2081,414,cs),
(2093,392,ls),
(2120,348,o),
(2129,307,o),
(2129,272,cs),
(2129,-332,ls),
(2129,-442,o),
(2217,-535,o),
(2332,-535,cs),
(2447,-535,o),
(2536,-442,o),
(2536,-332,cs),
(2536,272,ls),
(2536,383,o),
(2509,511,o),
(2432,617,cs),
(2417,639,ls),
(2296,809,o),
(2107,915,o),
(1901,915,cs),
(887,915,ls),
(681,915,o),
(490,808,o),
(367,639,cs),
(352,618,ls),
(276,512,o),
(249,384,o),
(249,272,cs),
(249,-332,ls),
(249,-442,o),
(342,-535,o),
(453,-535,cs)
);
},
{
closed = 1;
nodes = (
(3278,-535,o),
(3371,-442,o),
(3371,-332,cs),
(3371,272,ls),
(3371,383,o),
(3344,512,o),
(3268,618,cs),
(3253,639,ls),
(3130,808,o),
(2939,915,o),
(2733,915,cs),
(2706,915,ls),
(2591,915,o),
(2502,823,o),
(2502,712,cs),
(2502,601,o),
(2591,508,o),
(2706,508,cs),
(2733,508,ls),
(2804,508,o),
(2872,474,o),
(2913,410,cs),
(2925,392,ls),
(2948,357,o),
(2964,316,o),
(2964,272,cs),
(2964,-332,ls),
(2964,-442,o),
(3057,-535,o),
(3168,-535,cs)
);
},
{
closed = 1;
nodes = (
(1848,928,o),
(2221,1297,o),
(2221,1759,cs),
(2221,2217,o),
(1848,2586,o),
(1391,2586,cs),
(933,2586,o),
(563,2213,o),
(563,1759,cs),
(563,1301,o),
(933,928,o),
(1391,928,cs)
);
},
{
closed = 1;
nodes = (
(1160,1334,o),
(969,1522,o),
(969,1759,cs),
(969,1988,o),
(1160,2180,o),
(1391,2180,cs),
(1627,2180,o),
(1815,1988,o),
(1815,1759,cs),
(1815,1522,o),
(1627,1334,o),
(1391,1334,cs)
);
},
{
closed = 1;
nodes = (
(2785,1036,o),
(3057,1368,o),
(3057,1759,cs),
(3057,2138,o),
(2791,2476,o),
(2406,2561,cs),
(2293,2586,o),
(2181,2520,o),
(2156,2405,cs),
(2134,2301,o),
(2197,2189,o),
(2302,2170,cs),
(2494,2132,o),
(2651,1970,o),
(2651,1759,cs),
(2651,1552,o),
(2503,1383,o),
(2308,1344,cs),
(2206,1325,o),
(2134,1220,o),
(2156,1109,cs),
(2181,985,o),
(2302,931,o),
(2406,953,cs)
);
}
);
userData = {
RMXScaler = {
height = 125;
verticalShift = -85;
width = 125;
};
};
width = 3620;
}
);
unicode = 1024055;
userData = {
RMXScaler = {
source = iconPersons.small;
};
};
}
{
color = 11;
glyphname = iconSearch.medium;
layers = (
{
layerId = "CD0E3B44-F66A-4791-B84C-A1128DC61275";
metricWidth = "=symbolBase.medium";
shapes = (
{
closed = 1;
nodes = (
(2139,217,o),
(2621,697,o),
(2621,1291,cs),
(2621,1882,o),
(2139,2362,o),
(1548,2362,cs),
(956,2362,o),
(474,1882,o),
(474,1291,cs),
(474,697,o),
(956,217,o),
(1548,217,cs)
);
},
{
closed = 1;
nodes = (
(1098,477,o),
(736,842,o),
(736,1291,cs),
(736,1738,o),
(1098,2103,o),
(1548,2103,cs),
(1997,2103,o),
(2359,1738,o),
(2359,1291,cs),
(2359,842,o),
(1997,477,o),
(1548,477,cs)
);
},
{
closed = 1;
nodes = (
(2977,-323,o),
(3059,-323,o),
(3110,-271,cs),
(3161,-220,o),
(3158,-139,o),
(3110,-90,cs),
(2356,664,l),
(2172,483,l),
(2926,-271,ls)
);
}
);
userData = {
RMXScaler = {
height = 125;
verticalShift = -85;
width = 125;
};
};
width = 3620;
},
{
layerId = "B1F27B51-9973-4381-9301-4FE46FE1CA59";
metricWidth = "=symbolBase.medium";
shapes = (
{
closed = 1;
nodes = (
(2097,285,o),
(2548,735,o),
(2548,1291,cs),
(2548,1844,o),
(2097,2295,o),
(1545,2295,cs),
(991,2295,o),
(541,1844,o),
(541,1291,cs),
(541,735,o),
(991,285,o),
(1545,285,cs)
);
},
{
closed = 1;
nodes = (
(1060,409,o),
(663,802,o),
(663,1291,cs),
(663,1776,o),
(1060,2170,o),
(1545,2170,cs),
(2029,2170,o),
(2426,1776,o),
(2426,1291,cs),
(2426,802,o),
(2029,409,o),
(1545,409,cs)
);
},
{
closed = 1;
nodes = (
(2999,-248,o),
(3035,-245,o),
(3058,-222,cs),
(3081,-199,o),
(3081,-163,o),
(3058,-140,cs),
(2304,614,l),
(2218,532,l),
(2972,-222,ls)
);
}
);
userData = {
RMXScaler = {
height = 125;
verticalShift = -85;
width = 125;
};
};
width = 3620;
},
{
layerId = "5C20EF92-B63D-42A8-8878-93C2863E0093";
metricWidth = "=symbolBase.medium";
shapes = (
{
closed = 1;
nodes = (
(2177,144,o),
(2692,659,o),
(2692,1291,cs),
(2692,1921,o),
(2177,2435,o),
(1548,2435,cs),
(915,2435,o),
(400,1921,o),
(400,1291,cs),
(400,659,o),
(915,144,o),
(1548,144,cs)
);
},
{
closed = 1;
nodes = (
(1140,550,o),
(806,880,o),
(806,1291,cs),
(806,1699,o),
(1140,2029,o),
(1548,2029,cs),
(1952,2029,o),
(2286,1699,o),
(2286,1291,cs),
(2286,884,o),
(1956,550,o),
(1548,550,cs)
);
},
{
closed = 1;
nodes = (
(2951,-400,o),
(3078,-403,o),
(3158,-326,cs),
(3245,-242,o),
(3233,-113,o),
(3158,-39,cs),
(2404,715,l),
(2121,431,l),
(2875,-323,ls)
);
}
);
userData = {
RMXScaler = {
height = 125;
verticalShift = -85;
width = 125;
};
};
width = 3620;
}
);
unicode = 1024056;
userData = {
RMXScaler = {
source = iconSearch.small;
};
};
}
{
color = 11;
glyphname = iconShare.medium;
layers = (
{
layerId = "CD0E3B44-F66A-4791-B84C-A1128DC61275";
metricWidth = "=symbolBase.medium";
shapes = (
{
closed = 1;
nodes = (
(2338,1822,ls),
(2398,1864,o),
(2413,1949,o),
(2368,2009,cs),
(2320,2072,o),
(2238,2072,o),
(2190,2039,cs),
(1210,1361,ls),
(1152,1321,o),
(1131,1240,o),
(1177,1177,cs),
(1219,1116,o),
(1300,1104,o),
(1358,1143,cs)
);
},
{
closed = 1;
nodes = (
(1294,594,o),
(1490,787,o),
(1490,1026,cs),
(1490,1264,o),
(1294,1457,o),
(1056,1457,cs),
(821,1457,o),
(624,1264,o),
(624,1026,cs),
(624,787,o),
(821,594,o),
(1056,594,cs)
);
},
{
closed = 1;
nodes = (
(962,854,o),
(887,932,o),
(887,1026,cs),
(887,1119,o),
(962,1198,o),
(1056,1198,cs),
(1152,1198,o),
(1228,1119,o),
(1228,1026,cs),
(1228,932,o),
(1152,854,o),
(1056,854,cs)
);
},
{
closed = 1;
nodes = (
(2250,-30,o),
(2329,-9,o),
(2368,42,cs),
(2413,103,o),
(2398,187,o),
(2338,229,cs),
(1358,908,ls),
(1300,947,o),
(1219,935,o),
(1177,875,cs),
(1131,811,o),
(1152,730,o),
(1210,691,cs),
(2190,12,ls)
);
},
{
closed = 1;
nodes = (
(2802,-462,o),
(2999,-268,o),
(2999,-30,cs),
(2999,208,o),
(2802,401,o),
(2564,401,cs),
(2329,401,o),
(2133,208,o),
(2133,-30,cs),
(2133,-268,o),
(2329,-462,o),
(2564,-462,cs)
);
},
{
closed = 1;
nodes = (
(2471,-202,o),
(2395,-124,o),
(2395,-30,cs),
(2395,63,o),
(2471,142,o),
(2564,142,cs),
(2661,142,o),
(2736,63,o),
(2736,-30,cs),
(2736,-124,o),
(2661,-202,o),
(2564,-202,cs)
);
},
{
closed = 1;
nodes = (
(2802,1650,o),
(2999,1843,o),
(2999,2082,cs),
(2999,2320,o),
(2802,2513,o),
(2564,2513,cs),
(2329,2513,o),
(2133,2320,o),
(2133,2082,cs),
(2133,1843,o),
(2329,1650,o),
(2564,1650,cs)
);
},
{
closed = 1;
nodes = (
(2471,1910,o),
(2395,1988,o),
(2395,2082,cs),
(2395,2175,o),
(2471,2253,o),
(2564,2253,cs),
(2661,2253,o),
(2736,2175,o),
(2736,2082,cs),
(2736,1988,o),
(2661,1910,o),
(2564,1910,cs)
);
}
);
userData = {
RMXScaler = {
height = 125;
verticalShift = -85;
width = 125;
};
};
width = 3620;
},
{
layerId = "B1F27B51-9973-4381-9301-4FE46FE1CA59";
metricWidth = "=symbolBase.medium";
shapes = (
{
closed = 1;
nodes = (
(2293,1881,ls),
(2325,1902,o),
(2326,1939,o),
(2312,1960,cs),
(2292,1992,o),
(2255,1998,o),
(2229,1980,cs),
(1249,1301,ls),
(1217,1279,o),
(1216,1244,o),
(1230,1222,cs),
(1250,1191,o),
(1286,1184,o),
(1312,1203,cs)
);
},
{
closed = 1;
nodes = (
(1252,662,o),
(1417,827,o),
(1417,1026,cs),
(1417,1226,o),
(1252,1390,o),
(1056,1390,cs),
(856,1390,o),
(692,1226,o),
(692,1026,cs),
(692,827,o),
(856,662,o),
(1056,662,cs)
);
},
{
closed = 1;
nodes = (
(924,786,o),
(814,894,o),
(814,1026,cs),
(814,1157,o),
(924,1265,o),
(1056,1265,cs),
(1185,1265,o),
(1295,1157,o),
(1295,1026,cs),
(1295,894,o),
(1185,786,o),
(1056,786,cs)
);
},
{
closed = 1;
nodes = (
(2254,54,o),
(2291,58,o),
(2312,91,cs),
(2333,123,o),
(2315,155,o),
(2293,170,cs),
(1312,849,ls),
(1286,867,o),
(1251,862,o),
(1230,830,cs),
(1209,797,o),
(1227,765,o),
(1249,750,cs),
(2229,71,ls)
);
},
{
closed = 1;
nodes = (
(2760,-394,o),
(2925,-230,o),
(2925,-30,cs),
(2925,170,o),
(2760,334,o),
(2564,334,cs),
(2364,334,o),
(2200,170,o),
(2200,-30,cs),
(2200,-230,o),
(2364,-394,o),
(2564,-394,cs)
);
},
{
closed = 1;
nodes = (
(2431,-269,o),
(2322,-162,o),
(2322,-30,cs),
(2322,103,o),
(2431,209,o),
(2564,209,cs),
(2693,209,o),
(2803,103,o),
(2803,-30,cs),
(2803,-162,o),
(2693,-269,o),
(2564,-269,cs)
);
},
{
closed = 1;
nodes = (
(2760,1717,o),
(2925,1881,o),
(2925,2082,cs),
(2925,2282,o),
(2760,2446,o),
(2564,2446,cs),
(2364,2446,o),
(2200,2282,o),
(2200,2082,cs),
(2200,1881,o),
(2364,1717,o),
(2564,1717,cs)
);
},
{
closed = 1;
nodes = (
(2431,1842,o),
(2322,1950,o),
(2322,2082,cs),
(2322,2213,o),
(2431,2321,o),
(2564,2321,cs),
(2693,2321,o),
(2803,2213,o),
(2803,2082,cs),
(2803,1950,o),
(2693,1842,o),
(2564,1842,cs)
);
}
);
userData = {
RMXScaler = {
height = 125;
verticalShift = -85;
width = 125;
};
};
width = 3620;
},
{
layerId = "5C20EF92-B63D-42A8-8878-93C2863E0093";
metricWidth = "=symbolBase.medium";
shapes = (
{
closed = 1;
nodes = (
(2380,1764,ls),
(2469,1826,o),
(2497,1955,o),
(2426,2051,cs),
(2361,2137,o),
(2238,2162,o),
(2145,2098,cs),
(1164,1419,ls),
(1072,1353,o),
(1051,1227,o),
(1115,1134,cs),
(1190,1027,o),
(1319,1030,o),
(1400,1085,cs)
);
},
{
closed = 1;
nodes = (
(1332,521,o),
(1561,749,o),
(1561,1026,cs),
(1561,1302,o),
(1332,1530,o),
(1056,1530,cs),
(778,1530,o),
(551,1302,o),
(551,1026,cs),
(551,749,o),
(778,521,o),
(1056,521,cs)
);
},
{
closed = 1;
nodes = (
(1001,927,o),
(957,970,o),
(957,1026,cs),
(957,1081,o),
(1001,1124,o),
(1056,1124,cs),
(1111,1124,o),
(1154,1081,o),
(1154,1026,cs),
(1154,970,o),
(1111,927,o),
(1056,927,cs)
);
},
{
closed = 1;
nodes = (
(2237,-111,o),
(2361,-86,o),
(2426,0,cs),
(2497,96,o),
(2470,225,o),
(2380,288,cs),
(1400,966,ls),
(1307,1031,o),
(1181,1010,o),
(1115,917,cs),
(1054,828,o),
(1069,698,o),
(1164,633,cs),
(2145,-46,ls)
);
},
{
closed = 1;
nodes = (
(2841,-535,o),
(3069,-307,o),
(3069,-30,cs),
(3069,246,o),
(2841,475,o),
(2564,475,cs),
(2288,475,o),
(2059,246,o),
(2059,-30,cs),
(2059,-307,o),
(2288,-535,o),
(2564,-535,cs)
);
},
{
closed = 1;
nodes = (
(2509,-129,o),
(2466,-85,o),
(2466,-30,cs),
(2466,25,o),
(2509,68,o),
(2564,68,cs),
(2619,68,o),
(2663,25,o),
(2663,-30,cs),
(2663,-85,o),
(2619,-129,o),
(2564,-129,cs)
);
},
{
closed = 1;
nodes = (
(2841,1577,o),
(3069,1805,o),
(3069,2082,cs),
(3069,2358,o),
(2841,2586,o),
(2564,2586,cs),
(2288,2586,o),
(2059,2358,o),
(2059,2082,cs),
(2059,1805,o),
(2288,1577,o),
(2564,1577,cs)
);
},
{
closed = 1;
nodes = (
(2509,1983,o),
(2466,2026,o),
(2466,2082,cs),
(2466,2137,o),
(2509,2180,o),
(2564,2180,cs),
(2619,2180,o),
(2663,2137,o),
(2663,2082,cs),
(2663,2026,o),
(2619,1983,o),
(2564,1983,cs)
);
}
);
userData = {
RMXScaler = {
height = 125;
verticalShift = -85;
width = 125;
};
};
width = 3620;
}
);
unicode = 1024057;
userData = {
RMXScaler = {
source = iconShare.small;
};
};
}
{
color = 11;
glyphname = iconSorting.medium;
layers = (
{
layerId = "CD0E3B44-F66A-4791-B84C-A1128DC61275";
metricWidth = "=symbolBase.medium";
shapes = (
{
closed = 1;
nodes = (
(700,1560,o),
(763,1569,o),
(799,1605,cs),
(1161,1967,l),
(1523,1605,ls),
(1566,1563,o),
(1629,1572,o),
(1665,1605,cs),
(1704,1641,o),
(1713,1704,o),
(1668,1750,cs),
(1234,2184,ls),
(1210,2208,o),
(1183,2214,o),
(1161,2214,cs),
(1134,2214,o),
(1107,2205,o),
(1086,2184,cs),
(652,1750,ls),
(612,1710,o),
(609,1644,o),
(652,1605,cs)
);
},
{
closed = 1;
nodes = (
(1216,-163,o),
(1264,-118,o),
(1264,-60,cs),
(1264,2112,ls),
(1264,2169,o),
(1216,2214,o),
(1161,2214,cs),
(1101,2214,o),
(1059,2169,o),
(1059,2112,cs),
(1059,-60,ls),
(1059,-118,o),
(1101,-163,o),
(1161,-163,cs)
);
},
{
closed = 1;
nodes = (
(2492,-163,o),
(2516,-151,o),
(2534,-133,cs),
(2968,302,ls),
(3011,344,o),
(3008,407,o),
(2968,446,cs),
(2926,489,o),
(2863,486,o),
(2824,446,cs),
(2462,84,l),
(2100,446,ls),
(2060,486,o),
(1997,486,o),
(1955,446,cs),
(1910,404,o),
(1922,335,o),
(1955,302,cs),
(2389,-133,l),
(2407,-154,o),
(2437,-163,o),
(2462,-163,cs)
);
},
{
closed = 1;
nodes = (
(2519,-163,o),
(2564,-118,o),
(2564,-60,cs),
(2564,2112,ls),
(2564,2169,o),
(2519,2214,o),
(2462,2214,cs),
(2404,2214,o),
(2359,2169,o),
(2359,2112,cs),
(2359,-60,ls),
(2359,-118,o),
(2404,-163,o),
(2462,-163,cs)
);
}
);
userData = {
RMXScaler = {
height = 125;
verticalShift = -85;
width = 125;
};
};
width = 3620;
},
{
layerId = "B1F27B51-9973-4381-9301-4FE46FE1CA59";
metricWidth = "=symbolBase.medium";
shapes = (
{
closed = 1;
nodes = (
(711,1598,o),
(753,1608,o),
(774,1629,cs),
(1161,2016,l),
(1549,1629,ls),
(1570,1608,o),
(1612,1601,o),
(1644,1629,cs),
(1676,1658,o),
(1665,1704,o),
(1644,1726,cs),
(1210,2160,ls),
(1196,2173,o),
(1179,2179,o),
(1161,2179,cs),
(1141,2179,o),
(1124,2173,o),
(1110,2160,cs),
(677,1726,ls),
(652,1700,o),
(648,1655,o),
(677,1629,cs)
);
},
{
closed = 1;
nodes = (
(1198,-128,o),
(1229,-97,o),
(1229,-60,cs),
(1229,2112,ls),
(1229,2148,o),
(1198,2179,o),
(1161,2179,cs),
(1119,2179,o),
(1094,2148,o),
(1094,2112,cs),
(1094,-60,ls),
(1094,-97,o),
(1119,-128,o),
(1161,-128,cs)
);
},
{
closed = 1;
nodes = (
(2478,-128,o),
(2495,-123,o),
(2510,-109,cs),
(2943,326,ls),
(2968,351,o),
(2972,397,o),
(2943,421,cs),
(2909,454,o),
(2870,443,o),
(2849,421,cs),
(2462,35,l),
(2074,421,ls),
(2043,454,o),
(1998,440,o),
(1980,421,cs),
(1955,397,o),
(1957,352,o),
(1983,326,cs),
(2413,-109,l),
(2424,-122,o),
(2448,-128,o),
(2462,-128,cs)
);
},
{
closed = 1;
nodes = (
(2501,-128,o),
(2532,-97,o),
(2532,-60,cs),
(2532,2112,ls),
(2532,2148,o),
(2501,2179,o),
(2462,2179,cs),
(2425,2179,o),
(2394,2148,o),
(2394,2112,cs),
(2394,-60,ls),
(2394,-97,o),
(2425,-128,o),
(2462,-128,cs)
);
}
);
userData = {
RMXScaler = {
height = 125;
verticalShift = -85;
width = 125;
};
};
width = 3620;
},
{
layerId = "5C20EF92-B63D-42A8-8878-93C2863E0093";
metricWidth = "=symbolBase.medium";
shapes = (
{
closed = 1;
nodes = (
(681,1524,o),
(769,1523,o),
(826,1579,cs),
(1161,1916,l),
(1497,1579,ls),
(1550,1527,o),
(1639,1523,o),
(1694,1579,cs),
(1746,1631,o),
(1749,1717,o),
(1690,1776,cs),
(1260,2210,ls),
(1232,2237,o),
(1199,2252,o),
(1161,2252,cs),
(1128,2252,o),
(1091,2240,o),
(1060,2210,cs),
(625,1776,ls),
(570,1721,o),
(574,1631,o),
(625,1579,cs)
);
},
{
closed = 1;
nodes = (
(1235,-201,o),
(1299,-137,o),
(1299,-60,cs),
(1299,2112,ls),
(1299,2188,o),
(1235,2252,o),
(1161,2252,cs),
(1082,2252,o),
(1021,2188,o),
(1021,2112,cs),
(1021,-60,ls),
(1021,-137,o),
(1082,-201,o),
(1161,-201,cs)
);
},
{
closed = 1;
nodes = (
(2495,-201,o),
(2532,-186,o),
(2560,-159,cs),
(2995,276,ls),
(3049,331,o),
(3049,417,o),
(2995,473,cs),
(2942,524,o),
(2853,528,o),
(2797,473,cs),
(2462,139,l),
(2126,473,ls),
(2070,527,o),
(1981,528,o),
(1926,473,cs),
(1870,417,o),
(1873,328,o),
(1926,276,cs),
(2363,-159,l),
(2394,-189,o),
(2431,-201,o),
(2462,-201,cs)
);
},
{
closed = 1;
nodes = (
(2541,-201,o),
(2602,-137,o),
(2602,-60,cs),
(2602,2112,ls),
(2602,2188,o),
(2541,2252,o),
(2462,2252,cs),
(2385,2252,o),
(2324,2188,o),
(2324,2112,cs),
(2324,-60,ls),
(2324,-137,o),
(2385,-201,o),
(2462,-201,cs)
);
}
);
userData = {
RMXScaler = {
height = 125;
verticalShift = -85;
width = 125;
};
};
width = 3620;
}
);
unicode = 1024058;
userData = {
RMXScaler = {
source = iconSorting.small;
};
};
}
{
color = 11;
glyphname = iconSquare.medium;
layers = (
{
layerId = "CD0E3B44-F66A-4791-B84C-A1128DC61275";
metricWidth = "=symbolBase.medium";
shapes = (
{
closed = 1;
nodes = (
(3168,-332,l),
(3168,2383,l),
(453,2383,l),
(453,-332,l)
);
},
{
closed = 1;
nodes = (
(715,2121,l),
(2905,2121,l),
(2905,-69,l),
(715,-69,l)
);
}
);
userData = {
RMXScaler = {
height = 125;
verticalShift = -85;
width = 125;
};
};
width = 3620;
},
{
layerId = "B1F27B51-9973-4381-9301-4FE46FE1CA59";
metricWidth = "=symbolBase.medium";
shapes = (
{
closed = 1;
nodes = (
(3168,-332,l),
(3168,2383,l),
(453,2383,l),
(453,-332,l)
);
},
{
closed = 1;
nodes = (
(574,2261,l),
(3046,2261,l),
(3046,-210,l),
(574,-210,l)
);
}
);
userData = {
RMXScaler = {
height = 125;
verticalShift = -85;
width = 125;
};
};
width = 3620;
},
{
layerId = "5C20EF92-B63D-42A8-8878-93C2863E0093";
metricWidth = "=symbolBase.medium";
shapes = (
{
closed = 1;
nodes = (
(3168,-332,l),
(3168,2383,l),
(453,2383,l),
(453,-332,l)
);
},
{
closed = 1;
nodes = (
(860,1976,l),
(2760,1976,l),
(2760,75,l),
(860,75,l)
);
}
);
userData = {
RMXScaler = {
height = 125;
verticalShift = -85;
width = 125;
};
};
width = 3620;
}
);
unicode = 1024059;
userData = {
RMXScaler = {
source = iconSquare.small;
};
};
}
{
color = 11;
glyphname = iconSquareFill.medium;
layers = (
{
layerId = "CD0E3B44-F66A-4791-B84C-A1128DC61275";
metricWidth = "=baseSymbol.medium";
shapes = (
{
closed = 1;
nodes = (
(3168,-332,l),
(3168,2383,l),
(453,2383,l),
(453,-332,l)
);
}
);
userData = {
RMXScaler = {
height = 125;
verticalShift = -85;
width = 125;
};
};
width = 3620;
},
{
layerId = "B1F27B51-9973-4381-9301-4FE46FE1CA59";
metricWidth = "=baseSymbol.medium";
shapes = (
{
closed = 1;
nodes = (
(3168,-332,l),
(3168,2383,l),
(453,2383,l),
(453,-332,l)
);
}
);
userData = {
RMXScaler = {
height = 125;
verticalShift = -85;
width = 125;
};
};
width = 3620;
},
{
layerId = "5C20EF92-B63D-42A8-8878-93C2863E0093";
metricWidth = "=baseSymbol.medium";
shapes = (
{
closed = 1;
nodes = (
(3168,-332,l),
(3168,2383,l),
(453,2383,l),
(453,-332,l)
);
}
);
userData = {
RMXScaler = {
height = 125;
verticalShift = -85;
width = 125;
};
};
width = 3620;
}
);
unicode = 1024060;
userData = {
RMXScaler = {
source = iconSquareFill.small;
};
};
}
{
color = 11;
glyphname = iconTooltip;
layers = (
{
layerId = "CD0E3B44-F66A-4791-B84C-A1128DC61275";
shapes = (
{
closed = 1;
nodes = (
(2114,-182,o),
(2654,356,o),
(2654,1024,cs),
(2654,1690,o),
(2114,2230,o),
(1448,2230,cs),
(782,2230,o),
(242,1690,o),
(242,1024,cs),
(244,356,o),
(782,-182,o),
(1448,-182,cs)
);
},
{
closed = 1;
nodes = (
(914,58,o),
(482,490,o),
(482,1024,cs),
(482,1558,o),
(914,1990,o),
(1448,1990,cs),
(1982,1990,o),
(2414,1558,o),
(2414,1024,cs),
(2414,490,o),
(1982,58,o),
(1448,58,cs)
);
},
{
closed = 1;
nodes = (
(1750,392,l),
(1750,543,l),
(1569,543,l),
(1569,1207,l),
(1146,1207,l),
(1146,1056,l),
(1327,1056,l),
(1327,543,l),
(1146,543,l),
(1146,392,l)
);
},
{
closed = 1;
nodes = (
(1532,1358,o),
(1599,1424,o),
(1599,1508,cs),
(1599,1593,o),
(1532,1659,o),
(1448,1659,cs),
(1364,1659,o),
(1297,1593,o),
(1297,1508,cs),
(1297,1424,o),
(1364,1358,o),
(1448,1358,cs)
);
}
);
width = 2896;
},
{
layerId = "B1F27B51-9973-4381-9301-4FE46FE1CA59";
shapes = (
{
closed = 1;
nodes = (
(2114,-182,o),
(2654,356,o),
(2654,1024,cs),
(2654,1690,o),
(2114,2230,o),
(1448,2230,cs),
(782,2230,o),
(242,1690,o),
(242,1024,cs),
(244,356,o),
(782,-182,o),
(1448,-182,cs)
);
},
{
closed = 1;
nodes = (
(840,-80,o),
(344,414,o),
(344,1024,cs),
(344,1632,o),
(840,2128,o),
(1448,2128,cs),
(2058,2128,o),
(2552,1632,o),
(2552,1024,cs),
(2552,414,o),
(2058,-80,o),
(1448,-80,cs)
);
},
{
closed = 1;
nodes = (
(1750,460,l),
(1750,574,l),
(1500,574,l),
(1500,1274,l),
(1146,1274,l),
(1146,1160,l),
(1396,1160,l),
(1396,574,l),
(1146,574,l),
(1146,460,l)
);
},
{
closed = 1;
nodes = (
(1502,1478,o),
(1548,1522,o),
(1548,1576,cs),
(1548,1630,o),
(1502,1674,o),
(1448,1674,cs),
(1394,1674,o),
(1348,1630,o),
(1348,1576,cs),
(1348,1522,o),
(1394,1478,o),
(1448,1478,cs)
);
}
);
width = 2896;
},
{
layerId = "5C20EF92-B63D-42A8-8878-93C2863E0093";
shapes = (
{
closed = 1;
nodes = (
(2114,-182,o),
(2654,358,o),
(2654,1024,cs),
(2654,1690,o),
(2114,2230,o),
(1448,2230,cs),
(782,2230,o),
(242,1690,o),
(242,1024,cs),
(242,358,o),
(782,-182,o),
(1448,-182,cs)
);
},
{
closed = 1;
nodes = (
(984,186,o),
(610,560,o),
(610,1024,cs),
(612,1488,o),
(984,1862,o),
(1448,1862,cs),
(1912,1862,o),
(2286,1488,o),
(2286,1024,cs),
(2286,560,o),
(1912,186,o),
(1448,186,cs)
);
},
{
closed = 1;
nodes = (
(1750,390,l),
(1750,606,l),
(1602,606,l),
(1602,1206,l),
(1146,1206,l),
(1146,992,l),
(1294,992,l),
(1294,606,l),
(1146,606,l),
(1146,390,l)
);
},
{
closed = 1;
nodes = (
(1550,1324,o),
(1632,1406,o),
(1632,1506,cs),
(1632,1608,o),
(1550,1690,o),
(1448,1690,cs),
(1346,1690,o),
(1264,1608,o),
(1264,1506,cs),
(1264,1406,o),
(1346,1324,o),
(1448,1324,cs)
);
}
);
width = 2896;
}
);
metricWidth = symbolBase;
unicode = 1024061;
}
